<svg width="62" height="60" viewBox="0 0 62 60" fill="none" xmlns="http://www.w3.org/2000/svg">
<path d="M39.5523 15.2127C41.2216 15.2127 42.5797 13.8639 42.5797 12.206C42.5797 10.5481 41.2216 9.19922 39.5523 9.19922C37.8831 9.19922 36.525 10.5481 36.525 12.206C36.525 12.8831 36.7517 13.5085 37.1335 14.0117L32.1595 20.9153C31.8627 20.8184 31.546 20.7653 31.2169 20.7653C30.4214 20.7653 29.697 21.0721 29.1562 21.5722L25.8408 19.7037C25.885 19.4997 25.9087 19.2883 25.9087 19.0714C25.9087 17.4135 24.5507 16.0647 22.8814 16.0647C21.2121 16.0647 19.854 17.4135 19.854 19.0714C19.854 19.2883 19.8778 19.4997 19.922 19.7037L16.6065 21.5722C16.0657 21.0721 15.3414 20.7654 14.5459 20.7654C12.8766 20.7654 11.5186 22.1143 11.5186 23.7722C11.5186 25.4301 12.8766 26.779 14.5459 26.779C16.2152 26.779 17.5732 25.4301 17.5732 23.7722C17.5732 23.5554 17.5495 23.3439 17.5053 23.14L20.8207 21.2715C21.3615 21.7716 22.0859 22.0784 22.8814 22.0784C23.6768 22.0784 24.4011 21.7716 24.942 21.2716L28.2575 23.1401C28.2133 23.3441 28.1895 23.5555 28.1895 23.7723C28.1895 25.4302 29.5476 26.7792 31.2169 26.7792C32.8863 26.7792 34.2443 25.4302 34.2443 23.7723C34.2443 23.0951 34.0175 22.4696 33.6357 21.9664L38.6098 15.0629C38.9064 15.1596 39.2232 15.2127 39.5523 15.2127ZM39.5523 11.0032C40.2201 11.0032 40.7633 11.5428 40.7633 12.206C40.7633 12.8692 40.2201 13.4087 39.5523 13.4087C38.8846 13.4087 38.3414 12.8692 38.3414 12.206C38.3413 11.5428 38.8845 11.0032 39.5523 11.0032ZM14.5455 24.9748C13.8778 24.9748 13.3346 24.4353 13.3346 23.772C13.3346 23.1087 13.8778 22.5692 14.5455 22.5692C15.2132 22.5692 15.7565 23.1087 15.7565 23.772C15.7565 24.4353 15.2132 24.9748 14.5455 24.9748ZM22.8811 20.2741C22.2134 20.2741 21.6702 19.7346 21.6702 19.0713C21.6702 18.4081 22.2134 17.8686 22.8811 17.8686C23.5489 17.8686 24.0921 18.4081 24.0921 19.0713C24.0922 19.7346 23.5489 20.2741 22.8811 20.2741ZM31.2167 24.9748C30.549 24.9748 30.0058 24.4353 30.0058 23.772C30.0058 23.1087 30.549 22.5692 31.2167 22.5692C31.8846 22.5692 32.4278 23.1087 32.4278 23.772C32.4278 24.4353 31.8845 24.9748 31.2167 24.9748Z" fill="#553CDF"/>
<path d="M50.7136 44.5473H44.3578H9.73932H2.569C2.15401 44.5473 1.81641 44.212 1.81641 43.7999V6.58664C1.81641 6.17448 2.15401 5.83918 2.569 5.83918H6.85039C7.35196 5.83918 7.75859 5.43544 7.75859 4.93717C7.75859 4.4389 7.35196 4.03516 6.85039 4.03516H2.569C1.15245 4.03516 0 5.17975 0 6.58664V43.7999C0 45.2068 1.15245 46.3513 2.569 46.3513H8.83112V48.3365C8.83112 49.4674 9.75749 50.3874 10.8961 50.3874H19.9871L15.7077 58.6857C15.479 59.1291 15.6555 59.6726 16.1019 59.8998C16.2344 59.9673 16.3759 59.9991 16.5152 59.9991C16.8452 59.9991 17.1636 59.8199 17.3243 59.5081L22.0279 50.3874H32.0692L36.7729 59.5081C36.9337 59.8199 37.2519 59.9991 37.5819 59.9991C37.7213 59.9991 37.8627 59.967 37.9952 59.8998C38.4417 59.6726 38.6182 59.1291 38.3895 58.6857L34.11 50.3874H43.201C44.3397 50.3874 45.266 49.4675 45.266 48.3365V46.3513H50.7136C51.2151 46.3513 51.6218 45.9476 51.6218 45.4493C51.6218 44.9511 51.2151 44.5473 50.7136 44.5473ZM43.4496 48.3365C43.4496 48.4726 43.3381 48.5834 43.201 48.5834H10.8961C10.7591 48.5834 10.6475 48.4726 10.6475 48.3365V46.3513H43.4496V48.3365Z" fill="#553CDF"/>
<path d="M10.4834 5.83998H22.9163H31.1811H51.5282C51.9432 5.83998 52.2808 6.17528 52.2808 6.58744V15.1639C52.2808 15.6621 52.6875 16.0659 53.189 16.0659C53.6906 16.0659 54.0972 15.6621 54.0972 15.1639V6.58744C54.0972 5.18055 52.9448 4.03596 51.5282 4.03596H32.0894V2.26296C32.0894 1.01518 31.0673 0 29.8108 0H24.2867C23.0304 0 22.0081 1.01518 22.0081 2.26296V4.03596H10.4834C9.98183 4.03596 9.5752 4.4397 9.5752 4.93797C9.5752 5.43624 9.98183 5.83998 10.4834 5.83998ZM23.8245 2.26296C23.8245 2.00992 24.0318 1.80402 24.2867 1.80402H29.8108C30.0656 1.80402 30.273 2.00992 30.273 2.26296V4.03596H23.8247V2.26296H23.8245Z" fill="#553CDF"/>
<path d="M12.7031 31.3906C12.2016 31.3906 11.7949 31.7944 11.7949 32.2926V40.263C11.7949 40.7613 12.2016 41.165 12.7031 41.165H16.3876C16.8892 41.165 17.2958 40.7613 17.2958 40.263V32.2926C17.2958 31.7944 16.8892 31.3906 16.3876 31.3906H12.7031ZM15.4794 39.3611H13.6113V33.1948H15.4794V39.3611Z" fill="#553CDF"/>
<path d="M21.0381 26.7812C20.5365 26.7812 20.1299 27.185 20.1299 27.6833V40.2634C20.1299 40.7617 20.5365 41.1654 21.0381 41.1654H24.7226C25.2242 41.1654 25.6308 40.7617 25.6308 40.2634V27.6833C25.6308 27.185 25.2242 26.7812 24.7226 26.7812H21.0381ZM23.8145 39.3614H21.9464V28.5853H23.8145V39.3614Z" fill="#553CDF"/>
<path d="M29.374 31.3906C28.8725 31.3906 28.4658 31.7944 28.4658 32.2926V40.263C28.4658 40.7613 28.8725 41.165 29.374 41.165H33.0585C33.5601 41.165 33.9667 40.7613 33.9667 40.263V32.2926C33.9667 31.7944 33.5601 31.3906 33.0585 31.3906H29.374ZM32.1503 39.3611H30.2822V33.1948H32.1503V39.3611Z" fill="#553CDF"/>
<path d="M37.71 36.7148C37.2084 36.7148 36.8018 37.1186 36.8018 37.6169V40.2648C36.8018 40.7631 37.2084 41.1668 37.71 41.1668H41.3945C41.896 41.1668 42.3027 40.7631 42.3027 40.2648C42.3027 39.7665 41.896 39.3628 41.3945 39.3628H38.6182V37.6169C38.6182 37.1186 38.2115 36.7148 37.71 36.7148Z" fill="#553CDF"/>
<path d="M61.5367 45.3955L56.3264 36.4324C57.6465 35.035 58.6077 33.3276 59.1211 31.4245C59.9418 28.3828 59.5206 25.2056 57.9353 22.4784C54.6626 16.8483 47.3884 14.9129 41.72 18.1631C36.0515 21.4133 34.1025 28.638 37.3751 34.2678C38.9605 36.995 41.5203 38.9458 44.5829 39.761C45.6056 40.0331 46.6433 40.1677 47.6744 40.1677C48.5756 40.1677 49.4715 40.0648 50.3478 39.861L55.557 48.8244C56.1955 49.9232 57.3583 50.5382 58.5525 50.5381C59.1377 50.5381 59.7306 50.3902 60.273 50.0795C61.3381 49.4689 61.9999 48.3303 61.9999 47.1081C61.9999 46.5093 61.8398 45.9172 61.5367 45.3955ZM45.053 38.0184C42.459 37.3281 40.2908 35.6757 38.948 33.3658C36.1762 28.5974 37.8271 22.4784 42.6281 19.7254C44.2075 18.8198 45.9334 18.3897 47.6382 18.3897C51.1154 18.3897 54.5021 20.1808 56.3621 23.3805C57.7048 25.6903 58.0616 28.3812 57.3665 30.9576C56.6714 33.534 55.0077 35.6871 52.682 37.0208C50.3564 38.3544 47.647 38.7085 45.053 38.0184ZM59.3651 48.517C58.5837 48.9651 57.5811 48.6983 57.1302 47.9226L52.1184 39.2989C52.6207 39.0953 53.1126 38.8571 53.5904 38.5832C54.0686 38.309 54.5215 38.0037 54.9503 37.6732L59.9636 46.2973C60.1074 46.5452 60.1835 46.8256 60.1835 47.1083C60.1835 47.6877 59.8699 48.2276 59.3651 48.517Z" fill="#553CDF"/>
<path d="M55.8896 30.9138C56.5308 28.8625 56.3781 26.6664 55.4596 24.7301C55.2458 24.2793 54.7047 24.0862 54.251 24.2984C53.7971 24.5108 53.6027 25.0482 53.8165 25.4988C54.541 27.0262 54.6613 28.7592 54.155 30.3787C53.6459 32.0071 52.5461 33.3737 51.0583 34.2269C49.4838 35.1299 47.6493 35.3695 45.8934 34.9022C44.1373 34.4349 42.6694 33.3162 41.7604 31.7525C39.8838 28.5244 41.0015 24.3819 44.2518 22.5181C46.6283 21.1556 49.5775 21.3377 51.7658 22.982C52.1659 23.2826 52.7354 23.2044 53.038 22.807C53.3406 22.4097 53.2618 21.844 52.8617 21.5435C50.0897 19.4603 46.3535 19.2297 43.3435 20.9557C41.3488 22.0994 39.922 23.9463 39.3258 26.1559C38.7297 28.3654 39.0357 30.6734 40.1873 32.6544C41.3389 34.6356 43.1984 36.0526 45.4232 36.6448C46.1661 36.8425 46.92 36.9403 47.669 36.9403C49.163 36.9403 50.6378 36.5511 51.9663 35.7892C53.8514 34.7085 55.2447 32.9771 55.8896 30.9138Z" fill="#553CDF"/>
</svg>
