<svg width="61" height="60" viewBox="0 0 61 60" fill="none" xmlns="http://www.w3.org/2000/svg">
<path d="M58.5036 51.8534H56.5749C56.7111 51.5181 56.7867 51.1517 56.7867 50.7678V19.6763C56.7867 18.0866 55.4999 16.7931 53.9183 16.7931H48.5157C47.8563 14.7507 46.8504 12.8255 45.5136 11.0804C45.2122 10.6869 44.6506 10.6138 44.2597 10.9166C43.8683 11.2193 43.7954 11.7837 44.0967 12.177C46.4206 15.211 47.6492 18.8439 47.6492 22.6833C47.6492 32.1879 39.9562 39.9206 30.5001 39.9206C21.044 39.9206 13.351 32.188 13.351 22.6833C13.351 13.1786 21.044 5.44605 30.5 5.44605C34.4402 5.44605 38.2881 6.82237 41.3346 9.3215C41.7172 9.63537 42.2804 9.57813 42.5928 9.19348C42.905 8.80896 42.848 8.24276 42.4654 7.92889C39.1004 5.16858 34.8511 3.64844 30.5 3.64844C22.1025 3.64844 14.966 9.17157 12.4927 16.7931H7.08172C5.50013 16.7931 4.21329 18.0866 4.21329 19.6763V50.7677C4.21329 51.1516 4.28894 51.5179 4.42512 51.8532H2.49635C1.1198 51.8534 0 52.9789 0 54.3625V56.528C0 58.4416 1.54883 59.9982 3.45258 59.9982H57.5474C59.4512 59.9982 61 58.4415 61 56.528V54.3625C61 52.9789 59.8802 51.8534 58.5036 51.8534ZM6.00171 19.6763C6.00171 19.0777 6.48625 18.5907 7.08172 18.5907H12.0059C11.9007 19.0716 11.8124 19.5587 11.7443 20.0522H10.3002C9.07649 20.0522 8.08095 21.0529 8.08095 22.2829V40.0432C8.08095 40.5397 8.48126 40.9421 8.9751 40.9421C9.46906 40.9421 9.86925 40.5397 9.86925 40.0432V22.2829C9.86925 22.0441 10.0625 21.8498 10.3001 21.8498H11.5817C11.5697 22.1263 11.5625 22.4039 11.5625 22.6833C11.5625 33.1792 20.0578 41.7182 30.5 41.7182C40.9422 41.7182 49.4375 33.1792 49.4375 22.6833C49.4375 22.4044 49.4313 22.1266 49.4195 21.8498H50.6998C50.9374 21.8498 51.1306 22.0441 51.1306 22.2829V48.1613C51.1306 48.4 50.9374 48.5943 50.6998 48.5943H10.3002C10.0626 48.5943 9.86937 48.4 9.86937 48.1613V44.2241C9.86937 43.7276 9.46906 43.3253 8.97522 43.3253C8.48126 43.3253 8.08107 43.7276 8.08107 44.2241V48.1613C8.08107 49.3912 9.07661 50.3919 10.3003 50.3919H50.7001C51.9237 50.3919 52.9193 49.3912 52.9193 48.1613V22.2829C52.9193 21.0529 51.9237 20.0522 50.7001 20.0522H49.2595C49.1924 19.56 49.1042 19.0731 48.9997 18.5907H53.9185C54.5141 18.5907 54.9985 19.0777 54.9985 19.6763V50.7677C54.9985 51.3663 54.5141 51.8532 53.9186 51.8532H7.0816C6.48613 51.8531 6.00171 51.3662 6.00171 50.7677V19.6763ZM35.5698 53.651V53.6637C35.5698 54.3683 34.9995 54.9417 34.2984 54.9417H26.7014C26.0004 54.9417 25.4301 54.3683 25.4301 53.6637V53.651H35.5698ZM59.2116 56.5279C59.2116 57.4503 58.465 58.2005 57.5474 58.2005H3.45258C2.53496 58.2005 1.78842 57.4503 1.78842 56.5279V54.3624C1.78842 53.9701 2.10593 53.6509 2.49635 53.6509H23.6418V53.6636C23.6418 55.3595 25.0144 56.7392 26.7016 56.7392H34.2986C35.9857 56.7392 37.3583 55.3595 37.3583 53.6636V53.6509H58.5038C58.8942 53.6509 59.2117 53.9701 59.2117 54.3624L59.2116 56.5279Z" fill="#553CDF"/>
<path d="M43.8487 5.8006C44.0169 5.94466 44.223 6.01508 44.4279 6.01508C44.681 6.01508 44.9324 5.90778 45.1092 5.69905L48.6827 1.48146C49.003 1.10352 48.9577 0.536372 48.5817 0.214476C48.2057 -0.10742 47.6413 -0.0616746 47.3212 0.316027L43.7478 4.53361C43.4274 4.91155 43.4726 5.4787 43.8487 5.8006Z" fill="#553CDF"/>
<path d="M46.8882 8.79775C47.0639 9.03223 47.3318 9.15569 47.603 9.15569C47.7903 9.15569 47.9794 9.09666 48.1405 8.97463L56.4305 2.69466C56.825 2.39587 56.9037 1.83243 56.6065 1.43605C56.3093 1.03967 55.7485 0.960392 55.3542 1.25918L47.0641 7.53903C46.6697 7.83781 46.5909 8.40137 46.8882 8.79775Z" fill="#553CDF"/>
<path d="M54.9056 9.98552L49.3037 11.0875C48.819 11.1828 48.5029 11.655 48.5979 12.1421C48.6814 12.5711 49.0555 12.8685 49.4745 12.8685C49.5315 12.8685 49.5893 12.8629 49.6472 12.8516L55.249 11.7496C55.7337 11.6543 56.0498 11.1821 55.9548 10.6949C55.8601 10.2078 55.3906 9.89067 54.9056 9.98552Z" fill="#553CDF"/>
<path d="M39.8307 16.6029V10.7848C39.8307 10.1 39.3957 9.49865 38.7482 9.288C38.0992 9.077 37.3937 9.30896 36.9934 9.86557C33.7705 14.3476 28.592 15.8638 23.3658 15.8624C22.8495 15.8624 22.333 15.8624 21.8165 15.8624C19.0841 15.8624 16.8613 18.0967 16.8613 20.8431C16.8613 23.5395 19.0044 25.7406 21.6683 25.8199V32.249C21.6683 34.4061 23.4143 36.1611 25.5604 36.1611C27.7065 36.1611 29.4525 34.4061 29.4525 32.249V26.5594C31.8929 27.3062 34.8257 28.8068 36.9932 31.8205C37.2949 32.2401 37.7698 32.4753 38.2635 32.4753C38.4248 32.4753 38.5883 32.4502 38.7481 32.3982C39.3956 32.1875 39.8306 31.5861 39.8306 30.9014V25.0833H39.9208C42.2467 25.0833 44.1392 23.1812 44.1392 20.8432C44.1392 18.5052 42.2467 16.603 39.9208 16.603L39.8307 16.6029ZM21.8165 24.0261C20.0704 24.0261 18.6497 22.5982 18.6497 20.8431C18.6497 19.088 20.0704 17.6601 21.8165 17.6601H23.9277V24.0261H21.8165ZM27.6642 32.249C27.6642 33.415 26.7205 34.3635 25.5605 34.3635C24.4005 34.3635 23.4568 33.4149 23.4568 32.249V25.8237H24.8221C24.8272 25.8237 24.8321 25.823 24.8371 25.823C24.8417 25.8229 24.8464 25.8235 24.851 25.8233C24.8801 25.8222 26.0203 25.798 27.6643 26.1151L27.6642 32.249ZM38.0423 30.2354C35.99 27.6289 33.128 25.7398 29.7251 24.7532C28.0466 24.2666 26.6014 24.1024 25.716 24.049V17.6372C26.6013 17.5837 28.0465 17.4195 29.7251 16.933C33.128 15.9465 35.9898 14.0575 38.0423 11.4509V30.2354ZM42.3509 20.8431C42.3509 22.1898 41.2609 23.2857 39.9209 23.2857H39.8307V18.4006H39.9209C41.2609 18.4005 42.3509 19.4962 42.3509 20.8431Z" fill="#553CDF"/>
</svg>
