<svg width="65" height="60" viewBox="0 0 65 60" fill="none" xmlns="http://www.w3.org/2000/svg">
<path d="M58.4223 26.1532H41.7853V19.6148C41.7853 19.3088 41.6631 19.0153 41.4454 18.7989C41.2277 18.5825 40.9325 18.4609 40.6246 18.4609H25.1484C24.8406 18.4609 24.5453 18.5825 24.3277 18.7989C24.11 19.0153 23.9877 19.3088 23.9877 19.6148V26.1532H8.12458C7.81674 26.1532 7.52151 26.2748 7.30383 26.4912C7.08616 26.7076 6.96387 27.0011 6.96387 27.3071V58.8455C6.96387 59.1515 7.08616 59.445 7.30383 59.6614C7.52151 59.8778 7.81674 59.9993 8.12458 59.9993H58.4223C58.7301 59.9993 59.0253 59.8778 59.243 59.6614C59.4607 59.445 59.583 59.1515 59.583 58.8455V27.3071C59.583 27.0011 59.4607 26.7076 59.243 26.4912C59.0253 26.2748 58.7301 26.1532 58.4223 26.1532ZM26.3091 20.7686H39.4639V26.1532H26.3091V20.7686ZM57.2616 28.4609V40.7686H39.255C38.9471 40.7686 38.6519 40.8902 38.4342 41.1065C38.2166 41.3229 38.0943 41.6164 38.0943 41.9224C38.0943 43.2404 37.5676 44.5043 36.6301 45.4362C35.6927 46.3681 34.4212 46.8917 33.0955 46.8917C31.7697 46.8917 30.4982 46.3681 29.5608 45.4362C28.6233 44.5043 28.0966 43.2404 28.0966 41.9224C28.0966 41.6164 27.9743 41.3229 27.7567 41.1065C27.539 40.8902 27.2438 40.7686 26.9359 40.7686H9.2853V28.4609H57.2616ZM9.2853 57.6916V43.0763H25.8681C26.1443 44.784 27.0235 46.3381 28.3479 47.4599C29.6724 48.5817 31.3555 49.1978 33.0955 49.1978C34.8354 49.1978 36.5185 48.5817 37.843 47.4599C39.1674 46.3381 40.0466 44.784 40.3228 43.0763H57.2616V57.6916H9.2853Z" fill="#553CDF"/>
<path d="M34.8211 3.07692C35.6758 3.07692 36.3687 2.38813 36.3687 1.53846C36.3687 0.688791 35.6758 0 34.8211 0C33.9663 0 33.2734 0.688791 33.2734 1.53846C33.2734 2.38813 33.9663 3.07692 34.8211 3.07692Z" fill="#553CDF"/>
<path d="M63.4519 16.9246C64.3066 16.9246 64.9995 16.2358 64.9995 15.3861C64.9995 14.5364 64.3066 13.8477 63.4519 13.8477C62.5972 13.8477 61.9043 14.5364 61.9043 15.3861C61.9043 16.2358 62.5972 16.9246 63.4519 16.9246Z" fill="#553CDF"/>
<path d="M1.54762 22.3074C2.40235 22.3074 3.09524 21.6186 3.09524 20.7689C3.09524 19.9193 2.40235 19.2305 1.54762 19.2305C0.692894 19.2305 0 19.9193 0 20.7689C0 21.6186 0.692894 22.3074 1.54762 22.3074Z" fill="#553CDF"/>
<path d="M25.4659 13.1232C25.8456 13.1284 26.2254 13.113 26.6034 13.077C26.7559 13.0578 26.903 13.009 27.0364 12.9333C27.1699 12.8575 27.287 12.7564 27.3811 12.6357C27.4752 12.515 27.5445 12.377 27.585 12.2297C27.6255 12.0824 27.6364 11.9285 27.6171 11.777C27.5978 11.6255 27.5487 11.4792 27.4725 11.3466C27.3963 11.2139 27.2946 11.0975 27.1732 11.0039C27.0518 10.9104 26.913 10.8415 26.7648 10.8012C26.6165 10.761 26.4618 10.7501 26.3094 10.7693C25.1341 10.8939 23.9458 10.7547 22.8318 10.3622C21.7178 9.96957 20.7067 9.33353 19.8728 8.50091C19.0389 7.66828 18.4036 6.66029 18.0136 5.55118C17.6236 4.44208 17.489 3.26013 17.6195 2.09242C17.6533 1.7864 17.5635 1.47954 17.3698 1.23935C17.1761 0.999162 16.8943 0.845313 16.5864 0.811651C16.2786 0.777989 15.9699 0.867271 15.7283 1.05986C15.4867 1.25244 15.3319 1.53255 15.298 1.83857C15.1403 3.25948 15.2857 4.69747 15.7248 6.05875C16.1638 7.42002 16.8867 8.67398 17.8461 9.73881C18.8056 10.8036 19.9801 11.6554 21.293 12.2386C22.606 12.8217 24.0279 13.1231 25.4659 13.1232Z" fill="#553CDF"/>
<path d="M42.6291 10.8863C43.8417 11.7494 45.235 12.3288 46.7046 12.5809C48.1743 12.8331 49.6823 12.7515 51.1158 12.3424C52.5493 11.9332 53.8711 11.2071 54.9824 10.2183C56.0936 9.22944 56.9655 8.00359 57.5327 6.63243C57.6517 6.34988 57.653 6.03189 57.5362 5.74842C57.4194 5.46495 57.194 5.23922 56.9098 5.1209C56.6256 5.00257 56.3057 5.00133 56.0205 5.11746C55.7354 5.23359 55.5083 5.45757 55.3893 5.74013C54.9537 6.79332 54.284 7.73485 53.4303 8.49419C52.5767 9.25352 51.5613 9.81096 50.4601 10.1247C49.3649 10.4395 48.212 10.5027 47.0886 10.3095C45.9652 10.1162 44.9007 9.67166 43.9756 9.00935C43.8516 8.92096 43.7113 8.85771 43.5627 8.82321C43.4142 8.78871 43.2602 8.78364 43.1097 8.80828C42.9592 8.83293 42.815 8.8868 42.6854 8.96684C42.5558 9.04687 42.4433 9.1515 42.3544 9.27474C42.2655 9.39798 42.2019 9.53742 42.1672 9.6851C42.1325 9.83279 42.1274 9.98582 42.1522 10.1355C42.1769 10.2851 42.2311 10.4284 42.3117 10.5573C42.3922 10.6861 42.4974 10.7979 42.6214 10.8863H42.6291Z" fill="#553CDF"/>
</svg>
