<svg width="60" height="60" viewBox="0 0 60 60" fill="none" xmlns="http://www.w3.org/2000/svg">
<g clip-path="url(#clip0_2076_22664)">
<path d="M59.8483 35.96L49.4081 17.4813C49.0906 16.9189 48.378 16.7197 47.8148 17.0348L41.9318 20.3266C41.6598 20.479 41.4596 20.7334 41.3754 21.0336C41.2912 21.3338 41.3302 21.6553 41.4836 21.9267L42.2045 23.2027L40.4911 23.6981C39.7567 23.9107 39.3113 24.0261 39.0661 24.0261C39.0651 24.0261 39.064 24.0261 39.0631 24.0261C38.8947 24.0254 38.7093 23.9603 38.1792 23.7586C37.9399 23.6675 37.6421 23.5542 37.2742 23.425L34.9057 22.598C32.4453 21.7395 28.6716 23.4935 28.6349 23.5112L24.973 25.265L17.8002 23.1879L18.5165 21.92C18.6699 21.6486 18.7088 21.3272 18.6246 21.027C18.5405 20.7267 18.3402 20.4723 18.0681 20.32L12.1854 17.0282C11.6222 16.7134 10.9096 16.9125 10.5919 17.4747L0.151664 35.9534C-0.00173409 36.2248 -0.0406403 36.5462 0.0435003 36.8464C0.127641 37.1467 0.327914 37.4011 0.600024 37.5534L6.48272 40.8452C6.66389 40.9465 6.86041 40.9946 7.05424 40.9946C7.46346 40.9946 7.86073 40.7802 8.07612 40.3986L8.85002 39.0289L10.945 40.6791C10.5876 41.2025 10.3612 41.8097 10.2887 42.4595C10.1721 43.505 10.4683 44.5308 11.1224 45.3479C11.7699 46.1566 12.694 46.6679 13.727 46.7909C13.6228 47.7832 13.8928 48.8147 14.5637 49.6528C15.2345 50.4907 16.1814 50.9802 17.1722 51.0972C17.064 52.133 17.3599 53.1479 18.0083 53.9577C18.6558 54.7664 19.5799 55.2777 20.613 55.4006C20.5088 56.3929 20.7787 57.4246 21.4497 58.2626C22.2249 59.2309 23.369 59.735 24.5233 59.735C25.3841 59.7349 26.2507 59.4546 26.9742 58.877L28.8212 57.3988C29.2191 57.0803 29.5376 56.6992 29.7761 56.2813L31.3296 57.5228C32.0535 58.1006 32.9203 58.3812 33.7817 58.3812C34.9354 58.3811 36.0791 57.8773 36.8539 56.9094C37.2611 56.3994 37.5195 55.8179 37.6368 55.2175C38.051 55.3596 38.4824 55.4297 38.9124 55.4297C40.0661 55.4297 41.2099 54.9257 41.9849 53.9578C42.656 53.1195 42.9265 52.0881 42.8232 51.0961C43.8569 50.9736 44.7817 50.462 45.4295 49.6529C46.1005 48.8148 46.3704 47.7832 46.2662 46.791C47.2992 46.668 48.2234 46.1568 48.8708 45.348C49.525 44.531 49.821 43.5053 49.7045 42.4597C49.6322 41.8104 49.4059 41.2035 49.0492 40.6804L51.1456 39.0279L51.9238 40.4053C52.1393 40.7869 52.5365 41.0013 52.9457 41.0013C53.1395 41.0013 53.3362 40.9532 53.5173 40.8519L59.4 37.5601C59.672 37.4078 59.8723 37.1534 59.9565 36.8531C60.0407 36.5529 60.0017 36.2314 59.8483 35.96ZM6.60881 38.2284L2.77268 36.0818L12.0592 19.6451L15.8955 21.7917L6.60881 38.2284ZM12.9532 43.8823C12.691 43.5547 12.5725 43.1418 12.6195 42.7193C12.6666 42.2971 12.8731 41.9202 13.2021 41.6576L16.9726 38.6413C17.3003 38.379 17.7141 38.2604 18.1356 38.3074C18.5578 38.3545 18.9346 38.5611 19.1976 38.8904C19.4598 39.218 19.5783 39.6311 19.5313 40.0534C19.4842 40.4756 19.2776 40.8524 18.9495 41.1143C18.9481 41.1155 18.9469 41.1168 18.9455 41.1178L15.1785 44.1309C15.1784 44.1311 15.1783 44.1312 15.1781 44.1313C14.8513 44.393 14.4386 44.5111 14.0162 44.464C13.5933 44.417 13.2157 44.2103 12.9532 43.8823ZM16.3946 48.1873C15.8497 47.5069 15.9614 46.509 16.6435 45.9627L22.3358 41.4094C23.018 40.8649 24.0167 40.9763 24.5621 41.6577C24.8242 41.9851 24.9429 42.3982 24.8962 42.821C24.8495 43.2435 24.6435 43.6205 24.3164 43.8822L22.4017 45.4137C22.3988 45.416 22.3956 45.4181 22.3927 45.4205C22.3913 45.4216 22.3901 45.4229 22.3887 45.424L18.6238 48.4355C17.9408 48.9809 16.9408 48.8695 16.3946 48.1873ZM19.8392 52.4921C19.5769 52.1646 19.4584 51.7515 19.5054 51.3292C19.5525 50.907 19.7591 50.5302 20.0872 50.2683C20.0872 50.2683 20.0874 50.2682 20.0875 50.268C20.0877 50.2679 20.0878 50.2677 20.0881 50.2676L23.8631 47.2479C24.19 46.9881 24.6011 46.8704 25.0217 46.9173C25.4438 46.9644 25.8206 47.171 26.0835 47.5003C26.3458 47.8279 26.4642 48.2409 26.4172 48.6633C26.3701 49.0855 26.1635 49.4623 25.8345 49.725L23.9292 51.2491C23.9236 51.2536 23.9178 51.2577 23.9121 51.2621C23.9092 51.2645 23.9067 51.2671 23.9039 51.2694L22.0641 52.7413C21.7372 53.0031 21.3248 53.1211 20.9022 53.074C20.4792 53.0269 20.1017 52.8202 19.8392 52.4921ZM27.3557 55.5682L25.5099 57.0454C24.8268 57.5907 23.8266 57.4794 23.2804 56.7972C22.7356 56.1166 22.8474 55.1184 23.5296 54.5722C23.5299 54.5721 23.53 54.5719 23.5301 54.5718L25.383 53.0896C25.711 52.8308 26.1224 52.7135 26.5419 52.7604C26.9645 52.8073 27.3416 53.014 27.6046 53.3434C27.8179 53.6099 27.9292 53.925 27.9463 54.2427C27.9461 54.2726 27.9471 54.3022 27.9491 54.332C27.9484 54.7959 27.7457 55.2559 27.3557 55.5682ZM47.04 43.8823C46.7775 44.2103 46.3999 44.4169 45.9771 44.4642C45.5544 44.5111 45.1419 44.3933 44.8152 44.1315C44.815 44.1314 44.8149 44.1313 44.8146 44.1311L41.6924 41.6334C41.1865 41.2287 40.4486 41.3112 40.0443 41.8165C39.6398 42.3221 39.7217 43.0601 40.2273 43.4646L43.3494 45.9622C44.0317 46.5084 44.1435 47.5065 43.5987 48.1872C43.3362 48.5152 42.9586 48.7218 42.5358 48.7691C42.1129 48.8155 41.7007 48.6982 41.3733 48.4361L37.9886 45.7289C37.4827 45.3243 36.7449 45.4066 36.3405 45.9122C35.936 46.4179 36.0181 47.1558 36.5237 47.5603L39.908 50.2671C40.5892 50.8124 40.6996 51.8106 40.1541 52.492C39.6086 53.1735 38.61 53.2846 37.9287 52.7409L36.3064 51.4434C36.2831 51.424 36.2608 51.4039 36.237 51.385L34.5429 50.033C34.5244 50.0182 34.5089 50.0074 34.4951 49.9986C33.9914 49.6361 33.2875 49.7273 32.8957 50.2171C32.5103 50.6991 32.5677 51.3913 33.0116 51.8054C33.0249 51.8198 33.0469 51.8395 33.0799 51.866L33.1189 51.8971L34.8062 53.2466C35.4573 53.7986 35.5569 54.775 35.022 55.445C34.4766 56.1264 33.4764 56.2359 32.7931 55.6903L30.2355 53.6466C30.1257 53.019 29.8617 52.4099 29.4365 51.8788C29.0555 51.4016 28.5781 51.0286 28.0392 50.7768C28.4264 50.237 28.6719 49.6037 28.7478 48.9231C28.8642 47.8775 28.5682 46.8518 27.915 46.0359C27.5344 45.5592 27.0574 45.1863 26.5192 44.9345C26.9063 44.394 27.1517 43.7599 27.227 43.0785C27.3426 42.0333 27.0463 41.0081 26.3928 40.1919C25.2706 38.79 23.3749 38.3623 21.7953 39.0286C21.6681 38.4483 21.4098 37.9014 21.0292 37.4261C20.376 36.608 19.4406 36.0932 18.3952 35.9768C17.3493 35.8594 16.3238 36.1563 15.5072 36.8102L12.6873 39.0661L10.0172 36.9632L16.6146 25.286L22.0321 26.8549C20.0556 28.3589 19.8482 30.2082 20.379 31.4919C21.01 33.0177 22.8211 34.2083 25.3191 34.2081C26.2745 34.2081 27.331 34.0338 28.4596 33.6375C29.3262 33.3336 30.0558 33.0296 30.6995 32.7613C33.036 31.7873 33.8233 31.4592 36.1237 33.1079C37.4445 34.0567 39.3137 35.5986 40.963 36.9591C41.7149 37.5792 42.4249 38.1649 43.0078 38.6318L46.7921 41.6583C47.1202 41.9203 47.3267 42.2971 47.3739 42.7193C47.4209 43.1418 47.3024 43.5548 47.04 43.8823ZM47.3072 39.0674L44.4733 36.8009C43.9043 36.345 43.2005 35.7645 42.4553 35.1498C42.2339 34.9672 42.0085 34.7813 41.781 34.594C42.7115 34.4788 43.6142 34.2367 44.406 33.9105C45.0047 33.664 45.2903 32.9787 45.0436 32.3798C44.7971 31.781 44.1121 31.4954 43.5129 31.7422C41.8694 32.4192 39.4501 32.61 38.1169 31.6644C37.8994 31.5005 37.6893 31.3451 37.4909 31.2025C34.1274 28.7916 32.311 29.5487 29.7973 30.5966C29.1829 30.8527 28.4865 31.1429 27.6832 31.4244C24.8274 32.4274 22.9296 31.5227 22.5462 30.5957C22.2174 29.8004 22.9903 28.8147 24.5158 28.0842L29.6486 25.6259C30.6785 25.1314 33.0579 24.4369 34.1325 24.8121L36.4991 25.6385C36.8365 25.757 37.1066 25.8598 37.3451 25.9505C38.818 26.5109 39.2085 26.5109 41.1428 25.9509L43.3901 25.301L49.9784 36.9619L47.3072 39.0674ZM53.3911 38.235L44.1046 21.7983L47.9408 19.6516L57.2274 36.0884L53.3911 38.235Z" fill="#553CDF"/>
<path d="M25.9883 11.5772L28.2437 13.4905C28.4564 13.6708 28.7254 13.7688 29.0021 13.7688C29.0351 13.7688 29.0683 13.7674 29.1015 13.7647C29.4126 13.7381 29.7002 13.5888 29.9008 13.3495L34.1526 8.27728C34.5686 7.78111 34.5035 7.04142 34.0072 6.6254C33.5111 6.20974 32.7716 6.27443 32.3553 6.77083L28.8612 10.9391L27.5053 9.78876C27.0113 9.36982 26.2714 9.43064 25.8526 9.92446C25.4337 10.4183 25.4944 11.1582 25.9883 11.5772Z" fill="#553CDF"/>
<path d="M29.9988 19.8564C35.4021 19.8564 39.7979 15.4606 39.7979 10.0574C39.7979 4.65602 35.4021 0.261719 29.9988 0.261719C24.5974 0.261719 20.2031 4.65602 20.2031 10.0574C20.2031 15.4607 24.5974 19.8564 29.9988 19.8564ZM29.9988 2.60688C34.1089 2.60688 37.4528 5.9493 37.4528 10.0574C37.4528 14.1674 34.1089 17.5114 29.9988 17.5114C25.8906 17.5114 22.5483 14.1675 22.5483 10.0574C22.5483 5.9493 25.8905 2.60688 29.9988 2.60688Z" fill="#553CDF"/>
</g>
<defs>
<clipPath id="clip0_2076_22664">
<rect width="60" height="60" fill="white"/>
</clipPath>
</defs>
</svg>
