<svg width="68" height="58" viewBox="0 0 68 58" fill="none" xmlns="http://www.w3.org/2000/svg">
<path d="M61.9439 7.74609H61.1683C60.6191 7.74609 60.1741 8.1921 60.1741 8.74254C60.1741 9.29297 60.6191 9.73898 61.1683 9.73898H61.9439C64.187 9.73898 66.0118 11.5681 66.0118 13.8162V51.9315C66.0118 54.1798 64.1868 56.0088 61.9439 56.0088H6.05625C3.81331 56.009 1.98831 54.1798 1.98831 51.9315V21.3736C1.98831 20.8232 1.54332 20.3772 0.994154 20.3772C0.444983 20.3772 0 20.8232 0 21.3736V51.9315C0 55.2786 2.71682 58.0017 6.05625 58.0017H61.9437C65.2832 58.0017 68 55.2786 68 51.9315V13.8163C68.0001 10.4692 65.2833 7.74609 61.9439 7.74609Z" fill="#553CDF"/>
<path d="M0.994154 18.1219C1.54332 18.1219 1.98831 17.6759 1.98831 17.1254V6.07008C1.98831 3.82183 3.81331 1.99289 6.05625 1.99289H25.5409C26.2364 1.99289 26.9245 2.17305 27.5312 2.51423L38.9973 8.96123C39.9004 9.46902 40.9251 9.73739 41.9605 9.73739H46.559C47.1082 9.73739 47.5532 9.29138 47.5532 8.74095C47.5532 8.19051 47.1082 7.7445 46.559 7.7445H41.9605C41.2651 7.7445 40.5769 7.56435 39.97 7.22316L28.504 0.776165C27.601 0.268509 26.5765 4.86145e-09 25.5409 4.86145e-09H6.05625C2.71682 -0.000132854 0 2.72295 0 6.07008V17.1254C0 17.6757 0.444983 18.1219 0.994154 18.1219Z" fill="#553CDF"/>
<path d="M27.6528 16.4053C29.6637 15.556 31.7991 15.1256 33.9999 15.1256C36.2776 15.1256 38.4829 15.5866 40.5548 16.4957C40.6846 16.5527 40.8199 16.5797 40.953 16.5797C41.336 16.5797 41.7009 16.3566 41.8642 15.9826C42.0844 15.4786 41.8553 14.8909 41.3523 14.6703C39.0274 13.65 36.5538 13.1328 33.9999 13.1328C31.5327 13.1328 29.1373 13.616 26.8808 14.5688C26.3749 14.7824 26.1376 15.3668 26.3506 15.874C26.5638 16.3808 27.1466 16.6188 27.6528 16.4053Z" fill="#553CDF"/>
<path d="M23.9152 46.895C26.9118 48.8742 30.3991 49.9203 33.9998 49.9203C44.1187 49.9203 52.3509 41.6691 52.3509 31.5267C52.3509 29.1992 51.9228 26.9305 51.0781 24.7835C50.8768 24.2715 50.2998 24.0204 49.7885 24.2219C49.2776 24.4238 49.027 25.0024 49.2282 25.5144C49.9808 27.4276 50.3625 29.4505 50.3625 31.5267C50.3625 40.5701 43.0222 47.9274 33.9996 47.9274C30.7889 47.9274 27.68 46.9949 25.0092 45.2308C24.5507 44.928 23.9341 45.055 23.6319 45.5146C23.3297 45.9741 23.4567 46.5922 23.9152 46.895Z" fill="#553CDF"/>
<path d="M20.4931 43.9759C20.6892 44.1894 20.9567 44.2977 21.225 44.2977C21.4656 44.2977 21.7069 44.2106 21.8978 44.0346C22.302 43.6619 22.3281 43.0315 21.9563 42.6266C19.1708 39.5924 17.6369 35.65 17.6369 31.5252C17.6369 29.0916 18.1569 26.7484 19.1822 24.561C19.4158 24.0629 19.2021 23.4694 18.7051 23.2353C18.2083 23.0015 17.6161 23.2155 17.3825 23.7135C16.2318 26.1681 15.6484 28.7963 15.6484 31.5252C15.6487 36.1513 17.3691 40.5729 20.4931 43.9759Z" fill="#553CDF"/>
<path d="M34.0005 45.9326C41.9267 45.9326 48.3751 39.4694 48.3751 31.525C48.3751 30.3432 48.2303 29.1653 47.9449 28.0236C47.8114 27.4896 47.2719 27.1659 46.7388 27.2993C46.2062 27.4332 45.8826 27.9743 46.0161 28.5081C46.262 29.4914 46.3867 30.5065 46.3867 31.525C46.3867 38.3704 40.8302 43.9398 34.0005 43.9398C27.1708 43.9398 21.6143 38.3704 21.6143 31.525C21.6143 24.6794 27.1708 19.1101 34.0005 19.1101C35.1988 19.1101 36.3858 19.2831 37.5287 19.6241C38.0553 19.7804 38.6085 19.4809 38.7653 18.9534C38.922 18.4259 38.6224 17.8712 38.0962 17.714C36.7689 17.3181 35.391 17.1172 34.0005 17.1172C26.0743 17.1172 19.626 23.5804 19.626 31.525C19.626 39.4693 26.0743 45.9326 34.0005 45.9326Z" fill="#553CDF"/>
<path d="M46.4319 14.3826L33.028 27.5552L31.2307 25.6284C30.6506 25.0069 29.6743 24.9739 29.0542 25.5552L25.9784 28.4372C25.6779 28.7188 25.505 29.1008 25.4911 29.5128C25.4773 29.9249 25.6245 30.3178 25.9054 30.6187L30.2517 35.2785C30.4571 35.4988 30.6976 35.6971 30.9667 35.8678C31.1257 35.969 31.3102 36.0225 31.4986 36.0225H34.3338C34.5224 36.0225 34.7071 35.9687 34.8665 35.8675C35.0864 35.7274 35.2886 35.5676 35.4667 35.3925L41.0176 29.9374C41.4095 29.5521 41.4157 28.9213 41.0313 28.5283C40.6468 28.1352 40.0174 28.1295 39.6255 28.5145L34.0746 33.9697C34.0538 33.99 34.0322 34.0102 34.0097 34.0297H31.8211C31.7793 33.9937 31.7402 33.9563 31.7043 33.9177L27.6641 29.586L30.0848 27.3178L31.8891 29.2523C32.1748 29.5588 32.5626 29.7324 32.9808 29.7416C33.403 29.7525 33.7939 29.594 34.0923 29.3006L47.5039 16.1204L49.8239 18.4921L42.6625 25.5301C42.2706 25.9154 42.2644 26.5462 42.6488 26.9392C43.0333 27.3323 43.6627 27.338 44.0546 26.953L51.536 19.6006C51.8298 19.3119 51.9938 18.9259 51.9978 18.5134C52.0018 18.1011 51.8456 17.7121 51.5576 17.4175L48.61 14.4043C48.3219 14.1097 47.9369 13.9454 47.5253 13.9414C47.1079 13.9402 46.7257 14.0941 46.4319 14.3826Z" fill="#553CDF"/>
<path d="M19.0605 20.646C19.3299 21.1473 19.8291 21.4591 20.3959 21.4796C20.4158 21.4804 20.4358 21.4808 20.4557 21.4808C21.0031 21.4808 21.5016 21.2065 21.7983 20.7389C22.3213 19.9145 23.015 19.2378 23.9186 18.67C24.3982 18.3685 24.6778 17.8504 24.6664 17.2837C24.655 16.7231 24.3586 16.2225 23.8737 15.9445C22.9276 15.4021 22.2365 14.7396 21.761 13.9195C21.4771 13.4296 20.9689 13.1357 20.4017 13.1328C20.3989 13.1328 20.3963 13.1328 20.3934 13.1328C19.8296 13.1328 19.3223 13.4213 19.0351 13.9055C18.5534 14.7174 17.9021 15.3643 17.0441 15.8837C16.5549 16.1798 16.2593 16.7192 16.2729 17.2914C16.2864 17.8642 16.5938 18.3683 17.0953 18.6402C17.9379 19.0973 18.5809 19.7532 19.0605 20.646ZM20.744 14.924C20.744 14.9242 20.7438 14.9244 20.7436 14.9247C20.7437 14.9246 20.7438 14.9243 20.744 14.924ZM20.3918 15.4638C20.9022 16.1798 21.5541 16.8061 22.3391 17.3344C21.615 17.8581 20.9934 18.4647 20.482 19.1463C19.9785 18.3753 19.3525 17.7352 18.6121 17.2339C19.311 16.7338 19.9067 16.1413 20.3918 15.4638Z" fill="#553CDF"/>
<path d="M53.0497 48.1147C54.1143 48.6919 54.9256 49.5195 55.5302 50.6448C55.8213 51.1868 56.361 51.5236 56.9737 51.546C56.9953 51.5468 57.0168 51.5472 57.0383 51.5472C57.6304 51.5472 58.1697 51.2505 58.4908 50.7444C59.1453 49.7128 60.012 48.8667 61.1399 48.1578C61.6588 47.8319 61.9613 47.2712 61.949 46.6583C61.9368 46.0525 61.6167 45.5116 61.0927 45.2112C59.907 44.5314 59.0393 43.6988 58.4404 42.6662C58.1338 42.1373 57.5845 41.8196 56.9715 41.8164C56.9685 41.8164 56.9655 41.8164 56.9626 41.8164C56.3531 41.8164 55.8049 42.1281 55.4945 42.6512C54.8979 43.6569 54.0574 44.4925 52.9964 45.1344C52.4669 45.4549 52.147 46.0385 52.1616 46.6578C52.1762 47.2765 52.5082 47.821 53.0497 48.1147ZM56.9613 44.0558C57.6444 45.095 58.5691 45.9847 59.7185 46.7086C58.6503 47.4369 57.7579 48.3088 57.0578 49.3082C56.3768 48.1788 55.4869 47.2701 54.4044 46.5989C55.4402 45.9075 56.2977 45.0546 56.9613 44.0558Z" fill="#553CDF"/>
<path d="M49.837 7.95854C50.9015 8.53581 51.7129 9.36339 52.3174 10.4888C52.6087 11.0308 53.1483 11.3676 53.761 11.3898C53.7826 11.3906 53.804 11.391 53.8255 11.391C54.4175 11.391 54.957 11.0941 55.278 10.5882C55.9326 9.55657 56.7992 8.71052 57.9271 8.00158C58.4461 7.67568 58.7486 7.11501 58.7362 6.50213C58.724 5.89629 58.4039 5.35542 57.8799 5.05503C56.6942 4.37519 55.8265 3.54256 55.2277 2.50998C54.9211 1.98106 54.3718 1.6634 53.7587 1.66021C53.1501 1.65556 52.5936 1.96937 52.2817 2.49496C51.685 3.50071 50.8445 4.33626 49.7835 4.97824C49.254 5.29869 48.9341 5.88248 48.9487 6.50173C48.9636 7.12059 49.2956 7.66505 49.837 7.95854ZM53.7484 3.89955C54.4315 4.93878 55.3562 5.82854 56.5056 6.55235C55.4374 7.28069 54.5449 8.15278 53.8449 9.15201C53.1639 8.02271 52.274 7.11422 51.1915 6.44288C52.2274 5.75134 53.0849 4.89839 53.7484 3.89955Z" fill="#553CDF"/>
</svg>
