<svg width="111" height="26" viewBox="0 0 111 26" fill="none" xmlns="http://www.w3.org/2000/svg">
<path d="M97.3652 8.75421C97.9802 8.75421 98.4888 8.43906 98.5598 8.03053L99.1689 1.22559C99.1689 0.554433 98.3705 0 97.3652 0C96.3599 0 95.5674 0.554433 95.5674 1.22559L96.1765 8.03053C96.2416 8.43322 96.7502 8.75421 97.3652 8.75421ZM93.6395 10.8786C93.947 10.3533 93.9234 9.75802 93.5981 9.4954L87.9327 5.57351C87.3413 5.23502 86.4602 5.64355 85.9575 6.50146C85.4548 7.35937 85.5435 8.3165 86.129 8.64916L92.4035 11.5322C92.7998 11.6781 93.332 11.398 93.6395 10.8786ZM101.091 10.8727C101.398 11.398 101.931 11.6781 102.327 11.5322L108.601 8.64916C109.193 8.31066 109.276 7.35354 108.779 6.50146C108.276 5.64355 107.389 5.24085 106.804 5.57351L101.138 9.4954C100.813 9.75802 100.789 10.3533 101.091 10.8727ZM97.3652 17.2516C97.9802 17.2516 98.4888 17.5668 98.5598 17.9753L99.1689 24.7744C99.1689 25.4514 98.3705 26 97.3652 26C96.3599 26 95.5674 25.4514 95.5674 24.7744L96.1765 17.9753C96.2416 17.5668 96.7502 17.2516 97.3652 17.2516ZM101.091 15.1273C101.398 14.602 101.931 14.3277 102.327 14.4678L108.601 17.3508C109.193 17.6893 109.276 18.6465 108.779 19.5044C108.276 20.3565 107.389 20.765 106.804 20.4323L101.138 16.5163C100.813 16.242 100.789 15.6525 101.091 15.1273ZM93.6395 15.1214C93.947 15.6467 93.9234 16.242 93.5981 16.5046L87.9327 20.4207C87.3413 20.7591 86.4602 20.3506 85.9575 19.4927C85.4548 18.6348 85.5435 17.6777 86.129 17.3392L92.4035 14.4561C92.7998 14.3219 93.332 14.5962 93.6395 15.1214Z" fill="#8E92A5"/>
<path d="M61.6276 16.4929C61.6276 16.703 61.6098 16.9189 61.5507 17.1057C61.3082 17.8936 60.4862 18.5531 59.4572 18.5531C58.5997 18.5531 57.9137 18.0687 57.9137 17.0532C57.9137 15.4949 59.6524 15.063 61.6276 15.0747V16.4929ZM64.7264 13.7791C64.7264 11.2112 63.6146 8.95261 59.8594 8.95261C57.9315 8.95261 56.3998 9.48954 55.5659 9.96226L56.1751 12.0283C56.9379 11.5497 58.1562 11.1587 59.3094 11.1587C61.2136 11.1528 61.527 12.2267 61.527 12.9095V13.0729C57.3756 13.0671 54.7439 14.4853 54.7439 17.38C54.7439 19.1483 56.0804 20.8 58.4046 20.8C59.8357 20.8 61.0303 20.2397 61.7458 19.3351H61.8168C61.8168 19.3351 62.2899 21.296 64.9038 20.5432C64.7678 19.7261 64.7205 18.8565 64.7205 17.8119L64.7264 13.7791ZM0 5.45676C0 5.45676 2.71443 16.4345 3.14613 18.2146C3.65472 20.2922 4.56544 21.0626 7.19116 20.5432L8.88842 13.7382C9.32013 12.0458 9.60399 10.8435 9.88194 9.12186H9.92925C10.1244 10.861 10.4024 12.0516 10.7513 13.7441C10.7513 13.7441 11.4432 16.8314 11.7921 18.4538C12.1469 20.0763 13.1345 21.0976 15.707 20.5432L19.7461 5.45676H16.4876L15.1097 11.9816C14.7372 13.8783 14.4001 15.3665 14.1458 17.0999H14.0985C13.8619 15.3782 13.5603 13.9542 13.1877 12.1041L11.7507 5.45676H8.35618L6.8186 11.9349C6.38098 13.9075 5.97884 15.4949 5.71863 17.1699H5.67132C5.4052 15.5883 5.05037 13.5923 4.67189 11.6839C4.67189 11.6839 3.76117 7.05003 3.44182 5.45093L0 5.45676ZM25.9142 16.4929C25.9142 16.703 25.8965 16.9189 25.8373 17.1057C25.5949 17.8936 24.7729 18.5531 23.7439 18.5531C22.8864 18.5531 22.2004 18.0687 22.2004 17.0532C22.2004 15.4949 23.939 15.063 25.9142 15.0747V16.4929ZM29.019 13.7791C29.019 11.2112 27.9072 8.95261 24.1519 8.95261C22.224 8.95261 20.6923 9.48954 19.8585 9.96226L20.4676 12.0283C21.2305 11.5497 22.4487 11.1587 23.6019 11.1587C25.5121 11.1528 25.8196 12.2267 25.8196 12.9095V13.0729C21.6622 13.0671 19.0365 14.4853 19.0365 17.38C19.0365 19.1483 20.373 20.8 22.6971 20.8C24.1283 20.8 25.3228 20.2397 26.0384 19.3351H26.1094C26.1094 19.3351 26.5825 21.296 29.2023 20.5432C29.0663 19.7261 29.019 18.8565 29.019 17.8119V13.7791ZM34.1935 17.3391V5.45676H31.0888V20.5432H34.1935V17.3391ZM74.8153 5.45676V16.5863C74.8153 18.1212 75.111 19.195 75.732 19.8545C76.2819 20.4323 77.1808 20.8 78.2571 20.8C79.1738 20.8 80.0786 20.6249 80.5044 20.4732L80.463 18.0803C80.1436 18.1562 79.7829 18.2204 79.2861 18.2204C78.2276 18.2204 77.8727 17.5492 77.8727 16.1719V11.9115H80.5753V9.02265H77.8727V5.45676H74.8153ZM66.7962 9.2094V20.5432H70.0015V14.7421C70.0015 14.4269 70.0192 14.1526 70.0725 13.9075C70.309 12.6936 71.2493 11.9174 72.6036 11.9174C72.9761 11.9174 73.2423 11.9582 73.5261 11.9991V9.03432C73.2837 8.98763 73.1181 8.96428 72.8224 8.96428C71.6278 8.96428 70.2676 9.72298 69.694 11.3571H69.6053V9.22107H66.7962M36.3639 9.2094V20.5432H39.4864V13.8958C39.4864 13.5865 39.5218 13.2538 39.6342 12.9679C39.8944 12.2967 40.5213 11.5147 41.5325 11.5147C42.7922 11.5147 43.3835 12.5652 43.3835 14.0826V20.5432H46.5001V13.8141C46.5001 13.5165 46.5415 13.1605 46.6302 12.8978C46.8845 12.1391 47.5646 11.5147 48.5049 11.5147C49.7823 11.5147 50.3914 12.5477 50.3914 14.3335V20.5432H53.5139V13.8666C53.5139 10.3474 51.7042 8.95261 49.6581 8.95261C48.7533 8.95261 48.0377 9.17438 47.3931 9.56541C46.849 9.89807 46.3641 10.365 45.9383 10.9778H45.891C45.4001 9.758 44.2351 8.95261 42.7271 8.95261C40.7874 8.95261 39.9122 9.92141 39.3799 10.7501H39.3267V9.2094H36.3639Z" fill="#8E92A5"/>
<path d="M110.174 19.9946H110.222C110.287 19.9946 110.322 19.9713 110.322 19.9304C110.322 19.8896 110.287 19.8662 110.228 19.8662C110.21 19.8662 110.186 19.8721 110.174 19.8721V19.9946ZM110.168 20.2981H110.003V19.767C110.038 19.7612 110.127 19.7495 110.239 19.7495C110.364 19.7495 110.417 19.767 110.458 19.7904C110.494 19.8137 110.517 19.8546 110.517 19.9071C110.517 19.9596 110.464 20.0063 110.393 20.0297V20.0355C110.452 20.053 110.488 20.0939 110.506 20.1756C110.523 20.2514 110.535 20.2864 110.541 20.304H110.352C110.334 20.2864 110.328 20.2398 110.316 20.1872C110.304 20.1347 110.281 20.1055 110.222 20.1055H110.168V20.2981ZM110.234 19.5919C109.997 19.5919 109.814 19.7845 109.814 20.0297C109.814 20.2689 109.991 20.4615 110.239 20.4615C110.482 20.4674 110.665 20.2689 110.665 20.0238C110.665 19.7845 110.488 19.5919 110.234 19.5919ZM110.245 19.446C110.577 19.446 110.843 19.7028 110.843 20.0238C110.843 20.3448 110.577 20.6016 110.239 20.6016C109.902 20.6016 109.636 20.3448 109.636 20.0238C109.636 19.7028 109.902 19.446 110.245 19.446Z" fill="#8E92A5"/>
</svg>
