<svg width="57" height="22" viewBox="0 0 57 22" fill="none" xmlns="http://www.w3.org/2000/svg">
<path d="M4.10418 0.304932H0V4.40911H4.10418V0.304932Z" fill="#8E92A5"/>
<path d="M4.00252 21.6928V6.90882H0.115723V21.6928H4.00252ZM29.8279 21.837V18.2148C29.2585 18.2148 28.7764 18.1864 28.4244 18.1274C28.0156 18.0683 27.7085 17.9218 27.5053 17.7186C27.2997 17.513 27.1697 17.2224 27.0965 16.842C27.0374 16.4758 27.0091 15.9938 27.0091 15.4102V10.238H29.8279V6.90645H27.0091V1.13887H23.1105V15.4409C23.1105 16.653 23.2121 17.6761 23.4176 18.4936C23.6232 19.297 23.9729 19.9538 24.4549 20.45C24.9369 20.9462 25.5796 21.2983 26.3546 21.5156C27.1438 21.7354 28.1361 21.837 29.3199 21.837H29.8279ZM52.1492 21.6928V0H48.2483V21.6928H52.1492ZM19.356 8.35485C18.2762 7.18526 16.7569 6.60165 14.8265 6.60165C13.8908 6.60165 13.0449 6.79068 12.2699 7.17109C11.5115 7.5515 10.8523 8.07604 10.3419 8.74944L10.1222 9.02588V8.77779V6.90882H6.28026V21.6928H10.1505V13.82V14.3611C10.1505 14.2737 10.1505 14.1862 10.1505 14.0988C10.1954 12.7118 10.5309 11.6888 11.1736 11.0319C11.8612 10.3301 12.6929 9.98045 13.6427 9.98045C14.7674 9.98045 15.6298 10.3301 16.1993 11.0035C16.7545 11.6746 17.0475 12.6244 17.0475 13.8365V13.8649V21.681H20.9769V13.2955C20.991 11.1878 20.4358 9.52443 19.356 8.35485ZM46.2328 14.2713C46.2328 13.2057 46.0438 12.2109 45.6775 11.2776C45.2971 10.3585 44.7726 9.53861 44.1134 8.83922C43.4423 8.13747 42.639 7.59639 41.7033 7.20417C40.7676 6.80958 39.7304 6.62056 38.6057 6.62056C37.5401 6.62056 36.5311 6.82612 35.5955 7.21834C34.6598 7.62711 33.8423 8.16819 33.1571 8.8534C32.4695 9.54097 31.9142 10.3585 31.522 11.2918C31.1133 12.2275 30.9242 13.234 30.9242 14.302C30.9242 15.3676 31.1133 16.3765 31.4937 17.3122C31.8741 18.2479 32.4128 19.0654 33.0862 19.7506C33.7572 20.4382 34.5913 20.9934 35.5553 21.3857C36.5193 21.7944 37.585 22 38.7262 22C42.027 22 44.0732 20.4949 45.2995 19.0938L42.4948 16.9602C41.9112 17.6619 40.5077 18.6117 38.7545 18.6117C37.6582 18.6117 36.7533 18.3637 36.0657 17.8533C35.3781 17.3571 34.9126 16.6554 34.6622 15.7929L34.6173 15.6606H46.2304L46.2328 14.2713ZM34.6504 12.9127C34.6504 11.8329 35.8932 9.94737 38.5655 9.9332C41.2378 9.9332 42.4948 11.8187 42.4948 12.8985L34.6504 12.9127Z" fill="#8E92A5"/>
<path d="M56.5912 19.7623C56.5179 19.5875 56.4163 19.441 56.284 19.3087C56.1517 19.1764 56.0076 19.0748 55.8304 19.0015C55.6555 18.9283 55.4641 18.8857 55.2751 18.8857C55.0696 18.8857 54.8947 18.9306 54.7199 19.0015C54.545 19.0748 54.3985 19.1764 54.2662 19.3087C54.1339 19.441 54.0323 19.5851 53.959 19.7623C53.8858 19.9372 53.8433 20.1286 53.8433 20.3176C53.8433 20.5232 53.8882 20.698 53.959 20.8729C54.0299 21.0477 54.1339 21.1942 54.2662 21.3265C54.3985 21.4588 54.5427 21.5604 54.7199 21.6337C54.8947 21.7069 55.0861 21.7494 55.2751 21.7494C55.4807 21.7494 55.6555 21.7046 55.8304 21.6337C56.0052 21.5604 56.1517 21.4588 56.284 21.3265C56.4163 21.1942 56.5179 21.0501 56.5912 20.8729C56.6621 20.698 56.707 20.509 56.707 20.3176C56.707 20.1286 56.6621 19.9395 56.5912 19.7623ZM56.3573 20.7854C56.2982 20.9319 56.2108 21.0619 56.1092 21.1658C56.0076 21.2674 55.8753 21.3549 55.7288 21.4139C55.5823 21.473 55.4358 21.5014 55.2609 21.5014C55.1003 21.5014 54.9396 21.473 54.7931 21.4139C54.6466 21.3549 54.5167 21.2674 54.4127 21.1658C54.3087 21.0642 54.2237 20.9319 54.1646 20.7854C54.1055 20.6389 54.0772 20.4924 54.0772 20.3176C54.0772 20.1569 54.1055 19.9963 54.1646 19.8498C54.2237 19.7033 54.3111 19.5733 54.4127 19.4694C54.5143 19.3678 54.6466 19.2803 54.7931 19.2213C54.9396 19.1622 55.0861 19.1338 55.2609 19.1338C55.4216 19.1338 55.5823 19.1622 55.7288 19.2213C55.8753 19.2803 56.0052 19.3678 56.1092 19.4694C56.2108 19.571 56.2982 19.7033 56.3573 19.8498C56.4163 19.9963 56.4447 20.1427 56.4447 20.3176C56.4589 20.4948 56.414 20.6389 56.3573 20.7854ZM55.5374 20.4357C55.6532 20.4216 55.7429 20.3767 55.8138 20.3034C55.8871 20.2302 55.9296 20.1286 55.9296 19.9821C55.9296 19.8214 55.8847 19.7056 55.7831 19.6158C55.6957 19.5284 55.535 19.4835 55.346 19.4835H54.7033V21.1351H55.0105V20.4641H55.2302L55.639 21.1351H55.9603L55.5374 20.4357ZM55.3767 20.2018C55.3318 20.2018 55.2893 20.2018 55.2302 20.2018H55.0105V19.734H55.2302C55.2751 19.734 55.3176 19.734 55.3767 19.734C55.4216 19.734 55.4641 19.7482 55.509 19.7623C55.5539 19.7765 55.5823 19.8072 55.5965 19.8356C55.6106 19.8639 55.6248 19.9088 55.6248 19.9679C55.6248 20.027 55.6106 20.0695 55.5965 20.1002C55.5681 20.1286 55.5374 20.1593 55.509 20.1735C55.4641 20.1876 55.4216 20.2018 55.3767 20.2018Z" fill="#8E92A5"/>
</svg>
