<svg width="50" height="50" viewBox="0 0 50 50" fill="none" xmlns="http://www.w3.org/2000/svg">
<rect width="50" height="50" rx="4" fill="url(#paint0_linear_2042_20089)"/>
<path d="M38.2178 20.8024H36.2913V20.586C36.2913 20.0475 35.8532 19.6094 35.3146 19.6094H31.515C31.2531 19.6094 31.0408 19.8216 31.0408 20.0836C31.0408 20.3455 31.2531 20.5577 31.515 20.5577H35.3146C35.3302 20.5577 35.3429 20.5704 35.3429 20.586V26.3677C35.3429 26.6296 35.5553 26.8419 35.8171 26.8419C36.079 26.8419 36.2913 26.6296 36.2913 26.3677V21.7507H38.2178C38.2819 21.7507 38.3341 21.8029 38.3341 21.867V38.4102C38.3341 39.4953 37.4513 40.3782 36.3662 40.3782H12.9163C11.8312 40.3782 10.9484 39.4953 10.9484 38.4102V21.867C10.9484 21.8029 11.0005 21.7507 11.0646 21.7507H13.0544V37.9687C13.0544 38.6373 13.5984 39.1814 14.2671 39.1814H35.0785C35.7473 39.1814 36.2913 38.6374 36.2913 37.9687V28.3902C36.2913 28.1283 36.0789 27.916 35.8171 27.916C35.5552 27.916 35.3429 28.1283 35.3429 28.3902V35.2141H27.671C26.6773 35.2141 25.7805 35.6343 25.147 36.3055V30.1717C25.147 29.9098 24.9347 29.6976 24.6728 29.6976C24.411 29.6976 24.1987 29.9098 24.1987 30.1717V36.3055C23.5652 35.6343 22.6683 35.2142 21.6747 35.2142H19.52C19.2582 35.2142 19.0459 35.4264 19.0459 35.6883C19.0459 35.9503 19.2582 36.1625 19.52 36.1625H21.6747C22.9116 36.1625 23.9428 37.0571 24.1571 38.233H14.2671C14.1213 38.233 14.0027 38.1145 14.0027 37.9687V36.1625H17.4975C17.7594 36.1625 17.9717 35.9503 17.9717 35.6883C17.9717 35.4264 17.7594 35.2142 17.4975 35.2142H14.0027V20.586C14.0027 20.5704 14.0155 20.5577 14.0311 20.5577H17.8307C18.0926 20.5577 18.3049 20.3455 18.3049 20.0836C18.3049 19.8216 18.0926 19.6094 17.8307 19.6094H14.0311C13.4925 19.6094 13.0544 20.0475 13.0544 20.586V20.8024H11.0646C10.4776 20.8024 10 21.28 10 21.867V38.4102C10 40.0183 11.3082 41.3265 12.9163 41.3265H36.366C37.9741 41.3265 39.2823 40.0183 39.2823 38.4102V21.867C39.2824 21.28 38.8049 20.8024 38.2178 20.8024ZM27.671 36.1625H35.3429V37.9687C35.3429 38.1145 35.2243 38.233 35.0785 38.233H25.1886C25.4029 37.057 26.4341 36.1625 27.671 36.1625Z" fill="white"/>
<path d="M18.3506 15.6532C18.6109 15.6773 18.8426 15.4863 18.8672 15.2256C19.0028 13.7876 19.6668 12.4562 20.737 11.4768C21.8139 10.4912 23.2116 9.94837 24.6728 9.94837C27.8886 9.94837 30.5048 12.5646 30.5048 15.7803C30.5048 16.9904 30.1375 18.1508 29.4427 19.1364C29.4388 19.1419 29.435 19.1476 29.4313 19.1533L26.3969 23.8773C26.3478 23.9538 26.3217 24.0427 26.3217 24.1336V24.7479C26.3217 24.8726 26.2203 24.974 26.0956 24.974H26.0646L26.3667 19.8481H26.9069C27.6799 19.8481 28.3087 19.2192 28.3087 18.4463V18.3888C28.3087 17.6159 27.6799 16.987 26.9069 16.987C26.1658 16.987 25.5511 17.5666 25.5075 18.3063L25.4726 18.8997H23.8097L23.7747 18.3063C23.7312 17.5666 23.1164 16.987 22.3754 16.987C21.6024 16.987 20.9736 17.6159 20.9736 18.3888V18.4463C20.9736 19.2192 21.6024 19.8481 22.3754 19.8481H22.9156L23.2175 24.9707C23.1083 24.9548 23.0239 24.8615 23.0239 24.7479V24.1336C23.0239 24.0427 22.9978 23.9538 22.9487 23.8773L19.9142 19.1533C19.9106 19.1476 19.9068 19.1419 19.9029 19.1364C19.4665 18.5174 19.1593 17.8296 18.9898 17.0919C18.931 16.8367 18.6762 16.6774 18.4214 16.736C18.1661 16.7948 18.0068 17.0492 18.0655 17.3044C18.262 18.1592 18.6174 18.9564 19.1218 19.6742L22.0756 24.2727V24.7478C22.0756 25.2266 22.364 25.6388 22.7759 25.8214V26.6233C22.7759 27.4671 23.4623 28.1535 24.3061 28.1535H25.0398C25.8835 28.1535 26.57 27.4671 26.57 26.6233V25.8214C26.9819 25.6388 27.2703 25.2267 27.2703 24.7478V24.2727L30.2241 19.6742C31.0283 18.5298 31.4534 17.1835 31.4534 15.7803C31.4531 12.0416 28.4114 9 24.6728 9C22.9741 9 21.3489 9.63117 20.0968 10.7772C18.8527 11.9159 18.0807 13.464 17.923 15.1366C17.8984 15.3974 18.0898 15.6287 18.3506 15.6532ZM26.4542 18.3621C26.4683 18.1228 26.6672 17.9353 26.9069 17.9353C27.1569 17.9353 27.3603 18.1387 27.3603 18.3887V18.4463C27.3603 18.6963 27.1569 18.8996 26.9069 18.8996H26.4226L26.4542 18.3621ZM22.3754 18.8996C22.1253 18.8996 21.9219 18.6963 21.9219 18.4463V18.3887C21.9219 18.1387 22.1253 17.9353 22.3754 17.9353C22.6151 17.9353 22.8139 18.1228 22.828 18.3621L22.8597 18.8996H22.3754ZM25.4167 19.848L25.1146 24.974H24.1677L23.8656 19.848H25.4167ZM25.6214 26.6234C25.6214 26.9442 25.3604 27.2052 25.0395 27.2052H24.3059C23.9851 27.2052 23.724 26.9442 23.724 26.6234V25.9223H25.6213V26.6234H25.6214Z" fill="white"/>
<path d="M32.9792 12.5989C33.0903 12.5989 33.2019 12.5601 33.2919 12.4811L34.3265 11.5727C34.5233 11.3999 34.5427 11.1003 34.37 10.9035C34.1973 10.7067 33.8976 10.6873 33.7008 10.86L32.6662 11.7684C32.4694 11.9411 32.45 12.2408 32.6227 12.4376C32.7165 12.5444 32.8475 12.5989 32.9792 12.5989Z" fill="white"/>
<path d="M32.6662 15.4595L33.7008 16.3679C33.7908 16.447 33.9024 16.4858 34.0135 16.4858C34.1452 16.4858 34.2763 16.4312 34.37 16.3244C34.5428 16.1277 34.5234 15.8281 34.3266 15.6553L33.292 14.7468C33.0952 14.5739 32.7956 14.5935 32.6228 14.7903C32.45 14.987 32.4694 15.2866 32.6662 15.4595Z" fill="white"/>
<path d="M15.0198 11.5727L16.0544 12.4812C16.1444 12.5602 16.2559 12.599 16.367 12.599C16.4987 12.599 16.6298 12.5444 16.7235 12.4377C16.8963 12.2409 16.8769 11.9412 16.68 11.7685L15.6454 10.8601C15.4487 10.6872 15.149 10.7068 14.9763 10.9036C14.8035 11.1003 14.8229 11.3999 15.0198 11.5727Z" fill="white"/>
<path d="M15.3327 16.4857C15.4438 16.4857 15.5553 16.4469 15.6454 16.3679L16.68 15.4594C16.8768 15.2866 16.8963 14.987 16.7235 14.7902C16.5507 14.5935 16.2511 14.574 16.0543 14.7467L15.0197 15.6552C14.8229 15.828 14.8035 16.1276 14.9763 16.3244C15.07 16.4311 15.201 16.4857 15.3327 16.4857Z" fill="white"/>
<path d="M20.4777 25.4468C20.4777 25.1849 20.2654 24.9727 20.0036 24.9727H15.3326C15.0707 24.9727 14.8584 25.1849 14.8584 25.4468C14.8584 25.7088 15.0707 25.921 15.3326 25.921H20.0036C20.2654 25.921 20.4777 25.7088 20.4777 25.4468Z" fill="white"/>
<path d="M21.448 27.3867H16.189C15.9272 27.3867 15.7148 27.599 15.7148 27.8609C15.7148 28.1228 15.9272 28.3351 16.189 28.3351H21.448C21.7099 28.3351 21.9222 28.1228 21.9222 27.8609C21.9222 27.599 21.7099 27.3867 21.448 27.3867Z" fill="white"/>
<path d="M21.448 29.6953H16.189C15.9272 29.6953 15.7148 29.9076 15.7148 30.1695C15.7148 30.4314 15.9272 30.6437 16.189 30.6437H21.448C21.7099 30.6437 21.9222 30.4314 21.9222 30.1695C21.9222 29.9076 21.7099 29.6953 21.448 29.6953Z" fill="white"/>
<path d="M21.448 32.0078H16.189C15.9272 32.0078 15.7148 32.2201 15.7148 32.482C15.7148 32.7439 15.9272 32.9562 16.189 32.9562H21.448C21.7099 32.9562 21.9222 32.7439 21.9222 32.482C21.9222 32.2201 21.7099 32.0078 21.448 32.0078Z" fill="white"/>
<path d="M34.4875 25.4468C34.4875 25.1849 34.2752 24.9727 34.0133 24.9727H29.3423C29.0805 24.9727 28.8682 25.1849 28.8682 25.4468C28.8682 25.7088 29.0805 25.921 29.3423 25.921H34.0133C34.2752 25.921 34.4875 25.7088 34.4875 25.4468Z" fill="white"/>
<path d="M33.157 27.3867H27.898C27.6361 27.3867 27.4238 27.599 27.4238 27.8609C27.4238 28.1228 27.6361 28.3351 27.898 28.3351H33.157C33.4188 28.3351 33.6312 28.1228 33.6312 27.8609C33.6312 27.599 33.4188 27.3867 33.157 27.3867Z" fill="white"/>
<path d="M33.157 29.6953H27.898C27.6361 29.6953 27.4238 29.9076 27.4238 30.1695C27.4238 30.4314 27.6361 30.6437 27.898 30.6437H33.157C33.4188 30.6437 33.6312 30.4314 33.6312 30.1695C33.6312 29.9076 33.4188 29.6953 33.157 29.6953Z" fill="white"/>
<path d="M33.157 32.0078H27.898C27.6361 32.0078 27.4238 32.2201 27.4238 32.482C27.4238 32.7439 27.6361 32.9562 27.898 32.9562H33.157C33.4188 32.9562 33.6312 32.7439 33.6312 32.482C33.6312 32.2201 33.4188 32.0078 33.157 32.0078Z" fill="white"/>
<defs>
<linearGradient id="paint0_linear_2042_20089" x1="25" y1="0" x2="25" y2="50" gradientUnits="userSpaceOnUse">
<stop stop-color="#7056FF"/>
<stop offset="1" stop-color="#AB9CFF"/>
</linearGradient>
</defs>
</svg>
