<svg width="50" height="50" viewBox="0 0 50 50" fill="none" xmlns="http://www.w3.org/2000/svg">
<rect width="50" height="50" rx="4" fill="url(#paint0_linear_2042_20110)"/>
<path d="M40.4677 23.9032H27.6936C27.5524 23.9032 27.417 23.9593 27.3172 24.0591C27.2174 24.1589 27.1613 24.2943 27.1613 24.4355V26.3569C26.1896 25.798 25.0887 25.5026 23.9677 25.5H22.371V24.4355C23.4192 23.657 24.1447 22.5205 24.4095 21.2419H24.5C24.9072 21.2396 25.3051 21.1207 25.6467 20.8991C25.9883 20.6775 26.2592 20.3626 26.4272 19.9917C26.5953 19.6209 26.6535 19.2096 26.5949 18.8067C26.5364 18.4037 26.3635 18.026 26.0968 17.7184V15.9194C26.0968 14.0842 25.3678 12.3243 24.0701 11.0266C22.7725 9.729 21.0125 9 19.1774 9C17.3423 9 15.5823 9.729 14.2847 11.0266C12.9871 12.3243 12.2581 14.0842 12.2581 15.9194V17.7184C11.9914 18.026 11.8185 18.4037 11.7599 18.8067C11.7013 19.2096 11.7595 19.6209 11.9276 19.9917C12.0957 20.3626 12.3665 20.6775 12.7081 20.8991C13.0497 21.1207 13.4477 21.2396 13.8548 21.2419H13.9613C14.222 22.5181 14.9416 23.6543 15.9839 24.4355V25.5H14.3871C12.6931 25.5 11.0686 26.1729 9.87074 27.3707C8.67292 28.5686 8 30.1931 8 31.8871V41.4677C8 41.6089 8.05608 41.7443 8.15589 41.8441C8.25571 41.9439 8.39109 42 8.53226 42H26.0968V40.9355H21.7589L20.2419 31.9723L20.886 30.6842L22.1102 31.2963C22.1907 31.3377 22.2805 31.3578 22.371 31.3548C22.4826 31.3551 22.5914 31.3203 22.6821 31.2554C22.7729 31.1904 22.8409 31.0986 22.8766 30.9929L24.3456 26.5645C25.3671 26.641 26.3447 27.0107 27.1613 27.629V41.4677C27.1613 41.6089 27.2174 41.7443 27.3172 41.8441C27.417 41.9439 27.5524 42 27.6936 42H40.4677C40.6089 42 40.7443 41.9439 40.8441 41.8441C40.9439 41.7443 41 41.6089 41 41.4677V24.4355C41 24.2943 40.9439 24.1589 40.8441 24.0591C40.7443 23.9593 40.6089 23.9032 40.4677 23.9032ZM24.5 20.1774V18.0484C24.7823 18.0484 25.0531 18.1605 25.2527 18.3602C25.4524 18.5598 25.5645 18.8306 25.5645 19.1129C25.5645 19.3952 25.4524 19.666 25.2527 19.8656C25.0531 20.0653 24.7823 20.1774 24.5 20.1774ZM12.7903 19.1129C12.7903 18.8306 12.9025 18.5598 13.1021 18.3602C13.3017 18.1605 13.5725 18.0484 13.8548 18.0484V20.1774C13.5725 20.1774 13.3017 20.0653 13.1021 19.8656C12.9025 19.666 12.7903 19.3952 12.7903 19.1129ZM13.8548 16.9839C13.675 16.9866 13.4962 17.0117 13.3226 17.0584V15.9194C13.3226 14.3666 13.9394 12.8774 15.0374 11.7794C16.1354 10.6814 17.6246 10.0645 19.1774 10.0645C20.7302 10.0645 22.2194 10.6814 23.3174 11.7794C24.4154 12.8774 25.0323 14.3666 25.0323 15.9194V17.0584C24.8586 17.0117 24.6798 16.9866 24.5 16.9839C24.5 16.8427 24.4439 16.7073 24.3441 16.6075C24.2443 16.5077 24.1089 16.4516 23.9677 16.4516C23.5546 16.4516 23.1471 16.3554 22.7776 16.1707C22.408 15.9859 22.0866 15.7176 21.8387 15.3871L21.2 14.5355C21.1504 14.4694 21.0861 14.4157 21.0122 14.3788C20.9383 14.3418 20.8568 14.3226 20.7742 14.3226C20.6916 14.3226 20.6101 14.3418 20.5362 14.3788C20.4623 14.4157 20.398 14.4694 20.3484 14.5355L19.7097 15.3871C19.4618 15.7176 19.1403 15.9859 18.7708 16.1707C18.4013 16.3554 17.9938 16.4516 17.5806 16.4516H14.3871C14.2459 16.4516 14.1106 16.5077 14.0107 16.6075C13.9109 16.7073 13.8548 16.8427 13.8548 16.9839ZM14.9194 20.1774V17.5161H17.5806C18.1591 17.5161 18.7295 17.3815 19.2469 17.1228C19.7642 16.8641 20.2142 16.4885 20.5613 16.0258L20.7742 15.7437L20.9871 16.0258C21.581 16.8126 22.4604 17.3344 23.4355 17.4789V20.1774C23.4355 21.3067 22.9869 22.3898 22.1883 23.1883C21.3898 23.9869 20.3067 24.4355 19.1774 24.4355C18.0481 24.4355 16.9651 23.9869 16.1665 23.1883C15.368 22.3898 14.9194 21.3067 14.9194 20.1774ZM19.1774 25.5C19.9104 25.5004 20.6355 25.3481 21.3065 25.0529V25.8406L19.1774 28.3955L17.0484 25.8406V25.0529C17.7193 25.3481 18.4444 25.5004 19.1774 25.5ZM16.2926 30.0721L15.1269 26.5645H16.266L18.3365 29.0502L16.2926 30.0721ZM9.06452 31.8871C9.06111 30.5386 9.56972 29.239 10.4876 28.251C11.4054 27.263 12.6641 26.6603 14.0092 26.5645L15.4782 30.9716C15.5102 31.0813 15.5766 31.1778 15.6677 31.2468C15.7588 31.3158 15.8696 31.3537 15.9839 31.3548C16.0672 31.3543 16.1492 31.3343 16.2234 31.2963L17.4476 30.6842L18.1129 31.9723L16.596 40.9355H12.2581V33.4839H11.1935V40.9355H9.06452V31.8871ZM17.6765 40.9355L19.0976 32.4194H19.2573L20.6784 40.9355H17.6765ZM19.3797 31.3548H18.9752L18.4003 30.2105L19.1774 29.8219L19.9545 30.2105L19.3797 31.3548ZM22.041 30.0721L19.9971 29.0502L22.0889 26.5645H23.2279L22.041 30.0721ZM31.4194 24.9677H36.7419V26.0323H31.4194V24.9677ZM39.9355 40.9355H28.2258V24.9677H30.3548V26.5645C30.3548 26.7057 30.4109 26.8411 30.5107 26.9409C30.6106 27.0407 30.7459 27.0968 30.8871 27.0968H37.2742C37.4154 27.0968 37.5507 27.0407 37.6506 26.9409C37.7504 26.8411 37.8065 26.7057 37.8065 26.5645V24.9677H39.9355V40.9355Z" fill="white"/>
<path d="M31.9513 28.1602H29.8223C29.6811 28.1602 29.5458 28.2162 29.4459 28.3161C29.3461 28.4159 29.29 28.5513 29.29 28.6924V30.8214C29.29 30.9626 29.3461 31.098 29.4459 31.1978C29.5458 31.2976 29.6811 31.3537 29.8223 31.3537H31.9513C32.0925 31.3537 32.2279 31.2976 32.3277 31.1978C32.4275 31.098 32.4836 30.9626 32.4836 30.8214V28.6924C32.4836 28.5513 32.4275 28.4159 32.3277 28.3161C32.2279 28.2162 32.0925 28.1602 31.9513 28.1602ZM31.4191 30.2892H30.3546V29.2247H31.4191V30.2892Z" fill="white"/>
<path d="M31.9513 32.418H29.8223C29.6811 32.418 29.5458 32.474 29.4459 32.5739C29.3461 32.6737 29.29 32.8091 29.29 32.9502V35.0793C29.29 35.2204 29.3461 35.3558 29.4459 35.4556C29.5458 35.5554 29.6811 35.6115 29.8223 35.6115H31.9513C32.0925 35.6115 32.2279 35.5554 32.3277 35.4556C32.4275 35.3558 32.4836 35.2204 32.4836 35.0793V32.9502C32.4836 32.8091 32.4275 32.6737 32.3277 32.5739C32.2279 32.474 32.0925 32.418 31.9513 32.418ZM31.4191 34.547H30.3546V33.4825H31.4191V34.547Z" fill="white"/>
<path d="M31.9513 36.6758H29.8223C29.6811 36.6758 29.5458 36.7319 29.4459 36.8317C29.3461 36.9315 29.29 37.0669 29.29 37.208V39.3371C29.29 39.4782 29.3461 39.6136 29.4459 39.7134C29.5458 39.8133 29.6811 39.8693 29.8223 39.8693H31.9513C32.0925 39.8693 32.2279 39.8133 32.3277 39.7134C32.4275 39.6136 32.4836 39.4782 32.4836 39.3371V37.208C32.4836 37.0669 32.4275 36.9315 32.3277 36.8317C32.2279 36.7319 32.0925 36.6758 31.9513 36.6758ZM31.4191 38.8048H30.3546V37.7403H31.4191V38.8048Z" fill="white"/>
<path d="M33.5488 28.1602H38.8714V29.2247H33.5488V28.1602Z" fill="white"/>
<path d="M33.5488 30.2891H38.8714V31.3536H33.5488V30.2891Z" fill="white"/>
<path d="M33.5488 32.418H38.8714V33.4825H33.5488V32.418Z" fill="white"/>
<path d="M33.5488 34.5469H38.8714V35.6114H33.5488V34.5469Z" fill="white"/>
<path d="M33.5488 36.6758H38.8714V37.7403H33.5488V36.6758Z" fill="white"/>
<path d="M33.5488 38.8047H38.8714V39.8692H33.5488V38.8047Z" fill="white"/>
<defs>
<linearGradient id="paint0_linear_2042_20110" x1="25" y1="0" x2="25" y2="50" gradientUnits="userSpaceOnUse">
<stop stop-color="#7056FF"/>
<stop offset="1" stop-color="#AB9CFF"/>
</linearGradient>
</defs>
</svg>
