<svg width="330" height="90" viewBox="0 0 330 90" fill="none" xmlns="http://www.w3.org/2000/svg">
<mask id="path-1-outside-1_328_3470" maskUnits="userSpaceOnUse" x="26" y="21" width="283" height="47" fill="black">
<rect fill="white" x="26" y="21" width="283" height="47"/>
<path d="M27.8 66V22.864H37.656V66H27.8ZM55.6215 33.552V39.056C56.4322 37.264 57.6695 35.856 59.3335 34.832C61.0402 33.7653 63.0668 33.232 65.4135 33.232C68.7415 33.232 71.3442 34.2347 73.2215 36.24C75.0988 38.2027 76.0375 41.104 76.0375 44.944V66H66.6935V46.672C66.6935 44.752 66.2455 43.3013 65.3495 42.32C64.4535 41.296 63.1948 40.784 61.5735 40.784C59.8668 40.784 58.4375 41.4667 57.2855 42.832C56.1762 44.1547 55.6215 46.16 55.6215 48.848V66H46.2775V33.552H55.6215ZM103.883 34.512V42.512C101.621 41.1893 98.9758 40.528 95.9465 40.528C94.8372 40.528 93.9838 40.7627 93.3865 41.232C92.7892 41.6587 92.4905 42.2133 92.4905 42.896C92.4905 43.28 92.5972 43.6427 92.8105 43.984C93.0238 44.3253 93.3652 44.6453 93.8345 44.944C94.3465 45.2427 94.8158 45.52 95.2425 45.776C95.7118 45.9893 96.3305 46.2667 97.0985 46.608C97.9092 46.9493 98.5492 47.248 99.0185 47.504C100.981 48.528 102.56 49.7227 103.755 51.088C104.949 52.4107 105.547 54.1173 105.547 56.208C105.547 59.408 104.395 61.8827 102.091 63.632C99.7865 65.3813 96.7358 66.256 92.9385 66.256C89.0132 66.256 85.7278 65.5947 83.0825 64.272V55.952C86.0265 58 89.1412 59.024 92.4265 59.024C94.7732 59.024 95.9465 58.2773 95.9465 56.784C95.9465 56.4 95.8398 56.0373 95.6265 55.696C95.4132 55.3547 95.0505 55.0347 94.5385 54.736C94.0265 54.4373 93.5572 54.2027 93.1305 54.032C92.7038 53.8187 92.0852 53.5413 91.2745 53.2C90.4638 52.8587 89.8452 52.5813 89.4185 52.368C85.1092 50.32 82.9545 47.248 82.9545 43.152C82.9545 39.9947 84.1492 37.5413 86.5385 35.792C88.9705 34.0427 91.9785 33.168 95.5625 33.168C98.8905 33.168 101.664 33.616 103.883 34.512ZM122.094 40.4V55.312C122.094 56.464 122.414 57.3387 123.054 57.936C123.736 58.5333 124.611 58.832 125.678 58.832C127.384 58.832 128.899 58.4053 130.222 57.552V65.296C128.643 65.9787 126.51 66.32 123.822 66.32C116.44 66.32 112.75 62.6293 112.75 55.248V40.4H108.078V33.552H112.75V25.872H122.094V33.552H129.646V40.4H122.094ZM145.245 33.552V39.568C145.842 37.6907 146.824 36.1973 148.189 35.088C149.597 33.936 151.218 33.36 153.053 33.36C154.077 33.36 154.888 33.4453 155.485 33.616V42.448C154.461 41.9787 153.288 41.744 151.965 41.744C149.96 41.744 148.338 42.4907 147.101 43.984C145.864 45.4347 145.245 47.376 145.245 49.808V66H135.901L135.965 33.552H145.245ZM179.749 33.552H189.093V66H179.749V60.816C178.042 64.4427 174.757 66.256 169.893 66.256C166.565 66.256 163.962 65.3387 162.085 63.504C160.25 61.6267 159.333 58.8747 159.333 55.248V33.552H168.677V53.136C168.677 56.9333 170.341 58.832 173.669 58.832C177.722 58.832 179.749 56.1227 179.749 50.704V33.552ZM204.65 49.872C204.82 52.7307 205.674 54.9493 207.21 56.528C208.746 58.1067 210.772 58.896 213.29 58.896C215.978 58.896 218.559 58.1493 221.034 56.656V64.464C218.516 65.8293 215.487 66.512 211.946 66.512C207.082 66.512 203.071 64.976 199.914 61.904C196.756 58.7893 195.178 54.7787 195.178 49.872C195.263 45.008 196.842 40.9973 199.914 37.84C202.986 34.64 207.188 33.04 212.522 33.04C215.807 33.04 218.644 33.6587 221.034 34.896V42.896C218.772 41.488 216.255 40.784 213.482 40.784C210.879 40.784 208.767 41.5733 207.146 43.152C205.524 44.688 204.692 46.928 204.65 49.872ZM237.594 40.4V55.312C237.594 56.464 237.914 57.3387 238.554 57.936C239.236 58.5333 240.111 58.832 241.178 58.832C242.884 58.832 244.399 58.4053 245.722 57.552V65.296C244.143 65.9787 242.01 66.32 239.322 66.32C231.94 66.32 228.25 62.6293 228.25 55.248V40.4H223.578V33.552H228.25V25.872H237.594V33.552H245.146V40.4H237.594ZM265.801 66.512C260.724 66.512 256.798 64.9973 254.025 61.968C251.252 58.896 249.865 54.9707 249.865 50.192C249.865 45.2 251.316 41.104 254.217 37.904C257.118 34.6613 260.98 33.04 265.801 33.04C270.836 33.04 274.74 34.5973 277.513 37.712C280.286 40.8267 281.673 44.7947 281.673 49.616C281.673 54.5227 280.265 58.576 277.449 61.776C274.676 64.9333 270.793 66.512 265.801 66.512ZM265.737 40.4C263.689 40.4 262.153 41.2747 261.129 43.024C260.105 44.7733 259.593 47.0347 259.593 49.808C259.593 52.5813 260.105 54.864 261.129 56.656C262.196 58.4053 263.774 59.28 265.865 59.28C267.913 59.28 269.428 58.4267 270.409 56.72C271.433 54.9707 271.945 52.7093 271.945 49.936C271.945 43.5787 269.876 40.4 265.737 40.4ZM297.058 33.552V39.568C297.655 37.6907 298.636 36.1973 300.002 35.088C301.41 33.936 303.031 33.36 304.866 33.36C305.89 33.36 306.7 33.4453 307.298 33.616V42.448C306.274 41.9787 305.1 41.744 303.778 41.744C301.772 41.744 300.151 42.4907 298.914 43.984C297.676 45.4347 297.058 47.376 297.058 49.808V66H287.714L287.778 33.552H297.058Z"/>
</mask>
<path d="M27.8 66H26.8V67H27.8V66ZM27.8 22.864V21.864H26.8V22.864H27.8ZM37.656 22.864H38.656V21.864H37.656V22.864ZM37.656 66V67H38.656V66H37.656ZM28.8 66V22.864H26.8V66H28.8ZM27.8 23.864H37.656V21.864H27.8V23.864ZM36.656 22.864V66H38.656V22.864H36.656ZM37.656 65H27.8V67H37.656V65ZM55.6215 33.552H56.6215V32.552H55.6215V33.552ZM55.6215 39.056H54.6215L56.5326 39.4682L55.6215 39.056ZM59.3335 34.832L59.8576 35.6837L59.8635 35.68L59.3335 34.832ZM73.2215 36.24L72.4914 36.9235L72.4989 36.9312L73.2215 36.24ZM76.0375 66V67H77.0375V66H76.0375ZM66.6935 66H65.6935V67H66.6935V66ZM65.3495 42.32L64.5969 42.9785L64.6039 42.9865L64.611 42.9943L65.3495 42.32ZM57.2855 42.832L56.5212 42.1871L56.5193 42.1894L57.2855 42.832ZM55.6215 66V67H56.6215V66H55.6215ZM46.2775 66H45.2775V67H46.2775V66ZM46.2775 33.552V32.552H45.2775V33.552H46.2775ZM54.6215 33.552V39.056H56.6215V33.552H54.6215ZM56.5326 39.4682C57.2616 37.8567 58.3648 36.6023 59.8576 35.6837L58.8094 33.9803C56.9742 35.1097 55.6027 36.6713 54.7104 38.6438L56.5326 39.4682ZM59.8635 35.68C61.3864 34.7282 63.2226 34.232 65.4135 34.232V32.232C62.9111 32.232 60.694 32.8025 58.8035 33.984L59.8635 35.68ZM65.4135 34.232C68.528 34.232 70.8424 35.1619 72.4915 36.9234L73.9515 35.5566C71.8459 33.3074 68.955 32.232 65.4135 32.232V34.232ZM72.4989 36.9312C74.1359 38.6426 75.0375 41.2545 75.0375 44.944H77.0375C77.0375 40.9535 76.0618 37.7627 73.9441 35.5488L72.4989 36.9312ZM75.0375 44.944V66H77.0375V44.944H75.0375ZM76.0375 65H66.6935V67H76.0375V65ZM67.6935 66V46.672H65.6935V66H67.6935ZM67.6935 46.672C67.6935 44.6123 67.2139 42.8789 66.088 41.6457L64.611 42.9943C65.2771 43.7238 65.6935 44.8917 65.6935 46.672H67.6935ZM66.1021 41.6615C64.9796 40.3787 63.4226 39.784 61.5735 39.784V41.784C62.967 41.784 63.9274 42.2133 64.5969 42.9785L66.1021 41.6615ZM61.5735 39.784C59.5568 39.784 57.853 40.6087 56.5212 42.1871L58.0498 43.4769C59.022 42.3247 60.1769 41.784 61.5735 41.784V39.784ZM56.5193 42.1894C55.1947 43.7687 54.6215 46.0493 54.6215 48.848H56.6215C56.6215 46.2707 57.1576 44.5406 58.0517 43.4746L56.5193 42.1894ZM54.6215 48.848V66H56.6215V48.848H54.6215ZM55.6215 65H46.2775V67H55.6215V65ZM47.2775 66V33.552H45.2775V66H47.2775ZM46.2775 34.552H55.6215V32.552H46.2775V34.552ZM103.883 34.512H104.883V33.8374L104.257 33.5848L103.883 34.512ZM103.883 42.512L103.378 43.3752L104.883 44.2554V42.512H103.883ZM93.3865 41.232L93.9677 42.0457L93.9863 42.0324L94.0043 42.0183L93.3865 41.232ZM92.8105 43.984L91.9625 44.514L91.9625 44.514L92.8105 43.984ZM93.8345 44.944L93.2976 45.7877L93.3139 45.798L93.3306 45.8078L93.8345 44.944ZM95.2425 45.776L94.728 46.6335L94.7768 46.6628L94.8287 46.6864L95.2425 45.776ZM97.0985 46.608L96.6924 47.5218L96.7014 47.5258L96.7104 47.5296L97.0985 46.608ZM99.0185 47.504L98.5396 48.3819L98.5478 48.3863L98.5559 48.3906L99.0185 47.504ZM103.755 51.088L103.002 51.7465L103.007 51.7524L103.012 51.7583L103.755 51.088ZM102.091 63.632L102.695 64.4284L102.695 64.4284L102.091 63.632ZM83.0825 64.272H82.0825V64.89L82.6353 65.1664L83.0825 64.272ZM83.0825 55.952L83.6536 55.1311L82.0825 54.0382V55.952H83.0825ZM95.6265 55.696L96.4745 55.166L96.4745 55.166L95.6265 55.696ZM93.1305 54.032L92.6833 54.9264L92.7205 54.945L92.7591 54.9605L93.1305 54.032ZM91.2745 53.2L91.6626 52.2784L91.6626 52.2784L91.2745 53.2ZM89.4185 52.368L89.8657 51.4736L89.8568 51.4691L89.8477 51.4648L89.4185 52.368ZM86.5385 35.792L85.9546 34.9802L85.9478 34.9851L86.5385 35.792ZM102.883 34.512V42.512H104.883V34.512H102.883ZM104.387 41.6488C101.95 40.2233 99.1252 39.528 95.9465 39.528V41.528C98.8265 41.528 101.292 42.1553 103.378 43.3752L104.387 41.6488ZM95.9465 39.528C94.7127 39.528 93.6071 39.7869 92.7687 40.4457L94.0043 42.0183C94.3605 41.7384 94.9616 41.528 95.9465 41.528V39.528ZM92.8053 40.4183C91.9683 41.0161 91.4905 41.8629 91.4905 42.896H93.4905C93.4905 42.5638 93.61 42.3013 93.9677 42.0457L92.8053 40.4183ZM91.4905 42.896C91.4905 43.4767 91.6549 44.0218 91.9625 44.514L93.6585 43.454C93.5395 43.2636 93.4905 43.0833 93.4905 42.896H91.4905ZM91.9625 44.514C92.2791 45.0205 92.7477 45.4377 93.2976 45.7877L94.3714 44.1003C93.9826 43.8529 93.7686 43.6302 93.6585 43.454L91.9625 44.514ZM93.3306 45.8078C93.8397 46.1047 94.3055 46.38 94.728 46.6335L95.757 44.9185C95.3262 44.66 94.8533 44.3806 94.3384 44.0802L93.3306 45.8078ZM94.8287 46.6864C95.3017 46.9013 95.9232 47.1799 96.6924 47.5218L97.5046 45.6942C96.7378 45.3534 96.122 45.0773 95.6563 44.8656L94.8287 46.6864ZM96.7104 47.5296C97.5071 47.8651 98.1125 48.1489 98.5396 48.3819L99.4974 46.6261C98.9858 46.3471 98.3112 46.0336 97.4866 45.6864L96.7104 47.5296ZM98.5559 48.3906C100.432 49.3695 101.905 50.4926 103.002 51.7465L104.507 50.4295C103.215 48.9527 101.53 47.6865 99.4811 46.6174L98.5559 48.3906ZM103.012 51.7583C104.013 52.866 104.547 54.3195 104.547 56.208H106.547C106.547 53.9152 105.885 51.9553 104.497 50.4177L103.012 51.7583ZM104.547 56.208C104.547 59.1335 103.512 61.2972 101.486 62.8356L102.695 64.4284C105.277 62.4681 106.547 59.6825 106.547 56.208H104.547ZM101.486 62.8356C99.4032 64.4168 96.5857 65.256 92.9385 65.256V67.256C96.8859 67.256 100.17 66.3459 102.695 64.4284L101.486 62.8356ZM92.9385 65.256C89.1198 65.256 85.9984 64.6119 83.5297 63.3776L82.6353 65.1664C85.4573 66.5774 88.9066 67.256 92.9385 67.256V65.256ZM84.0825 64.272V55.952H82.0825V64.272H84.0825ZM82.5114 56.7729C85.6069 58.9263 88.9182 60.024 92.4265 60.024V58.024C89.3641 58.024 86.4461 57.0737 83.6536 55.1311L82.5114 56.7729ZM92.4265 60.024C93.6737 60.024 94.7804 59.8314 95.6034 59.3077C96.5031 58.7351 96.9465 57.8423 96.9465 56.784H94.9465C94.9465 57.219 94.8032 57.4462 94.5296 57.6203C94.1793 57.8433 93.526 58.024 92.4265 58.024V60.024ZM96.9465 56.784C96.9465 56.2033 96.7821 55.6582 96.4745 55.166L94.7785 56.226C94.8975 56.4164 94.9465 56.5967 94.9465 56.784H96.9465ZM96.4745 55.166C96.1442 54.6375 95.6332 54.2169 95.0424 53.8722L94.0346 55.5998C94.4678 55.8525 94.6822 56.0718 94.7785 56.226L96.4745 55.166ZM95.0424 53.8722C94.4994 53.5555 93.9851 53.2968 93.5019 53.1035L92.7591 54.9605C93.1292 55.1085 93.5536 55.3192 94.0346 55.5998L95.0424 53.8722ZM93.5777 53.1376C93.1218 52.9096 92.4796 52.6224 91.6626 52.2784L90.8864 54.1216C91.6907 54.4603 92.2859 54.7277 92.6833 54.9264L93.5777 53.1376ZM91.6626 52.2784C90.8583 51.9397 90.2631 51.6723 89.8657 51.4736L88.9713 53.2624C89.4272 53.4904 90.0694 53.7776 90.8864 54.1216L91.6626 52.2784ZM89.8477 51.4648C87.8076 50.4952 86.3439 49.3149 85.3892 47.9538C84.4407 46.6015 83.9545 45.0143 83.9545 43.152H81.9545C81.9545 45.3857 82.5456 47.3825 83.7518 49.1022C84.9518 50.8131 86.7201 52.1928 88.9893 53.2712L89.8477 51.4648ZM83.9545 43.152C83.9545 40.2888 85.0164 38.1457 87.1292 36.5989L85.9478 34.9851C83.2819 36.9369 81.9545 39.7005 81.9545 43.152H83.9545ZM87.1224 36.6038C89.353 34.9993 92.1459 34.168 95.5625 34.168V32.168C91.8111 32.168 88.588 33.086 85.9546 34.9802L87.1224 36.6038ZM95.5625 34.168C98.8088 34.168 101.445 34.6061 103.508 35.4392L104.257 33.5848C101.883 32.6259 98.9722 32.168 95.5625 32.168V34.168ZM122.094 40.4V39.4H121.094V40.4H122.094ZM123.054 57.936L122.371 58.6671L122.383 58.678L122.395 58.6886L123.054 57.936ZM130.222 57.552H131.222V55.7168L129.679 56.7117L130.222 57.552ZM130.222 65.296L130.618 66.2139L131.222 65.9531V65.296H130.222ZM112.75 40.4H113.75V39.4H112.75V40.4ZM108.078 40.4H107.078V41.4H108.078V40.4ZM108.078 33.552V32.552H107.078V33.552H108.078ZM112.75 33.552V34.552H113.75V33.552H112.75ZM112.75 25.872V24.872H111.75V25.872H112.75ZM122.094 25.872H123.094V24.872H122.094V25.872ZM122.094 33.552H121.094V34.552H122.094V33.552ZM129.646 33.552H130.646V32.552H129.646V33.552ZM129.646 40.4V41.4H130.646V40.4H129.646ZM121.094 40.4V55.312H123.094V40.4H121.094ZM121.094 55.312C121.094 56.6493 121.47 57.8259 122.371 58.6671L123.736 57.2049C123.357 56.8514 123.094 56.2787 123.094 55.312H121.094ZM122.395 58.6886C123.291 59.4727 124.414 59.832 125.678 59.832V57.832C124.808 57.832 124.181 57.5939 123.712 57.1834L122.395 58.6886ZM125.678 59.832C127.56 59.832 129.266 59.3587 130.764 58.3923L129.679 56.7117C128.532 57.452 127.209 57.832 125.678 57.832V59.832ZM129.222 57.552V65.296H131.222V57.552H129.222ZM129.825 64.3781C128.422 64.9848 126.442 65.32 123.822 65.32V67.32C126.577 67.32 128.864 66.9726 130.618 66.2139L129.825 64.3781ZM123.822 65.32C120.285 65.32 117.816 64.4365 116.225 62.8449C114.633 61.2532 113.75 58.7845 113.75 55.248H111.75C111.75 59.0928 112.711 62.1601 114.81 64.2591C116.909 66.3581 119.977 67.32 123.822 67.32V65.32ZM113.75 55.248V40.4H111.75V55.248H113.75ZM112.75 39.4H108.078V41.4H112.75V39.4ZM109.078 40.4V33.552H107.078V40.4H109.078ZM108.078 34.552H112.75V32.552H108.078V34.552ZM113.75 33.552V25.872H111.75V33.552H113.75ZM112.75 26.872H122.094V24.872H112.75V26.872ZM121.094 25.872V33.552H123.094V25.872H121.094ZM122.094 34.552H129.646V32.552H122.094V34.552ZM128.646 33.552V40.4H130.646V33.552H128.646ZM129.646 39.4H122.094V41.4H129.646V39.4ZM145.245 33.552H146.245V32.552H145.245V33.552ZM145.245 39.568H144.245L146.198 39.8712L145.245 39.568ZM148.189 35.088L148.82 35.8641L148.822 35.862L148.189 35.088ZM155.485 33.616H156.485V32.8617L155.76 32.6545L155.485 33.616ZM155.485 42.448L155.068 43.3571L156.485 44.0064V42.448H155.485ZM147.101 43.984L147.862 44.6329L147.866 44.6275L147.871 44.622L147.101 43.984ZM145.245 66V67H146.245V66H145.245ZM135.901 66L134.901 65.998L134.899 67H135.901V66ZM135.965 33.552V32.552H134.967L134.965 33.55L135.965 33.552ZM144.245 33.552V39.568H146.245V33.552H144.245ZM146.198 39.8712C146.744 38.1565 147.623 36.8362 148.82 35.8641L147.558 34.3119C146.024 35.5585 144.941 37.2248 144.292 39.2648L146.198 39.8712ZM148.822 35.862C150.05 34.8575 151.447 34.36 153.053 34.36V32.36C150.99 32.36 149.144 33.0145 147.556 34.314L148.822 35.862ZM153.053 34.36C154.036 34.36 154.741 34.4435 155.21 34.5775L155.76 32.6545C155.034 32.4472 154.118 32.36 153.053 32.36V34.36ZM154.485 33.616V42.448H156.485V33.616H154.485ZM155.902 41.5389C154.726 41.0001 153.407 40.744 151.965 40.744V42.744C153.169 42.744 154.196 42.9572 155.068 43.3571L155.902 41.5389ZM151.965 40.744C149.674 40.744 147.766 41.6145 146.331 43.346L147.871 44.622C148.911 43.3668 150.246 42.744 151.965 42.744V40.744ZM146.34 43.3351C144.91 45.012 144.245 47.2053 144.245 49.808H146.245C146.245 47.5467 146.817 45.8573 147.862 44.6329L146.34 43.3351ZM144.245 49.808V66H146.245V49.808H144.245ZM145.245 65H135.901V67H145.245V65ZM136.901 66.002L136.965 33.554L134.965 33.55L134.901 65.998L136.901 66.002ZM135.965 34.552H145.245V32.552H135.965V34.552ZM179.749 33.552V32.552H178.749V33.552H179.749ZM189.093 33.552H190.093V32.552H189.093V33.552ZM189.093 66V67H190.093V66H189.093ZM179.749 66H178.749V67H179.749V66ZM179.749 60.816H180.749L178.844 60.3902L179.749 60.816ZM162.085 63.504L161.369 64.2029L161.377 64.2112L161.386 64.2192L162.085 63.504ZM159.333 33.552V32.552H158.333V33.552H159.333ZM168.677 33.552H169.677V32.552H168.677V33.552ZM179.749 34.552H189.093V32.552H179.749V34.552ZM188.093 33.552V66H190.093V33.552H188.093ZM189.093 65H179.749V67H189.093V65ZM180.749 66V60.816H178.749V66H180.749ZM178.844 60.3902C178.074 62.0267 176.967 63.2227 175.521 64.0205C174.064 64.8248 172.204 65.256 169.893 65.256V67.256C172.445 67.256 174.66 66.7805 176.488 65.7715C178.328 64.756 179.717 63.2319 180.653 61.2418L178.844 60.3902ZM169.893 65.256C166.752 65.256 164.427 64.3954 162.783 62.7888L161.386 64.2192C163.496 66.282 166.377 67.256 169.893 67.256V65.256ZM162.8 62.8051C161.208 61.1763 160.333 58.7147 160.333 55.248H158.333C158.333 59.0346 159.292 62.077 161.369 64.2029L162.8 62.8051ZM160.333 55.248V33.552H158.333V55.248H160.333ZM159.333 34.552H168.677V32.552H159.333V34.552ZM167.677 33.552V53.136H169.677V33.552H167.677ZM167.677 53.136C167.677 55.1588 168.117 56.8626 169.172 58.0671C170.25 59.2968 171.814 59.832 173.669 59.832V57.832C172.195 57.832 171.263 57.4179 170.677 56.7489C170.068 56.0547 169.677 54.9106 169.677 53.136H167.677ZM173.669 59.832C175.94 59.832 177.789 59.0574 179.029 57.399C180.229 55.7951 180.749 53.5091 180.749 50.704H178.749C178.749 53.3176 178.255 55.0956 177.428 56.201C176.642 57.2519 175.45 57.832 173.669 57.832V59.832ZM180.749 50.704V33.552H178.749V50.704H180.749ZM204.65 49.872L203.65 49.8575L203.649 49.8946L203.651 49.9316L204.65 49.872ZM207.21 56.528L206.493 57.2254L206.493 57.2254L207.21 56.528ZM221.034 56.656H222.034V54.8846L220.517 55.7998L221.034 56.656ZM221.034 64.464L221.51 65.343L222.034 65.0592V64.464H221.034ZM199.914 61.904L199.211 62.6159L199.216 62.6207L199.914 61.904ZM195.178 49.872L194.178 49.8545L194.178 49.8632V49.872H195.178ZM199.914 37.84L200.63 38.5374L200.635 38.5325L199.914 37.84ZM221.034 34.896H222.034V34.2877L221.493 34.008L221.034 34.896ZM221.034 42.896L220.505 43.7449L222.034 44.6966V42.896H221.034ZM207.146 43.152L207.833 43.878L207.843 43.8685L207.146 43.152ZM203.651 49.9316C203.832 52.9564 204.745 55.4285 206.493 57.2254L207.926 55.8306C206.602 54.4701 205.808 52.5049 205.648 49.8124L203.651 49.9316ZM206.493 57.2254C208.244 59.0257 210.544 59.896 213.29 59.896V57.896C211 57.896 209.247 57.1876 207.926 55.8306L206.493 57.2254ZM213.29 59.896C216.173 59.896 218.932 59.0923 221.55 57.5122L220.517 55.7998C218.186 57.2064 215.782 57.896 213.29 57.896V59.896ZM220.034 56.656V64.464H222.034V56.656H220.034ZM220.557 63.585C218.217 64.8542 215.359 65.512 211.946 65.512V67.512C215.614 67.512 218.816 66.8044 221.51 65.343L220.557 63.585ZM211.946 65.512C207.312 65.512 203.561 64.058 200.611 61.1873L199.216 62.6207C202.58 65.894 206.851 67.512 211.946 67.512V65.512ZM200.616 61.1921C197.67 58.2862 196.178 54.5424 196.178 49.872H194.178C194.178 55.015 195.842 59.2924 199.211 62.6159L200.616 61.1921ZM196.177 49.8895C196.259 45.2511 197.755 41.4927 200.63 38.5374L199.197 37.1426C195.928 40.502 194.267 44.7649 194.178 49.8545L196.177 49.8895ZM200.635 38.5325C203.481 35.568 207.401 34.04 212.522 34.04V32.04C206.975 32.04 202.49 33.712 199.192 37.1475L200.635 38.5325ZM212.522 34.04C215.682 34.04 218.354 34.6348 220.574 35.784L221.493 34.008C218.934 32.6825 215.932 32.04 212.522 32.04V34.04ZM220.034 34.896V42.896H222.034V34.896H220.034ZM221.562 42.0471C219.135 40.5362 216.434 39.784 213.482 39.784V41.784C216.076 41.784 218.409 42.4398 220.505 43.7449L221.562 42.0471ZM213.482 39.784C210.66 39.784 208.284 40.6476 206.448 42.4355L207.843 43.8685C209.25 42.4991 211.097 41.784 213.482 41.784V39.784ZM206.458 42.426C204.584 44.201 203.695 46.7333 203.65 49.8575L205.649 49.8865C205.689 47.1227 206.464 45.175 207.833 43.878L206.458 42.426ZM237.594 40.4V39.4H236.594V40.4H237.594ZM238.554 57.936L237.871 58.6671L237.883 58.678L237.895 58.6886L238.554 57.936ZM245.722 57.552H246.722V55.7168L245.179 56.7117L245.722 57.552ZM245.722 65.296L246.118 66.2139L246.722 65.9531V65.296H245.722ZM228.25 40.4H229.25V39.4H228.25V40.4ZM223.578 40.4H222.578V41.4H223.578V40.4ZM223.578 33.552V32.552H222.578V33.552H223.578ZM228.25 33.552V34.552H229.25V33.552H228.25ZM228.25 25.872V24.872H227.25V25.872H228.25ZM237.594 25.872H238.594V24.872H237.594V25.872ZM237.594 33.552H236.594V34.552H237.594V33.552ZM245.146 33.552H246.146V32.552H245.146V33.552ZM245.146 40.4V41.4H246.146V40.4H245.146ZM236.594 40.4V55.312H238.594V40.4H236.594ZM236.594 55.312C236.594 56.6493 236.97 57.8259 237.871 58.6671L239.236 57.2049C238.857 56.8514 238.594 56.2787 238.594 55.312H236.594ZM237.895 58.6886C238.791 59.4727 239.914 59.832 241.178 59.832V57.832C240.308 57.832 239.681 57.5939 239.212 57.1834L237.895 58.6886ZM241.178 59.832C243.06 59.832 244.766 59.3587 246.264 58.3923L245.179 56.7117C244.032 57.452 242.709 57.832 241.178 57.832V59.832ZM244.722 57.552V65.296H246.722V57.552H244.722ZM245.325 64.3781C243.922 64.9848 241.942 65.32 239.322 65.32V67.32C242.077 67.32 244.364 66.9726 246.118 66.2139L245.325 64.3781ZM239.322 65.32C235.785 65.32 233.316 64.4365 231.725 62.8449C230.133 61.2532 229.25 58.7845 229.25 55.248H227.25C227.25 59.0928 228.211 62.1601 230.31 64.2591C232.409 66.3581 235.477 67.32 239.322 67.32V65.32ZM229.25 55.248V40.4H227.25V55.248H229.25ZM228.25 39.4H223.578V41.4H228.25V39.4ZM224.578 40.4V33.552H222.578V40.4H224.578ZM223.578 34.552H228.25V32.552H223.578V34.552ZM229.25 33.552V25.872H227.25V33.552H229.25ZM228.25 26.872H237.594V24.872H228.25V26.872ZM236.594 25.872V33.552H238.594V25.872H236.594ZM237.594 34.552H245.146V32.552H237.594V34.552ZM244.146 33.552V40.4H246.146V33.552H244.146ZM245.146 39.4H237.594V41.4H245.146V39.4ZM254.025 61.968L253.283 62.6381L253.287 62.6433L254.025 61.968ZM254.217 37.904L254.958 38.5757L254.962 38.5708L254.217 37.904ZM277.513 37.712L278.26 37.047L277.513 37.712ZM277.449 61.776L276.698 61.1154L276.698 61.1161L277.449 61.776ZM261.129 43.024L260.266 42.5188L260.266 42.5188L261.129 43.024ZM261.129 56.656L260.261 57.1521L260.268 57.1645L260.275 57.1766L261.129 56.656ZM270.409 56.72L269.546 56.2148L269.542 56.2215L270.409 56.72ZM265.801 65.512C260.933 65.512 257.303 64.0679 254.763 61.2927L253.287 62.6433C256.293 65.9268 260.514 67.512 265.801 67.512V65.512ZM254.767 61.2979C252.185 58.4379 250.865 54.7639 250.865 50.192H248.865C248.865 55.1774 250.318 59.3541 253.283 62.6381L254.767 61.2979ZM250.865 50.192C250.865 45.4071 252.249 41.5633 254.958 38.5757L253.476 37.2323C250.382 40.6447 248.865 44.9929 248.865 50.192H250.865ZM254.962 38.5708C257.652 35.5644 261.23 34.04 265.801 34.04V32.04C260.729 32.04 256.585 33.7582 253.472 37.2372L254.962 38.5708ZM265.801 34.04C270.615 34.04 274.222 35.5192 276.766 38.377L278.26 37.047C275.258 33.6755 271.057 32.04 265.801 32.04V34.04ZM276.766 38.377C279.351 41.2802 280.673 44.9992 280.673 49.616H282.673C282.673 44.5902 281.221 40.3731 278.26 37.047L276.766 38.377ZM280.673 49.616C280.673 54.3186 279.33 58.1253 276.698 61.1154L278.2 62.4366C281.2 59.0267 282.673 54.7268 282.673 49.616H280.673ZM276.698 61.1161C274.15 64.0164 270.565 65.512 265.801 65.512V67.512C271.021 67.512 275.201 65.8503 278.2 62.4359L276.698 61.1161ZM265.737 39.4C263.338 39.4 261.472 40.4591 260.266 42.5188L261.992 43.5292C262.834 42.0902 264.04 41.4 265.737 41.4V39.4ZM260.266 42.5188C259.125 44.4677 258.593 46.9198 258.593 49.808H260.593C260.593 47.1495 261.085 45.079 261.992 43.5292L260.266 42.5188ZM258.593 49.808C258.593 52.6977 259.126 55.1658 260.261 57.1521L261.997 56.1599C261.084 54.5622 260.593 52.4649 260.593 49.808H258.593ZM260.275 57.1766C261.528 59.231 263.434 60.28 265.865 60.28V58.28C264.114 58.28 262.863 57.5796 261.983 56.1354L260.275 57.1766ZM265.865 60.28C268.253 60.28 270.107 59.2505 271.276 57.2185L269.542 56.2215C268.748 57.6028 267.573 58.28 265.865 58.28V60.28ZM271.272 57.2252C272.413 55.2763 272.945 52.8242 272.945 49.936H270.945C270.945 52.5945 270.453 54.665 269.546 56.2148L271.272 57.2252ZM272.945 49.936C272.945 46.6808 272.421 44.0663 271.231 42.2384C269.993 40.3362 268.108 39.4 265.737 39.4V41.4C267.505 41.4 268.724 42.0531 269.555 43.3296C270.434 44.6804 270.945 46.8339 270.945 49.936H272.945ZM297.058 33.552H298.058V32.552H297.058V33.552ZM297.058 39.568H296.058L298.01 39.8712L297.058 39.568ZM300.002 35.088L300.632 35.8641L300.635 35.862L300.002 35.088ZM307.298 33.616H308.298V32.8617L307.572 32.6545L307.298 33.616ZM307.298 42.448L306.881 43.3571L308.298 44.0064V42.448H307.298ZM298.914 43.984L299.674 44.6329L299.679 44.6275L299.684 44.622L298.914 43.984ZM297.058 66V67H298.058V66H297.058ZM287.714 66L286.714 65.998L286.712 67H287.714V66ZM287.778 33.552V32.552H286.779L286.778 33.55L287.778 33.552ZM296.058 33.552V39.568H298.058V33.552H296.058ZM298.01 39.8712C298.556 38.1565 299.436 36.8362 300.632 35.8641L299.371 34.3119C297.837 35.5585 296.754 37.2248 296.105 39.2648L298.01 39.8712ZM300.635 35.862C301.862 34.8575 303.26 34.36 304.866 34.36V32.36C302.802 32.36 300.957 33.0145 299.368 34.314L300.635 35.862ZM304.866 34.36C305.848 34.36 306.554 34.4435 307.023 34.5775L307.572 32.6545C306.847 32.4472 305.931 32.36 304.866 32.36V34.36ZM306.298 33.616V42.448H308.298V33.616H306.298ZM307.714 41.5389C306.539 41.0001 305.219 40.744 303.778 40.744V42.744C304.981 42.744 306.008 42.9572 306.881 43.3571L307.714 41.5389ZM303.778 40.744C301.486 40.744 299.578 41.6145 298.143 43.346L299.684 44.622C300.724 43.3668 302.058 42.744 303.778 42.744V40.744ZM298.153 43.3351C296.722 45.012 296.058 47.2053 296.058 49.808H298.058C298.058 47.5467 298.63 45.8573 299.674 44.6329L298.153 43.3351ZM296.058 49.808V66H298.058V49.808H296.058ZM297.058 65H287.714V67H297.058V65ZM288.713 66.002L288.777 33.554L286.778 33.55L286.714 65.998L288.713 66.002ZM287.778 34.552H297.058V32.552H287.778V34.552Z" fill="white" mask="url(#path-1-outside-1_328_3470)"/>
<rect x="5.5" y="5.5" width="319" height="79" stroke="white"/>
<rect y="80" width="10" height="10" fill="white"/>
<rect width="10" height="10" fill="white"/>
<rect x="320" y="80" width="10" height="10" fill="white"/>
<rect x="320" width="10" height="10" fill="white"/>
</svg>
