<svg width="204" height="100" viewBox="0 0 204 100" fill="none" xmlns="http://www.w3.org/2000/svg">
<rect x="3.5" y="3.5" width="197" height="93" stroke="#B10D00"/>
<mask id="path-2-outside-1_1895_18832" maskUnits="userSpaceOnUse" x="29" y="17" width="151" height="66" fill="black">
<rect fill="white" x="29" y="17" width="151" height="66"/>
<path d="M68.1 39H53.8V30.7C53.8 29.0333 52.9 28.2 51.1 28.2H47C45.2 28.2 44.3 29.0333 44.3 30.7V69.7C44.3 70.6333 44.5 71.3 44.9 71.7C45.3 72.0333 46 72.2 47 72.2H51.1C52.1 72.2 52.8 72.0333 53.2 71.7C53.6 71.3 53.8 70.6333 53.8 69.7V57.3H48.8V47.8H68.1V71C68.1 78.3333 63.9 82 55.5 82H42.6C34.2 82 30 78.3333 30 71V29.4C30 22.0667 34.2 18.4 42.6 18.4H55.5C63.9 18.4 68.1 22.0667 68.1 29.4V39ZM104.105 82H89.8055V61.4L73.8055 18.4H88.4055L96.9055 48.3L104.805 18.4H119.405L104.105 61.5V82ZM138.604 82H126.004V18.4H141.604L152.104 54.4L162.604 18.4H178.204V82H165.604V39.3L157.404 68.2H146.804L138.604 39.4V82Z"/>
</mask>
<path d="M68.1 39V40H69.1V39H68.1ZM53.8 39H52.8V40H53.8V39ZM44.9 71.7L44.1929 72.4071L44.225 72.4392L44.2598 72.4682L44.9 71.7ZM53.2 71.7L53.8402 72.4682L53.875 72.4392L53.9071 72.4071L53.2 71.7ZM53.8 57.3H54.8V56.3H53.8V57.3ZM48.8 57.3H47.8V58.3H48.8V57.3ZM48.8 47.8V46.8H47.8V47.8H48.8ZM68.1 47.8H69.1V46.8H68.1V47.8ZM68.1 38H53.8V40H68.1V38ZM54.8 39V30.7H52.8V39H54.8ZM54.8 30.7C54.8 29.6919 54.5242 28.7577 53.8044 28.0912C53.0991 27.4382 52.1359 27.2 51.1 27.2V29.2C51.8641 29.2 52.2509 29.3785 52.4456 29.5588C52.6258 29.7256 52.8 30.0414 52.8 30.7H54.8ZM51.1 27.2H47V29.2H51.1V27.2ZM47 27.2C45.9641 27.2 45.0009 27.4382 44.2956 28.0912C43.5758 28.7577 43.3 29.6919 43.3 30.7H45.3C45.3 30.0414 45.4742 29.7256 45.6544 29.5588C45.8491 29.3785 46.2359 29.2 47 29.2V27.2ZM43.3 30.7V69.7H45.3V30.7H43.3ZM43.3 69.7C43.3 70.7348 43.5148 71.729 44.1929 72.4071L45.6071 70.9929C45.4852 70.871 45.3 70.5318 45.3 69.7H43.3ZM44.2598 72.4682C44.9436 73.0381 45.9521 73.2 47 73.2V71.2C46.0479 71.2 45.6564 71.0286 45.5402 70.9318L44.2598 72.4682ZM47 73.2H51.1V71.2H47V73.2ZM51.1 73.2C52.1479 73.2 53.1564 73.0381 53.8402 72.4682L52.5598 70.9318C52.4436 71.0286 52.0521 71.2 51.1 71.2V73.2ZM53.9071 72.4071C54.5852 71.729 54.8 70.7348 54.8 69.7H52.8C52.8 70.5318 52.6148 70.871 52.4929 70.9929L53.9071 72.4071ZM54.8 69.7V57.3H52.8V69.7H54.8ZM53.8 56.3H48.8V58.3H53.8V56.3ZM49.8 57.3V47.8H47.8V57.3H49.8ZM48.8 48.8H68.1V46.8H48.8V48.8ZM67.1 47.8V71H69.1V47.8H67.1ZM67.1 71C67.1 74.4745 66.1113 76.9087 64.2923 78.4967C62.4474 80.1073 59.5767 81 55.5 81V83C59.8233 83 63.2526 82.0593 65.6077 80.0033C67.9887 77.9246 69.1 74.8588 69.1 71H67.1ZM55.5 81H42.6V83H55.5V81ZM42.6 81C38.5233 81 35.6526 80.1073 33.8077 78.4967C31.9887 76.9087 31 74.4745 31 71H29C29 74.8588 30.1113 77.9246 32.4923 80.0033C34.8474 82.0593 38.2767 83 42.6 83V81ZM31 71V29.4H29V71H31ZM31 29.4C31 25.9255 31.9887 23.4913 33.8077 21.9033C35.6526 20.2927 38.5233 19.4 42.6 19.4V17.4C38.2767 17.4 34.8474 18.3406 32.4923 20.3967C30.1113 22.4754 29 25.5412 29 29.4H31ZM42.6 19.4H55.5V17.4H42.6V19.4ZM55.5 19.4C59.5767 19.4 62.4474 20.2927 64.2923 21.9033C66.1113 23.4913 67.1 25.9255 67.1 29.4H69.1C69.1 25.5412 67.9887 22.4754 65.6077 20.3967C63.2526 18.3406 59.8233 17.4 55.5 17.4V19.4ZM67.1 29.4V39H69.1V29.4H67.1ZM104.105 82V83H105.105V82H104.105ZM89.8055 82H88.8055V83H89.8055V82ZM89.8055 61.4H90.8055V61.22L90.7427 61.0513L89.8055 61.4ZM73.8055 18.4V17.4H72.3664L72.8682 18.7487L73.8055 18.4ZM88.4055 18.4L89.3674 18.1266L89.1608 17.4H88.4055V18.4ZM96.9055 48.3L95.9436 48.5734L96.9408 52.0811L97.8723 48.5554L96.9055 48.3ZM104.805 18.4V17.4H104.035L103.839 18.1445L104.805 18.4ZM119.405 18.4L120.348 18.7345L120.822 17.4H119.405V18.4ZM104.105 61.5L103.163 61.1655L103.105 61.3278V61.5H104.105ZM104.105 81H89.8055V83H104.105V81ZM90.8055 82V61.4H88.8055V82H90.8055ZM90.7427 61.0513L74.7427 18.0513L72.8682 18.7487L88.8682 61.7487L90.7427 61.0513ZM73.8055 19.4H88.4055V17.4H73.8055V19.4ZM87.4436 18.6734L95.9436 48.5734L97.8674 48.0266L89.3674 18.1266L87.4436 18.6734ZM97.8723 48.5554L105.772 18.6554L103.839 18.1445L95.9386 48.0445L97.8723 48.5554ZM104.805 19.4H119.405V17.4H104.805V19.4ZM118.463 18.0655L103.163 61.1655L105.048 61.8345L120.348 18.7345L118.463 18.0655ZM103.105 61.5V82H105.105V61.5H103.105ZM138.604 82V83H139.604V82H138.604ZM126.004 82H125.004V83H126.004V82ZM126.004 18.4V17.4H125.004V18.4H126.004ZM141.604 18.4L142.564 18.12L142.354 17.4H141.604V18.4ZM152.104 54.4L151.144 54.68L152.104 57.9714L153.064 54.68L152.104 54.4ZM162.604 18.4V17.4H161.854L161.644 18.12L162.604 18.4ZM178.204 18.4H179.204V17.4H178.204V18.4ZM178.204 82V83H179.204V82H178.204ZM165.604 82H164.604V83H165.604V82ZM165.604 39.3H166.604L164.642 39.027L165.604 39.3ZM157.404 68.2V69.2H158.16L158.366 68.473L157.404 68.2ZM146.804 68.2L145.842 68.4738L146.049 69.2H146.804V68.2ZM138.604 39.4L139.566 39.1262L137.604 39.4H138.604ZM138.604 81H126.004V83H138.604V81ZM127.004 82V18.4H125.004V82H127.004ZM126.004 19.4H141.604V17.4H126.004V19.4ZM140.644 18.68L151.144 54.68L153.064 54.12L142.564 18.12L140.644 18.68ZM153.064 54.68L163.564 18.68L161.644 18.12L151.144 54.12L153.064 54.68ZM162.604 19.4H178.204V17.4H162.604V19.4ZM177.204 18.4V82H179.204V18.4H177.204ZM178.204 81H165.604V83H178.204V81ZM166.604 82V39.3H164.604V82H166.604ZM164.642 39.027L156.442 67.927L158.366 68.473L166.566 39.573L164.642 39.027ZM157.404 67.2H146.804V69.2H157.404V67.2ZM147.766 67.9262L139.566 39.1262L137.642 39.6738L145.842 68.4738L147.766 67.9262ZM137.604 39.4V82H139.604V39.4H137.604Z" fill="#B10D00" mask="url(#path-2-outside-1_1895_18832)"/>
<rect width="6" height="6" fill="#EA1505"/>
<rect y="94" width="6" height="6" fill="#EA1505"/>
<rect x="198" y="94" width="6" height="6" fill="#EA1505"/>
<rect x="198" width="6" height="6" fill="#EA1505"/>
</svg>
