<svg width="36" height="35" viewBox="0 0 36 35" fill="none" xmlns="http://www.w3.org/2000/svg">
<path d="M20.2557 18.6809C20.1675 18.6809 20.0793 18.6368 19.9911 18.5927C19.8147 18.4603 19.7705 18.1516 19.9029 17.9752L22.858 14.0939C22.9903 13.9174 23.299 13.8733 23.4754 14.0056C23.6519 14.138 23.696 14.4467 23.5636 14.6231L20.6086 18.5044C20.5203 18.5927 20.388 18.6809 20.2557 18.6809Z" fill="#0F7036"/>
<path d="M20.9613 24.988C20.8731 24.988 20.7849 24.9439 20.6966 24.8998C20.5202 24.7675 20.4761 24.4587 20.6084 24.2823L23.8282 20.2687C23.9605 20.0922 24.2692 20.0481 24.4456 20.1804C24.6221 20.3128 24.6662 20.6215 24.5338 20.7979L21.3141 24.8116C21.2259 24.9439 21.0936 24.988 20.9613 24.988Z" fill="#0F7036"/>
<path d="M26.7833 17.6223C26.6951 17.6223 26.6069 17.5782 26.5187 17.5341C26.3422 17.4017 26.2981 17.093 26.4305 16.9166L29.165 13.1676C29.2973 12.9912 29.562 12.9471 29.7825 13.0794C29.9589 13.2117 30.003 13.5204 29.8707 13.6969L27.1361 17.4458C27.0479 17.5341 26.9156 17.6223 26.7833 17.6223Z" fill="#0F7036"/>
<path d="M26.6071 23.4442C26.4748 23.4442 26.3865 23.4001 26.2983 23.3119C26.1219 23.1355 26.1219 22.8708 26.2983 22.6944L29.5181 19.3865C29.6945 19.21 29.9591 19.21 30.1355 19.3865C30.312 19.5629 30.312 19.8275 30.1355 20.0039L26.9158 23.3119C26.8276 23.4001 26.6953 23.4442 26.6071 23.4442Z" fill="#0F7036"/>
<path d="M26.254 11.1829C26.1658 11.1829 26.0334 11.1388 25.9452 11.0947C25.7688 10.9183 25.7247 10.6536 25.9011 10.4772L28.4152 7.52214C28.5916 7.34571 28.8562 7.30161 29.0326 7.47804C29.2091 7.65446 29.2532 7.91909 29.0767 8.09551L26.5627 11.0506C26.5186 11.0947 26.3863 11.1829 26.254 11.1829Z" fill="#0F7036"/>
<path d="M13.6398 25.2527C13.5516 25.2527 13.4634 25.2086 13.3752 25.1645C13.1547 25.0322 13.1106 24.7675 13.2429 24.547L15.2276 21.5478C15.36 21.3273 15.6246 21.2832 15.8451 21.4155C16.0657 21.5478 16.1098 21.8124 15.9774 22.033L13.9927 25.0322C13.9045 25.2086 13.7722 25.2527 13.6398 25.2527Z" fill="#0F7036"/>
<path d="M12.1402 20.1804C12.052 20.1804 11.9197 20.1363 11.8315 20.0922C11.655 19.9158 11.6109 19.6511 11.7874 19.4747L15.3599 15.3288C15.5364 15.1524 15.801 15.1083 15.9774 15.2847C16.1538 15.4611 16.1979 15.7257 16.0215 15.9022L12.4489 20.0481C12.3607 20.1363 12.2725 20.1804 12.1402 20.1804Z" fill="#0F7036"/>
<path d="M18.9767 11.3152C18.8444 11.3152 18.7562 11.2711 18.668 11.1829C18.4915 11.0065 18.4915 10.7418 18.668 10.5654L22.3287 6.94872C22.5052 6.7723 22.7698 6.7723 22.9462 6.94872C23.1226 7.12515 23.1226 7.38979 22.9462 7.56621L19.2854 11.1829C19.1972 11.2711 19.0649 11.3152 18.9767 11.3152Z" fill="#0F7036"/>
<path d="M13.3312 13.0353C13.243 13.0353 13.1107 12.9912 13.0225 12.903C12.846 12.7266 12.846 12.4619 13.0225 12.2855L15.6247 9.50683C15.8011 9.33041 16.0658 9.33041 16.2422 9.50683C16.4186 9.68325 16.4186 9.94789 16.2422 10.1243L13.6399 12.903C13.5958 12.9912 13.4635 13.0353 13.3312 13.0353Z" fill="#0F7036"/>
<path d="M18.1387 5.9784C18.0505 5.9784 17.9182 5.93429 17.83 5.89019C17.6536 5.71377 17.6095 5.44913 17.7859 5.27271L20.5646 2.09709C20.741 1.92066 21.0056 1.87656 21.182 2.05299C21.3585 2.22941 21.4026 2.49404 21.2261 2.67046L18.4475 5.84608C18.4034 5.93429 18.2711 5.9784 18.1387 5.9784Z" fill="#0F7036"/>
<path d="M6.58292 18.1074C6.4947 18.1074 6.36239 18.0633 6.31828 18.0192C6.14186 17.8428 6.09775 17.5782 6.27418 17.4017L8.39125 14.9318C8.56768 14.7554 8.83231 14.7113 9.00874 14.8877C9.18516 15.0641 9.22926 15.3288 9.05284 15.5052L6.93576 17.9751C6.84755 18.0633 6.71523 18.1074 6.58292 18.1074Z" fill="#0F7036"/>
<path d="M8.4352 10.4331C8.34699 10.4331 8.21467 10.389 8.12646 10.3008C7.95004 10.1244 7.95004 9.85975 8.08235 9.68333L11.258 6.19897C11.4344 6.02254 11.699 6.02255 11.8755 6.15487C12.0519 6.33129 12.0519 6.59592 11.9196 6.77234L8.74394 10.2567C8.65573 10.389 8.52341 10.4331 8.4352 10.4331Z" fill="#0F7036"/>
<path d="M14.6099 3.72899C14.5217 3.72899 14.3894 3.68488 14.3012 3.64077C14.1248 3.46435 14.0807 3.19972 14.2571 3.0233L16.7711 0.156418C16.9475 -0.0200049 17.2122 -0.0641134 17.3886 0.11231C17.565 0.288733 17.6091 0.553372 17.4327 0.729795L14.9187 3.59667C14.8746 3.68488 14.7422 3.72899 14.6099 3.72899Z" fill="#0F7036"/>
<path d="M1.7313 17.3136C1.64308 17.3136 1.55487 17.2695 1.46666 17.2254C1.29024 17.0931 1.24613 16.7843 1.37845 16.6079L4.15711 13.0795C4.28943 12.903 4.59817 12.8589 4.7746 12.9912C4.95102 13.1236 4.99512 13.4323 4.86281 13.6087L2.08414 17.1372C1.99593 17.2254 1.86361 17.3136 1.7313 17.3136Z" fill="#0F7036"/>
<path d="M1.4225 11.2271C1.33429 11.2271 1.20197 11.183 1.11376 11.0947C0.93734 10.9183 0.93734 10.6537 1.11376 10.4773L4.4658 6.86059C4.64223 6.68417 4.90686 6.68417 5.08328 6.86059C5.25971 7.03701 5.25971 7.30165 5.08328 7.47807L1.73124 11.0947C1.64303 11.183 1.55482 11.2271 1.4225 11.2271Z" fill="#0F7036"/>
<path d="M8.7001 3.81715C8.56779 3.81715 8.47958 3.77304 8.39136 3.68483C8.21494 3.50841 8.25905 3.24378 8.43547 3.06735L10.9936 0.729744C11.17 0.553321 11.4347 0.597423 11.6111 0.773846C11.7875 0.950269 11.7434 1.21491 11.567 1.39133L9.00885 3.72894C8.92063 3.77305 8.78832 3.81715 8.7001 3.81715Z" fill="#0F7036"/>
<path d="M25.1954 5.0962C25.1072 5.0962 25.019 5.0521 24.9308 5.00799C24.7543 4.87567 24.7102 4.56693 24.8426 4.39051C25.46 3.5084 26.2098 2.71449 27.0037 2.00879C27.1802 1.83237 27.4448 1.87648 27.6212 2.0529C27.7977 2.22933 27.7535 2.49396 27.5771 2.67038C26.8273 3.33197 26.1216 4.12587 25.5483 4.91978C25.46 5.00799 25.3277 5.0962 25.1954 5.0962Z" fill="#0F7036"/>
<path d="M32.0761 9.8156C31.9879 9.8156 31.8997 9.7715 31.8114 9.72739C31.635 9.55097 31.5909 9.28634 31.7673 9.10991L33.6198 6.86052C33.7962 6.68409 34.0608 6.63999 34.2373 6.81641C34.4137 6.99284 34.4578 7.25747 34.2814 7.43389L32.4289 9.68329C32.3407 9.7274 32.2084 9.8156 32.0761 9.8156Z" fill="#0F7036"/>
<path d="M32.7819 16.2551C32.6937 16.2551 32.6496 16.2551 32.5613 16.211C32.3408 16.0786 32.2526 15.814 32.3849 15.5935L35.0313 10.786C35.1636 10.5654 35.4282 10.4772 35.6488 10.6095C35.8693 10.7418 35.9575 11.0065 35.8252 11.227L33.1788 16.0345C33.0906 16.1669 32.9142 16.2551 32.7819 16.2551Z" fill="#0F7036"/>
<path d="M33.4432 22.6945C33.355 22.6945 33.3109 22.6945 33.2227 22.6504C33.0022 22.5181 32.958 22.2535 33.0463 22.033L35.1633 18.4163C35.2957 18.1958 35.5603 18.1516 35.7808 18.2399C36.0013 18.3722 36.0455 18.6368 35.9572 18.8573L33.8402 22.474C33.752 22.6504 33.6196 22.6945 33.4432 22.6945Z" fill="#0F7036"/>
<path d="M29.7827 30.0602C29.6945 30.0602 29.6063 30.0602 29.5622 29.9719C29.3417 29.8396 29.2976 29.575 29.4299 29.3545L31.3706 26.267C31.5029 26.0465 31.7675 26.0024 31.988 26.1347C32.2086 26.267 32.2527 26.5317 32.1203 26.7522L30.1797 29.8396C30.0474 29.9719 29.9151 30.0602 29.7827 30.0602Z" fill="#0F7036"/>
<path d="M23.5194 32.7948C23.4312 32.7948 23.3871 32.7948 23.2989 32.7507C23.0784 32.6184 22.9902 32.3537 23.1225 32.1332L25.5483 27.5462C25.6806 27.3257 25.9452 27.2375 26.1658 27.3698C26.3863 27.5021 26.4745 27.7667 26.3422 27.9873L23.9164 32.5743C23.8282 32.7066 23.6958 32.7948 23.5194 32.7948Z" fill="#0F7036"/>
<path d="M16.3744 34.3826C16.2862 34.3826 16.242 34.3826 16.1538 34.3385C15.9333 34.2062 15.8892 33.9416 15.9774 33.721L18.1386 30.0161C18.2709 29.7956 18.5355 29.7515 18.7561 29.8397C18.9766 29.972 19.0207 30.2367 18.9325 30.4572L16.7713 34.1621C16.6831 34.3385 16.5067 34.3826 16.3744 34.3826Z" fill="#0F7036"/>
<path d="M7.99418 28.1196C7.90597 28.1196 7.81775 28.0755 7.72954 28.0313C7.50901 27.899 7.46491 27.6344 7.64133 27.4139L9.89073 24.1941C10.023 23.9736 10.2877 23.9295 10.5082 24.1059C10.7287 24.2382 10.7728 24.5029 10.5964 24.7234L8.34702 27.9431C8.25881 28.0755 8.1265 28.1196 7.99418 28.1196Z" fill="#0F7036"/>
<path d="M2.87807 25.6497C2.74575 25.6497 2.65754 25.6056 2.56933 25.5174C2.39291 25.3409 2.39291 25.0763 2.56933 24.8999C3.36323 24.106 4.11303 23.268 4.73051 22.3418C4.86283 22.1212 5.12747 22.0771 5.34799 22.2094C5.56852 22.3418 5.61263 22.6064 5.48031 22.8269C4.81872 23.7972 4.06893 24.7235 3.18681 25.5615C3.0986 25.6056 2.96628 25.6497 2.87807 25.6497Z" fill="#0F7036"/>
<path d="M9.62601 35.0001C9.53779 35.0001 9.44958 35.0001 9.40548 34.956C9.18495 34.8236 9.14084 34.559 9.27316 34.3385L11.4343 30.81C11.5667 30.5895 11.8313 30.5454 12.0518 30.6777C12.2724 30.81 12.3165 31.0747 12.1841 31.2952L10.023 34.8236C9.89064 34.9119 9.75832 35.0001 9.62601 35.0001Z" fill="#0F7036"/>
</svg>
