<svg width="135" height="40" viewBox="0 0 135 40" fill="none" xmlns="http://www.w3.org/2000/svg">
<path d="M134.104 35.2776C134.104 35.781 134.005 36.2795 133.812 36.7446C133.619 37.2097 133.337 37.6322 132.981 37.988C132.624 38.3438 132.201 38.6259 131.736 38.8182C131.271 39.0105 130.772 39.1092 130.268 39.1086H4.73158C3.71409 39.1097 2.73785 38.7067 2.01754 37.9883C1.29723 37.2698 0.891829 36.2948 0.890503 35.2776V4.72619C0.891828 3.70852 1.29706 2.73297 2.01723 2.01374C2.7374 1.29451 3.71363 0.890401 4.73158 0.890137H130.267C130.771 0.890137 131.27 0.989366 131.736 1.18216C132.201 1.37495 132.624 1.65753 132.98 2.01375C133.336 2.36998 133.619 2.79287 133.812 3.25827C134.004 3.72368 134.104 4.22248 134.103 4.72619L134.104 35.2776Z" fill="white"/>
<path d="M130.268 40H4.73155C3.47813 39.9997 2.27601 39.5024 1.38896 38.6171C0.501907 37.7317 0.00238491 36.5308 0 35.2777L0 4.7273C0.00185425 3.47359 0.501047 2.27181 1.38807 1.38558C2.27509 0.499356 3.47751 0.00105818 4.73155 0L130.267 0C131.521 0.00158618 132.723 0.500053 133.61 1.38616C134.497 2.27228 134.996 3.47375 134.999 4.7273V35.2777C135.001 37.8824 132.875 40 130.268 40Z" fill="#A6A6A6"/>
<path d="M134.104 35.2776C134.104 35.781 134.005 36.2795 133.812 36.7446C133.619 37.2097 133.337 37.6322 132.981 37.988C132.624 38.3438 132.201 38.6259 131.736 38.8182C131.271 39.0105 130.772 39.1092 130.268 39.1086H4.73158C3.71409 39.1097 2.73785 38.7067 2.01754 37.9883C1.29723 37.2698 0.891829 36.2948 0.890503 35.2776V4.72619C0.891828 3.70852 1.29706 2.73297 2.01723 2.01374C2.7374 1.29451 3.71363 0.890401 4.73158 0.890137H130.267C130.771 0.890137 131.27 0.989366 131.736 1.18216C132.201 1.37495 132.624 1.65753 132.98 2.01375C133.336 2.36998 133.619 2.79287 133.812 3.25827C134.004 3.72368 134.104 4.22248 134.103 4.72619L134.104 35.2776Z" fill="black"/>
<path d="M30.1445 19.789C30.1155 16.5651 32.785 14.9967 32.907 14.9237C31.3952 12.72 29.0519 12.419 28.2285 12.395C26.2604 12.1879 24.3514 13.5723 23.3489 13.5723C22.3263 13.5723 20.7825 12.415 19.1186 12.449C16.9774 12.482 14.9743 13.7213 13.8757 15.6459C11.6085 19.5699 13.2994 25.3365 15.4716 28.5084C16.5582 30.0628 17.8279 31.7963 19.4898 31.7353C21.1157 31.6693 21.723 30.7 23.685 30.7C25.6291 30.7 26.1994 31.7353 27.8943 31.6963C29.6393 31.6693 30.7378 30.1358 31.7864 28.5684C33.0421 26.7889 33.5464 25.0344 33.5664 24.9444C33.5264 24.9304 30.1785 23.6521 30.1445 19.789ZM26.9428 10.3084C27.8173 9.21509 28.4156 7.72768 28.2495 6.21826C26.9838 6.27428 25.401 7.0935 24.4895 8.1628C23.683 9.10506 22.9627 10.6495 23.1488 12.1019C24.5705 12.2079 26.0303 11.3847 26.9428 10.3084Z" fill="white"/>
<path d="M130.268 0H63.0271L89.3643 40H130.268C131.522 39.9989 132.724 39.5009 133.611 38.6151C134.498 37.7293 134.998 36.5281 135 35.2747V4.7273C134.998 3.47367 134.499 2.27204 133.612 1.38587C132.725 0.499705 131.522 0.00132228 130.268 0Z" fill="url(#paint0_linear_149_2325)"/>
<path d="M53.6941 31.5126H51.4218L50.1772 27.6025H45.8508L44.6652 31.5126H42.453L46.7403 18.201H49.3877L53.6941 31.5126ZM49.802 25.9621L48.6764 22.4861C48.5573 22.131 48.3332 21.2948 48.005 19.9784H47.965C47.8329 20.5446 47.6218 21.3808 47.3326 22.4861L46.226 25.9621H49.802ZM64.698 26.5953C64.698 28.2277 64.2548 29.5181 63.3673 30.4653C62.5729 31.3086 61.5853 31.7297 60.4077 31.7297C59.136 31.7297 58.2215 31.2766 57.6662 30.3683V35.4047H55.5331V25.0688C55.5331 24.0436 55.506 22.9923 55.454 21.914H57.33L57.4491 23.4354H57.4891C58.2005 22.2891 59.2801 21.7159 60.7289 21.7159C61.8615 21.7159 62.807 22.163 63.5634 23.0583C64.3188 23.9555 64.698 25.1339 64.698 26.5953ZM62.5248 26.6733C62.5248 25.739 62.3147 24.9688 61.8925 24.3617C61.4312 23.7305 60.8119 23.4144 60.0355 23.4144C59.5092 23.4144 59.0309 23.5904 58.6037 23.9375C58.1755 24.2876 57.8953 24.7448 57.7643 25.3109C57.7058 25.5226 57.6725 25.7406 57.6652 25.9601V27.5615C57.6652 28.2587 57.8793 28.8479 58.3076 29.33C58.7358 29.8102 59.2921 30.0512 59.9765 30.0512C60.7799 30.0512 61.4052 29.7401 61.8525 29.123C62.3007 28.5038 62.5248 27.6876 62.5248 26.6733ZM75.741 26.5953C75.741 28.2277 75.2977 29.5181 74.4103 30.4653C73.6148 31.3086 72.6283 31.7297 71.4497 31.7297C70.178 31.7297 69.2635 31.2766 68.7082 30.3683V35.4047H66.575V25.0688C66.575 24.0436 66.548 22.9923 66.496 21.914H68.372L68.4911 23.4354H68.5311C69.2415 22.2891 70.321 21.7159 71.7708 21.7159C72.9024 21.7159 73.8479 22.163 74.6064 23.0583C75.3608 23.9555 75.741 25.1339 75.741 26.5953ZM73.5668 26.6733C73.5668 25.739 73.3557 24.9688 72.9335 24.3617C72.4722 23.7305 71.8549 23.4144 71.0785 23.4144C70.5522 23.4144 70.0739 23.5904 69.6447 23.9375C69.2164 24.2876 68.9373 24.7448 68.8062 25.3109C68.7412 25.575 68.7062 25.79 68.7062 25.9601V27.5615C68.7062 28.2587 68.9213 28.8479 69.3475 29.33C69.7757 29.8092 70.3321 30.0512 71.0184 30.0512C71.8229 30.0512 72.4482 29.7401 72.8944 29.123C73.3427 28.5038 73.5668 27.6876 73.5668 26.6733ZM88.0876 27.7786C88.0876 28.9119 87.6914 29.8332 86.904 30.5444C86.0375 31.3206 84.8279 31.7097 83.277 31.7097C81.8443 31.7097 80.6956 31.4336 79.8292 30.8804L80.3224 29.103C81.2579 29.6571 82.2855 29.9332 83.4041 29.9332C84.2085 29.9332 84.8339 29.7511 85.2801 29.39C85.7274 29.0279 85.9535 28.5438 85.9535 27.9396C85.9535 27.3985 85.7664 26.9454 85.3992 26.5763C85.03 26.2082 84.4197 25.8651 83.5622 25.55C81.2309 24.6807 80.0643 23.4094 80.0643 21.7369C80.0643 20.6446 80.4765 19.7504 81.299 19.0512C82.1214 18.353 83.212 18.0039 84.5687 18.0039C85.7804 18.0039 86.7899 18.215 87.5914 18.6361L87.0561 20.3746C86.3017 19.9664 85.4502 19.7624 84.4977 19.7624C83.7453 19.7624 83.155 19.9474 82.7327 20.3155C82.3776 20.6446 82.1975 21.0457 82.1975 21.5219C82.1975 22.047 82.4026 22.4831 82.8108 22.8252C83.165 23.1403 83.8113 23.4834 84.7458 23.8515C85.8924 24.3136 86.7349 24.8518 87.2742 25.47C87.8175 26.0881 88.0876 26.8593 88.0876 27.7786ZM95.1585 23.5144H92.8072V28.1747C92.8072 29.36 93.2214 29.9512 94.0519 29.9512C94.4331 29.9512 94.7492 29.9192 94.9994 29.8522L95.0584 31.4716C94.6382 31.6287 94.0849 31.7077 93.3995 31.7077C92.557 31.7077 91.8987 31.4506 91.4234 30.9365C90.9502 30.4223 90.7121 29.5611 90.7121 28.3488V23.5104H89.3113V21.91H90.7121V20.1525L92.8072 19.5203V21.91H95.1585V23.5144ZM105.746 26.6343C105.746 28.1097 105.324 29.321 104.481 30.2683C103.6 31.2435 102.427 31.7297 100.966 31.7297C99.5548 31.7297 98.4332 31.2626 97.5968 30.3293C96.7603 29.394 96.3421 28.2157 96.3421 26.7943C96.3421 25.3069 96.7743 24.0886 97.6358 23.1413C98.4993 22.1931 99.6619 21.7189 101.124 21.7189C102.532 21.7189 103.664 22.1871 104.521 23.1213C105.339 24.0276 105.746 25.1979 105.746 26.6343ZM103.535 26.6833C103.535 25.8041 103.345 25.0498 102.964 24.4187C102.516 23.6565 101.876 23.2754 101.047 23.2754C100.192 23.2754 99.5368 23.6565 99.0906 24.4187C98.7084 25.0498 98.5183 25.8171 98.5183 26.7233C98.5183 27.6035 98.7084 28.3598 99.0906 28.9889C99.5518 29.7511 100.195 30.1322 101.029 30.1322C101.844 30.1322 102.483 29.7431 102.946 28.9699C103.338 28.3237 103.535 27.5645 103.535 26.6833ZM112.683 23.7895C112.461 23.7495 112.236 23.7297 112.011 23.7305C111.26 23.7305 110.68 24.0126 110.272 24.5807C109.917 25.0809 109.739 25.713 109.739 26.4762V31.5126H107.606V24.9368C107.608 23.9292 107.587 22.9217 107.544 21.915H109.402L109.48 23.7515H109.539C109.765 23.1203 110.12 22.6112 110.606 22.2301C111.051 21.8971 111.592 21.7167 112.148 21.7159C112.345 21.7159 112.523 21.7299 112.681 21.7549L112.683 23.7895ZM122.223 26.2592C122.228 26.5834 122.202 26.9073 122.145 27.2264H115.746C115.77 28.1747 116.08 28.9009 116.674 29.401C117.213 29.8472 117.911 30.0712 118.767 30.0712C119.715 30.0712 120.579 29.9212 121.357 29.6181L121.691 31.0975C120.782 31.4936 119.71 31.6907 118.472 31.6907C116.983 31.6907 115.815 31.2526 114.964 30.3783C114.116 29.5031 113.69 28.3267 113.69 26.8533C113.69 25.4069 114.086 24.2016 114.877 23.2403C115.706 22.2141 116.825 21.7009 118.234 21.7009C119.618 21.7009 120.665 22.2141 121.377 23.2403C121.94 24.0536 122.223 25.0618 122.223 26.2592ZM120.189 25.706C120.204 25.0728 120.064 24.5277 119.775 24.0666C119.406 23.4724 118.837 23.1763 118.076 23.1763C117.378 23.1763 116.81 23.4654 116.378 24.0456C116.023 24.5067 115.812 25.0608 115.747 25.704L120.189 25.706Z" fill="white"/>
<path d="M45.2352 13.4951C44.6419 13.4951 44.1286 13.4661 43.7014 13.4171V6.98129C44.2989 6.88901 44.9028 6.84353 45.5074 6.84526C47.9537 6.84526 49.0803 8.04859 49.0803 10.0101C49.0803 12.2727 47.7496 13.4951 45.2352 13.4951ZM45.5934 7.67048C45.2633 7.67048 44.9821 7.69049 44.749 7.7385V12.6308C44.875 12.6509 45.1172 12.6599 45.4574 12.6599C47.0602 12.6599 47.9727 11.7476 47.9727 10.0391C47.9727 8.51572 47.1473 7.67048 45.5934 7.67048ZM52.5912 13.5441C51.2125 13.5441 50.319 12.5148 50.319 11.1174C50.319 9.66103 51.2315 8.62274 52.6693 8.62274C54.028 8.62274 54.9415 9.60301 54.9415 11.0404C54.9415 12.5148 54 13.5441 52.5912 13.5441ZM52.6312 9.38895C51.8738 9.38895 51.3886 10.0971 51.3886 11.0874C51.3886 12.0587 51.8838 12.7669 52.6212 12.7669C53.3586 12.7669 53.8539 12.0097 53.8539 11.0674C53.8539 10.1072 53.3686 9.38895 52.6312 9.38895ZM62.8037 8.71977L61.3279 13.4371H60.3664L59.7551 11.3885C59.6031 10.8874 59.4765 10.379 59.3759 9.86509H59.3559C59.2788 10.3792 59.1327 10.8944 58.9777 11.3885L58.3273 13.4371H57.3558L55.967 8.71977H57.0446L57.5789 10.9624C57.705 11.4965 57.811 12.0007 57.8991 12.4768H57.9191C57.9961 12.0797 58.1222 11.5836 58.3073 10.9724L58.9777 8.72077H59.8321L60.4735 10.9244C60.6285 11.4585 60.7546 11.9827 60.8527 12.4778H60.8807C60.9487 11.9927 61.0558 11.4775 61.2009 10.9244L61.7742 8.72077L62.8037 8.71977ZM68.2367 13.4371H67.1881V10.7283C67.1881 9.89409 66.8679 9.47598 66.2366 9.47598C65.6152 9.47598 65.188 10.0101 65.188 10.6313V13.4371H64.1394V10.0681C64.1394 9.65103 64.1294 9.2039 64.1004 8.71877H65.0229L65.0719 9.44697H65.101C65.3831 8.94283 65.9554 8.62274 66.5968 8.62274C67.5873 8.62274 68.2377 9.37995 68.2377 10.6123L68.2367 13.4371ZM71.1282 13.4371H70.0786V6.55518H71.1282V13.4371ZM74.9513 13.5441C73.5735 13.5441 72.6791 12.5148 72.6791 11.1174C72.6791 9.66103 73.5915 8.62274 75.0283 8.62274C76.3881 8.62274 77.3005 9.60301 77.3005 11.0404C77.3015 12.5148 76.359 13.5441 74.9513 13.5441ZM74.9903 9.38895C74.2329 9.38895 73.7476 10.0971 73.7476 11.0874C73.7476 12.0587 74.2439 12.7669 74.9793 12.7669C75.7177 12.7669 76.212 12.0097 76.212 11.0674C76.213 10.1072 75.7287 9.38895 74.9903 9.38895ZM81.4348 13.4371L81.3587 12.8939H81.3307C81.0105 13.331 80.5433 13.5441 79.951 13.5441C79.1055 13.5441 78.5052 12.9519 78.5052 12.1557C78.5052 10.9914 79.5147 10.3892 81.2627 10.3892V10.3022C81.2627 9.68104 80.9335 9.36995 80.2832 9.36995C79.8179 9.36995 79.4097 9.48698 79.0505 9.72005L78.8374 9.03086C79.2736 8.75878 79.8179 8.62274 80.4572 8.62274C81.6899 8.62274 82.3122 9.27292 82.3122 10.5743V12.3118C82.3122 12.7879 82.3333 13.157 82.3803 13.4381L81.4348 13.4371ZM81.2907 11.0874C80.1261 11.0874 79.5418 11.3695 79.5418 12.0387C79.5418 12.5338 79.8429 12.7759 80.2611 12.7759C80.7944 12.7759 81.2907 12.3688 81.2907 11.8156V11.0874ZM87.404 13.4371L87.355 12.6799H87.326C87.0248 13.252 86.5185 13.5441 85.8111 13.5441C84.6735 13.5441 83.8311 12.5438 83.8311 11.1364C83.8311 9.66103 84.7045 8.62174 85.8972 8.62174C86.5285 8.62174 86.9758 8.8348 87.2279 9.26292H87.2489V6.55518H88.2985V12.1657C88.2985 12.6218 88.3095 13.049 88.3375 13.4371H87.404ZM87.2489 10.6613C87.2489 10.0011 86.8117 9.43797 86.1443 9.43797C85.3669 9.43797 84.8916 10.1272 84.8916 11.0974C84.8916 12.0487 85.3849 12.6999 86.1233 12.6999C86.7827 12.6999 87.2489 12.1267 87.2489 11.4475V10.6613ZM94.9531 13.5441C93.5753 13.5441 92.6819 12.5148 92.6819 11.1174C92.6819 9.66103 93.5943 8.62274 95.0311 8.62274C96.3909 8.62274 97.3033 9.60301 97.3033 11.0404C97.3043 12.5148 96.3628 13.5441 94.9531 13.5441ZM94.9921 9.38895C94.2357 9.38895 93.7504 10.0971 93.7504 11.0874C93.7504 12.0587 94.2457 12.7669 94.9821 12.7669C95.7205 12.7669 96.2148 12.0097 96.2148 11.0674C96.2168 10.1072 95.7315 9.38895 94.9921 9.38895ZM102.942 13.4371H101.893V10.7283C101.893 9.89409 101.573 9.47598 100.941 9.47598C100.32 9.47598 99.8937 10.0101 99.8937 10.6313V13.4371H98.8442V10.0681C98.8442 9.65103 98.8342 9.2039 98.8051 8.71877H99.7276L99.7767 9.44697H99.8057C100.087 8.94283 100.66 8.62174 101.3 8.62174C102.291 8.62174 102.942 9.37895 102.942 10.6113V13.4371ZM109.997 9.50599H108.844V11.7966C108.844 12.3798 109.046 12.6709 109.454 12.6709C109.639 12.6709 109.794 12.6509 109.919 12.6218L109.948 13.4181C109.745 13.4961 109.473 13.5351 109.135 13.5351C108.308 13.5351 107.814 13.079 107.814 11.8846V9.50599H107.126V8.71977H107.814V7.85553L108.844 7.54445V8.71877H109.997V9.50599ZM115.548 13.4371H114.501V10.7483C114.501 9.9041 114.181 9.47698 113.549 9.47698C113.006 9.47698 112.5 9.84608 112.5 10.5933V13.4371H111.452V6.55518H112.5V9.38895H112.521C112.851 8.87481 113.329 8.62174 113.939 8.62174C114.938 8.62174 115.548 9.39796 115.548 10.6313V13.4371ZM121.235 11.3305H118.089C118.109 12.2237 118.7 12.7279 119.575 12.7279C120.041 12.7279 120.469 12.6499 120.847 12.5048L121.01 13.233C120.564 13.4271 120.039 13.5241 119.427 13.5241C117.951 13.5241 117.078 12.5918 117.078 11.1464C117.078 9.70004 117.972 8.61274 119.309 8.61274C120.515 8.61274 121.271 9.50599 121.271 10.8554C121.278 11.0146 121.266 11.1741 121.235 11.3305ZM120.274 10.5833C120.274 9.85508 119.907 9.34094 119.236 9.34094C118.634 9.34094 118.158 9.86509 118.09 10.5833H120.274Z" fill="white"/>
<defs>
<linearGradient id="paint0_linear_149_2325" x1="99.0124" y1="40.1062" x2="99.0124" y2="-104.153" gradientUnits="userSpaceOnUse">
<stop stop-color="#1A1A1A" stop-opacity="0.1"/>
<stop offset="0.123" stop-color="#212121" stop-opacity="0.151"/>
<stop offset="0.308" stop-color="#353535" stop-opacity="0.227"/>
<stop offset="0.532" stop-color="#575757" stop-opacity="0.318"/>
<stop offset="0.783" stop-color="#858585" stop-opacity="0.421"/>
<stop offset="1" stop-color="#B3B3B3" stop-opacity="0.51"/>
</linearGradient>
</defs>
</svg>
