<svg width="131" height="39" viewBox="0 0 131 39" fill="none" xmlns="http://www.w3.org/2000/svg">
<path d="M126.012 38.9041H5.34288C2.63989 38.9041 0.516113 36.7804 0.516113 34.0774V5.1168C0.516113 2.41381 2.63989 0.290039 5.34288 0.290039H126.012C128.715 0.290039 130.839 2.41381 130.839 5.1168V34.0774C130.839 36.7804 128.715 38.9041 126.012 38.9041Z" fill="black"/>
<path d="M126.012 1.06232C128.232 1.06232 130.066 2.89649 130.066 5.1168V34.0774C130.066 36.2977 128.232 38.1319 126.012 38.1319H5.34288C3.12257 38.1319 1.2884 36.2977 1.2884 34.0774V5.1168C1.2884 2.89649 3.12257 1.06232 5.34288 1.06232H126.012ZM126.012 0.290039H5.34288C2.63989 0.290039 0.516113 2.51035 0.516113 5.1168V34.0774C0.516113 36.7804 2.63989 38.9041 5.34288 38.9041H126.012C128.715 38.9041 130.839 36.7804 130.839 34.0774V5.1168C130.839 2.51035 128.715 0.290039 126.012 0.290039Z" fill="#A6A6A6"/>
<path d="M46.2739 10.1363C46.2739 10.9086 46.0809 11.5844 45.5982 12.0671C45.019 12.6463 44.3432 12.9359 43.4744 12.9359C42.6056 12.9359 41.9298 12.6463 41.3506 12.0671C40.7714 11.4878 40.4818 10.8121 40.4818 9.94328C40.4818 9.07446 40.7714 8.39871 41.3506 7.8195C41.9298 7.24029 42.6056 6.95068 43.4744 6.95068C43.8605 6.95068 44.2467 7.04722 44.6328 7.24029C45.019 7.43336 45.3086 7.62643 45.5016 7.91604L45.019 8.39871C44.6328 7.91604 44.1501 7.72297 43.4744 7.72297C42.8952 7.72297 42.316 7.91604 41.9298 8.39871C41.4472 8.78485 41.2541 9.36406 41.2541 10.0398C41.2541 10.7156 41.4472 11.2948 41.9298 11.6809C42.4125 12.0671 42.8952 12.3567 43.4744 12.3567C44.1501 12.3567 44.6328 12.1636 45.1155 11.6809C45.4051 11.3913 45.5982 11.0052 45.5982 10.5225H43.4744V9.75021H46.2739V10.1363ZM50.7145 7.72297H48.1081V9.55714H50.5215V10.2329H48.1081V12.0671H50.7145V12.8393H47.3358V7.04722H50.7145V7.72297ZM53.9002 12.8393H53.1279V7.72297H51.4868V7.04722H55.5413V7.72297H53.9002V12.8393ZM58.3408 12.8393V7.04722H59.1131V12.8393H58.3408ZM62.3953 12.8393H61.623V7.72297H59.9819V7.04722H63.9399V7.72297H62.2988V12.8393H62.3953ZM71.5662 12.0671C70.9869 12.6463 70.3112 12.9359 69.4424 12.9359C68.5736 12.9359 67.8978 12.6463 67.3186 12.0671C66.7394 11.4878 66.4498 10.8121 66.4498 9.94328C66.4498 9.07446 66.7394 8.39871 67.3186 7.8195C67.8978 7.24029 68.5736 6.95068 69.4424 6.95068C70.3112 6.95068 70.9869 7.24029 71.5662 7.8195C72.1454 8.39871 72.435 9.07446 72.435 9.94328C72.435 10.8121 72.1454 11.4878 71.5662 12.0671ZM67.8978 11.5844C68.284 11.9705 68.8632 12.2601 69.4424 12.2601C70.0216 12.2601 70.6008 12.0671 70.9869 11.5844C71.3731 11.1982 71.6627 10.619 71.6627 9.94328C71.6627 9.26753 71.4696 8.68832 70.9869 8.30218C70.6008 7.91604 70.0216 7.62643 69.4424 7.62643C68.8632 7.62643 68.284 7.8195 67.8978 8.30218C67.5117 8.68832 67.2221 9.26753 67.2221 9.94328C67.2221 10.619 67.4151 11.1982 67.8978 11.5844ZM73.4969 12.8393V7.04722H74.3657L77.1652 11.5844V7.04722H77.9375V12.8393H77.1652L74.1726 8.10911V12.8393H73.4969Z" fill="white" stroke="white" stroke-width="1.18519" stroke-miterlimit="10"/>
<path d="M66.2568 21.335C63.9399 21.335 62.1058 23.0726 62.1058 25.486C62.1058 27.8029 63.9399 29.637 66.2568 29.637C68.5736 29.637 70.4078 27.8994 70.4078 25.486C70.4078 22.9761 68.5736 21.335 66.2568 21.335ZM66.2568 27.8994C65.0018 27.8994 63.9399 26.8375 63.9399 25.3895C63.9399 23.9415 65.0018 22.8796 66.2568 22.8796C67.5117 22.8796 68.5736 23.8449 68.5736 25.3895C68.5736 26.8375 67.5117 27.8994 66.2568 27.8994ZM57.279 21.335C54.9622 21.335 53.128 23.0726 53.128 25.486C53.128 27.8029 54.9622 29.637 57.279 29.637C59.5958 29.637 61.43 27.8994 61.43 25.486C61.43 22.9761 59.5958 21.335 57.279 21.335ZM57.279 27.8994C56.024 27.8994 54.9622 26.8375 54.9622 25.3895C54.9622 23.9415 56.024 22.8796 57.279 22.8796C58.534 22.8796 59.5958 23.8449 59.5958 25.3895C59.5958 26.8375 58.534 27.8994 57.279 27.8994ZM46.5636 22.59V24.3276H50.7146C50.6181 25.293 50.2319 26.0652 49.7493 26.5479C49.17 27.1271 48.2047 27.8029 46.5636 27.8029C43.9571 27.8029 42.0264 25.7756 42.0264 23.1692C42.0264 20.5627 44.0537 18.5355 46.5636 18.5355C47.9151 18.5355 48.977 19.1147 49.7493 19.7904L51.0042 18.5355C49.9423 17.5701 48.5908 16.7979 46.6601 16.7979C43.1849 16.7979 40.1923 19.6939 40.1923 23.1692C40.1923 26.6444 43.1849 29.5405 46.6601 29.5405C48.5908 29.5405 49.9423 28.9613 51.1007 27.7063C52.2592 26.5479 52.6453 24.9068 52.6453 23.6519C52.6453 23.2657 52.6453 22.8796 52.5488 22.59H46.5636ZM90.3906 23.9415C90.0044 22.9761 89.0391 21.335 86.9153 21.335C84.7915 21.335 83.0539 22.9761 83.0539 25.486C83.0539 27.8029 84.7915 29.637 87.1084 29.637C88.9426 29.637 90.101 28.4786 90.4871 27.8029L89.1356 26.8375C88.653 27.5133 88.0737 27.9959 87.1084 27.9959C86.143 27.9959 85.5638 27.6098 85.0811 26.741L90.5837 24.4241L90.3906 23.9415ZM84.7915 25.293C84.7915 23.7484 86.0465 22.8796 86.9153 22.8796C87.5911 22.8796 88.2668 23.2657 88.4599 23.7484L84.7915 25.293ZM80.2544 29.2509H82.0886V17.184H80.2544V29.2509ZM77.3583 22.2038C76.8756 21.7211 76.1034 21.2385 75.138 21.2385C73.1108 21.2385 71.1801 23.0726 71.1801 25.3895C71.1801 27.7063 73.0142 29.444 75.138 29.444C76.1034 29.444 76.8757 28.9613 77.2618 28.4786H77.3583V29.0578C77.3583 30.6024 76.4895 31.4712 75.138 31.4712C74.0761 31.4712 73.3038 30.6989 73.1108 30.0232L71.5662 30.6989C72.0489 31.7608 73.2073 33.1123 75.2346 33.1123C77.3583 33.1123 79.096 31.8573 79.096 28.8648V21.5281H77.3583V22.2038ZM75.2346 27.8994C73.9796 27.8994 72.9177 26.8375 72.9177 25.3895C72.9177 23.9415 73.9796 22.8796 75.2346 22.8796C76.4895 22.8796 77.4549 23.9415 77.4549 25.3895C77.4549 26.8375 76.4895 27.8994 75.2346 27.8994ZM98.7892 17.184H94.4451V29.2509H96.2792V24.7137H98.7892C100.816 24.7137 102.747 23.2657 102.747 20.9489C102.747 18.632 100.816 17.184 98.7892 17.184ZM98.8857 22.9761H96.2792V18.8251H98.8857C100.237 18.8251 101.009 19.9835 101.009 20.8523C100.913 21.9142 100.141 22.9761 98.8857 22.9761ZM109.987 21.2385C108.636 21.2385 107.284 21.8177 106.802 23.0726L108.443 23.7484C108.829 23.0726 109.408 22.8796 110.084 22.8796C111.049 22.8796 111.918 23.4588 112.014 24.4241V24.5207C111.725 24.3276 110.953 24.038 110.18 24.038C108.443 24.038 106.705 25.0033 106.705 26.741C106.705 28.3821 108.153 29.444 109.698 29.444C110.953 29.444 111.532 28.8648 112.014 28.2855H112.111V29.2509H113.849V24.6172C113.656 22.4934 112.014 21.2385 109.987 21.2385ZM109.794 27.8994C109.215 27.8994 108.346 27.6098 108.346 26.8375C108.346 25.8722 109.408 25.5826 110.277 25.5826C111.049 25.5826 111.435 25.7756 111.918 25.9687C111.725 27.1271 110.76 27.8994 109.794 27.8994ZM119.93 21.5281L117.903 26.741H117.807L115.683 21.5281H113.752L116.938 28.8648L115.104 32.9192H116.938L121.861 21.5281H119.93ZM103.712 29.2509H105.547V17.184H103.712V29.2509Z" fill="white"/>
<path d="M10.5557 7.52979C10.2661 7.81939 10.1696 8.30207 10.1696 8.88128V30.2156C10.1696 30.7948 10.3626 31.2775 10.6522 31.5671L10.7488 31.6636L22.7191 19.6932V19.5002L10.5557 7.52979Z" fill="url(#paint0_linear_149_2324)"/>
<path d="M26.5805 23.7485L22.6226 19.7905V19.5009L26.5805 15.543L26.677 15.6395L31.4073 18.3425C32.7588 19.1148 32.7588 20.3697 31.4073 21.142L26.5805 23.7485Z" fill="url(#paint1_linear_149_2324)"/>
<path d="M26.6771 23.6516L22.6226 19.5972L10.5557 31.6641C11.0383 32.1467 11.7141 32.1467 12.5829 31.7606L26.6771 23.6516Z" fill="url(#paint2_linear_149_2324)"/>
<path d="M26.6771 15.5431L12.5829 7.53071C11.7141 7.04804 11.0383 7.14457 10.5557 7.62725L22.6226 19.5976L26.6771 15.5431Z" fill="url(#paint3_linear_149_2324)"/>
<path opacity="0.2" d="M26.5805 23.5552L12.5829 31.4711C11.8106 31.9537 11.1349 31.8572 10.6522 31.4711L10.5557 31.5676L10.6522 31.6641C11.1349 32.0503 11.8106 32.1468 12.5829 31.6641L26.5805 23.5552Z" fill="black"/>
<path opacity="0.12" d="M10.5557 31.471C10.2661 31.1814 10.1696 30.6987 10.1696 30.1195V30.216C10.1696 30.7953 10.3626 31.2779 10.6522 31.5675V31.471H10.5557ZM31.4073 20.8521L26.5805 23.5551L26.6771 23.6516L31.4073 20.9487C32.0831 20.5625 32.3727 20.0798 32.3727 19.5972C32.3727 20.0798 31.9865 20.466 31.4073 20.8521Z" fill="black"/>
<path opacity="0.25" d="M12.5829 7.62706L31.4073 18.3425C31.9865 18.7286 32.3727 19.1148 32.3727 19.5974C32.3727 19.1148 32.0831 18.6321 31.4073 18.2459L12.5829 7.53053C11.2314 6.75824 10.1696 7.33746 10.1696 8.88202V8.97856C10.1696 7.53053 11.2314 6.85478 12.5829 7.62706Z" fill="white"/>
<defs>
<linearGradient id="paint0_linear_149_2324" x1="21.5607" y1="8.69786" x2="5.3592" y2="24.8984" gradientUnits="userSpaceOnUse">
<stop stop-color="#00A0FF"/>
<stop offset="0.007" stop-color="#00A1FF"/>
<stop offset="0.26" stop-color="#00BEFF"/>
<stop offset="0.512" stop-color="#00D2FF"/>
<stop offset="0.76" stop-color="#00DFFF"/>
<stop offset="1" stop-color="#00E3FF"/>
</linearGradient>
<linearGradient id="paint1_linear_149_2324" x1="33.1777" y1="19.5984" x2="9.81909" y2="19.5984" gradientUnits="userSpaceOnUse">
<stop stop-color="#FFE000"/>
<stop offset="0.409" stop-color="#FFBD00"/>
<stop offset="0.775" stop-color="#FFA500"/>
<stop offset="1" stop-color="#FF9C00"/>
</linearGradient>
<linearGradient id="paint2_linear_149_2324" x1="24.4828" y1="21.8136" x2="2.51332" y2="43.7831" gradientUnits="userSpaceOnUse">
<stop stop-color="#FF3A44"/>
<stop offset="1" stop-color="#C31162"/>
</linearGradient>
<linearGradient id="paint3_linear_149_2324" x1="7.56018" y1="0.460474" x2="17.3711" y2="10.2714" gradientUnits="userSpaceOnUse">
<stop stop-color="#32A071"/>
<stop offset="0.069" stop-color="#2DA771"/>
<stop offset="0.476" stop-color="#15CF74"/>
<stop offset="0.801" stop-color="#06E775"/>
<stop offset="1" stop-color="#00F076"/>
</linearGradient>
</defs>
</svg>
