<svg width="50" height="50" viewBox="0 0 50 50" fill="none" xmlns="http://www.w3.org/2000/svg">
<g clip-path="url(#clip0_1889_19181)">
<path d="M48.2422 1.25781H46.1537C45.1845 1.25781 44.396 2.04639 44.396 3.01562V8.71465H43.6031V8.66758C43.6031 7.58125 42.7193 6.69746 41.633 6.69746H38.6535C37.5672 6.69746 36.6834 7.58125 36.6834 8.66758V8.71465H30.3494V8.22988C30.3494 5.49424 28.1238 3.26865 25.3882 3.26865H24.6117C21.8762 3.26865 19.6506 5.49424 19.6506 8.22988V8.71465H13.3165V8.66758C13.3165 7.58125 12.4327 6.69746 11.3464 6.69746H8.36699C7.28066 6.69746 6.39687 7.58125 6.39687 8.66758V8.71465H5.6041V3.01562C5.6041 2.04639 4.81553 1.25781 3.84629 1.25781H1.75781C0.788574 1.25781 0 2.04639 0 3.01562V6.3165C0 6.721 0.32793 7.04893 0.732422 7.04893C1.13691 7.04893 1.46484 6.721 1.46484 6.3165V3.01562C1.46484 2.8541 1.59629 2.72266 1.75781 2.72266H3.84629C4.00781 2.72266 4.13926 2.8541 4.13926 3.01562V15.8795C4.13926 16.041 4.00781 16.1725 3.84629 16.1725H1.75781C1.59629 16.1725 1.46484 16.041 1.46484 15.8795V9.73447C1.46484 9.32998 1.13691 9.00205 0.732422 9.00205C0.32793 9.00205 0 9.32998 0 9.73447V15.8795C0 16.8487 0.788574 17.6373 1.75781 17.6373H3.84629C4.81553 17.6373 5.6041 16.8487 5.6041 15.8795V10.1795H6.44336C6.53975 10.655 6.78174 11.0779 7.12021 11.4007V20.7762C7.12021 21.6847 7.54072 22.4619 8.27383 22.9087C9.12998 23.4304 10.2883 23.4315 11.2975 22.9111C13.3748 21.8368 15.0578 20.7522 16.5692 19.5122C16.7511 19.943 16.9781 20.3555 17.2464 20.7422C17.9297 21.7246 18.316 22.8999 18.3742 24.1587C17.987 23.9916 17.5619 23.8992 17.1184 23.8992C15.5218 23.8992 14.163 25.0933 13.9577 26.6765L13.4537 30.5642C13.2799 31.9048 13.4141 33.2912 13.8415 34.5736C14.0985 35.3449 14.2289 36.1482 14.2289 36.961V41.97L12.404 45.0247C12.1765 45.4054 12.0563 45.8411 12.0563 46.2848C12.0563 47.6395 13.1584 48.7416 14.513 48.7416H18.247C18.9747 48.7416 19.6604 48.422 20.1284 47.8646C20.5964 47.3073 20.7926 46.5767 20.6667 45.8598L20.0077 42.1084V36.961C20.0077 36.2034 20.1225 35.4545 20.346 34.7316C21.1939 35.0611 22.1033 35.233 23.0186 35.233H26.9814C27.8966 35.233 28.806 35.0611 29.654 34.7316C29.8775 35.4544 29.9923 36.2033 29.9923 36.961V42.1084L29.3333 45.8598C29.2074 46.5766 29.4036 47.3073 29.8716 47.8646C30.3396 48.422 31.0252 48.7416 31.753 48.7416H35.487C36.8417 48.7416 37.9438 47.6395 37.9438 46.2848C37.9438 45.8413 37.8235 45.4058 37.596 45.0248L35.771 41.97V40.5602C35.771 40.1558 35.4432 39.8278 35.0386 39.8278C34.634 39.8278 34.3062 40.1558 34.3062 40.5602V41.4396H31.457V36.9609C31.457 35.9903 31.3014 35.0312 30.9944 34.1103C30.6364 33.0363 30.5241 31.8752 30.6696 30.7524L31.1736 26.8647C31.2846 26.0092 32.0187 25.364 32.8815 25.364C33.7443 25.364 34.4786 26.0092 34.5895 26.8647L35.0935 30.7524C35.239 31.8753 35.1267 33.0364 34.7687 34.1104C34.4617 35.0314 34.3062 35.9905 34.3062 36.961V37.1424C34.3062 37.5469 34.634 37.8748 35.0386 37.8748C35.4432 37.8748 35.771 37.5469 35.771 37.1424V36.961C35.771 36.1482 35.9014 35.3449 36.1584 34.5736C36.5858 33.2913 36.7199 31.9048 36.5462 30.5642L36.0422 26.6765C35.8369 25.0932 34.4781 23.8992 32.8816 23.8992C32.4381 23.8992 32.013 23.9917 31.6258 24.1587C31.684 22.8998 32.0703 21.7245 32.7542 20.7414C33.0219 20.3554 33.2487 19.9431 33.4308 19.5121C34.9426 20.7524 36.6254 21.8369 38.7033 22.9114C39.7117 23.4315 40.8701 23.4304 41.7263 22.9087C42.4594 22.4619 42.8798 21.6846 42.8798 20.7762V11.4007C43.2182 11.0778 43.4602 10.655 43.5565 10.1795H44.3959V15.8794C44.3959 16.8486 45.1844 17.6372 46.1536 17.6372H48.2422C49.2114 17.6372 50 16.8486 50 15.8794V3.01562C50 2.04639 49.2114 1.25781 48.2422 1.25781ZM38.6535 8.1623H41.633C41.9116 8.1623 42.1383 8.38897 42.1383 8.66758V9.71572C42.1383 10.1927 41.7503 10.5807 41.2734 10.5807H39.0133C38.5363 10.5807 38.1483 10.1926 38.1483 9.71572V8.66758C38.1483 8.38897 38.375 8.1623 38.6535 8.1623ZM36.73 10.1795C36.8895 10.9657 37.4462 11.6091 38.1807 11.8912V14.0898C37.4155 13.1691 36.4876 12.4443 35.3743 11.894C34.5462 11.4848 33.5947 11.2685 32.623 11.2685H30.2938C30.3293 11.0331 30.3495 10.785 30.3495 10.5221V10.1796L36.73 10.1795ZM31.1967 20.4681C30.5122 21.6632 30.1523 23.0411 30.1523 24.493V24.5892C29.0021 24.974 28.0544 25.7857 27.5015 26.8824C27.3961 27.091 27.186 27.2205 26.9531 27.2205H23.0469C22.814 27.2205 22.6038 27.0909 22.4987 26.883C21.9457 25.7857 20.9979 24.974 19.8477 24.5892V24.493C19.8477 23.0409 19.4877 21.6629 18.8033 20.4681C19.6035 18.2256 19.6285 15.4632 19.4778 12.7332H20.1877C20.3981 13.141 20.6681 13.5186 20.9896 13.8546C20.9116 14.3021 20.872 14.7646 20.872 15.2352C20.872 18.4726 22.6852 21.0086 24.9999 21.0086C27.3146 21.0086 29.1278 18.4726 29.1278 15.2352C29.1278 14.7615 29.0876 14.2959 29.0085 13.8456C29.2913 13.5437 29.5771 13.1764 29.8121 12.7333H30.5219C30.3715 15.4632 30.3965 18.2256 31.1967 20.4681ZM24.3796 15.7565H25.6204C26.3606 15.7565 27.0768 15.5091 27.6582 15.0571C27.6598 15.1165 27.6631 15.1754 27.6631 15.2352C27.6631 17.5707 26.4436 19.5437 25 19.5437C23.5564 19.5437 22.3369 17.5706 22.3369 15.2352C22.3369 15.1754 22.3402 15.1164 22.3418 15.057C22.9232 15.509 23.6394 15.7565 24.3796 15.7565ZM21.1154 8.22988C21.1154 6.30195 22.6839 4.7335 24.6117 4.7335H25.3882C27.316 4.7335 28.8846 6.30195 28.8846 8.22988V10.522C28.8846 11.8338 28.2233 12.6735 27.2192 13.4977C27.0547 13.6326 26.9205 13.7429 26.8132 13.8578C26.4791 14.1379 26.0572 14.2917 25.6203 14.2917H24.3795C23.9295 14.2917 23.4952 14.1284 23.1566 13.832L22.261 13.0478C21.5329 12.4103 21.1154 11.4896 21.1154 10.522V8.22988ZM19.7093 11.2684H17.3818C16.3685 11.2684 15.3638 11.5106 14.4758 11.9694C13.4278 12.5119 12.549 13.2121 11.8192 14.0898V11.8912C12.5537 11.6092 13.1105 10.9657 13.27 10.1795H19.6506V10.522C19.6506 10.7737 19.6709 11.023 19.7093 11.2684ZM7.86162 8.66758C7.86162 8.38897 8.08828 8.1623 8.36689 8.1623H11.3463C11.6249 8.1623 11.8516 8.38897 11.8516 8.66758V9.71572C11.8516 10.1927 11.4636 10.5807 10.9866 10.5807H8.72666C8.24971 10.5807 7.86172 10.1926 7.86172 9.71572L7.86162 8.66758ZM16.9755 17.9608C16.579 17.856 16.1546 17.9504 15.8398 18.2141C14.3581 19.4571 12.701 20.5361 10.6253 21.6097C10.0764 21.8928 9.45264 21.9117 9.03613 21.6579C8.73691 21.4755 8.58506 21.1789 8.58506 20.7763V12.041C8.63193 12.0438 8.6791 12.0457 8.72676 12.0457H10.3546V15.7645C10.3546 16.2862 10.7774 16.7112 11.3015 16.7112C11.6396 16.7112 11.9604 16.5298 12.1312 16.2235C12.864 14.9083 13.8513 13.9423 15.1488 13.2707C15.8294 12.9191 16.6016 12.7333 17.382 12.7333H18.0124C18.1039 14.2814 18.1823 16.6022 17.7857 18.6222C17.6238 18.2977 17.3297 18.0545 16.9755 17.9608ZM14.9064 30.7526L15.4104 26.8649C15.5214 26.0094 16.2556 25.3642 17.1184 25.3642C17.9811 25.3642 18.7153 26.0094 18.8263 26.8649L19.3303 30.7526C19.4758 31.8755 19.3635 33.0366 19.0055 34.1106C18.6985 35.0316 18.5429 35.9906 18.5429 36.9612V41.4399H15.6937V36.9612C15.6937 35.9906 15.5381 35.0315 15.2312 34.1106C14.8731 33.0364 14.7608 31.8753 14.9064 30.7526ZM19.0066 46.9228C18.8177 47.1479 18.5408 47.277 18.247 47.277H14.513C13.966 47.277 13.5211 46.8319 13.5211 46.285C13.5211 46.1059 13.5696 45.93 13.6615 45.7763L15.377 42.9048H18.6604L19.224 46.1134C19.2749 46.4027 19.1956 46.6978 19.0066 46.9228ZM23.0186 33.7684C22.2269 33.7684 21.4409 33.6081 20.7169 33.3019C20.8767 32.3993 20.9006 31.4714 20.783 30.5643C20.783 30.5643 20.252 26.5016 20.2336 26.4159C20.6325 26.7058 20.9618 27.0882 21.1911 27.5431C21.5472 28.2477 22.2584 28.6854 23.047 28.6854H26.9532C27.7419 28.6854 28.4529 28.2477 28.8094 27.5424C29.0385 27.0879 29.3678 26.7057 29.7666 26.4159C29.7481 26.5016 29.7326 26.5884 29.7212 26.6766L29.2172 30.5644C29.0996 31.4714 29.1235 32.3993 29.2833 33.3019C28.5592 33.6081 27.7732 33.7684 26.9816 33.7684H23.0186ZM34.623 42.9048L36.3385 45.7762C36.4304 45.93 36.4789 46.106 36.4789 46.285C36.4789 46.8319 36.0339 47.277 35.487 47.277H31.7529C31.4591 47.277 31.1822 47.1479 30.9934 46.9229C30.8045 46.6979 30.7252 46.4028 30.776 46.1135L31.3396 42.9049H34.623V42.9048ZM41.415 20.7762C41.415 21.1788 41.2633 21.4755 40.964 21.6578C40.5477 21.9116 39.9238 21.8927 39.3755 21.61C37.299 20.5361 35.6419 19.4571 34.1597 18.2136C33.8454 17.9505 33.4209 17.8561 33.0246 17.9608C32.6701 18.0545 32.3759 18.2979 32.2145 18.622C31.818 16.602 31.8963 14.2813 31.9878 12.7333H32.623C33.3709 12.7333 34.0979 12.8972 34.7252 13.2072C36.0834 13.8787 37.1118 14.8654 37.8691 16.2239C38.0398 16.5299 38.3605 16.7113 38.6986 16.7113C39.2224 16.7113 39.6454 16.2864 39.6454 15.7646V12.0458C39.6454 12.0458 41.3681 12.0439 41.4149 12.0411V20.7762H41.415ZM48.5352 15.8794C48.5352 16.0409 48.4037 16.1724 48.2422 16.1724H46.1537C45.9923 16.1724 45.8608 16.0409 45.8608 15.8794V3.01562C45.8608 2.8541 45.9923 2.72266 46.1537 2.72266H48.2422C48.4037 2.72266 48.5352 2.8541 48.5352 3.01562V15.8794Z" fill="white"/>
</g>
<defs>
<clipPath id="clip0_1889_19181">
<rect width="50" height="50" fill="white"/>
</clipPath>
</defs>
</svg>
