<svg width="93" height="65" viewBox="0 0 93 65" fill="none" xmlns="http://www.w3.org/2000/svg">
<path d="M24.3451 19.7771C23.9587 19.8419 23.7011 20.1662 23.3791 20.4255C19.1928 23.9271 15.0709 27.4934 10.949 30.9949C10.4982 31.3191 10.0473 31.6434 9.59651 31.9676C9.33889 32.0973 9.01687 32.2269 8.75925 32.2918C8.63044 32.3566 8.43723 32.2918 8.43723 32.0973C8.43723 32.0324 8.43723 31.9027 8.50163 31.8379C8.75925 31.5785 9.08127 31.2543 9.40329 31.0598C11.0134 29.7629 12.6879 28.4012 14.298 27.1044C16.1014 25.613 17.9691 24.1216 19.708 22.5653C22.4774 20.1662 25.3112 17.8318 27.9518 15.2381C28.2738 14.9139 28.5958 14.46 28.9178 14.0709C29.4331 13.4225 29.8839 12.6444 30.4635 11.9959C32.2669 9.79129 34.0702 7.58663 35.8091 5.25228C37.0328 3.63121 38.4497 2.20466 39.8022 0.713273C40.0598 0.389058 40.3818 0.129686 40.7683 0C40.8971 0 41.0903 0 41.2835 0.129686C41.4767 0.259372 41.4767 0.518744 41.4123 0.64843C41.1547 1.10233 40.8971 1.55623 40.6394 1.94529C37.548 6.22492 34.199 10.31 30.3991 14.0061C29.1111 15.3029 27.8874 16.5998 26.7925 18.0263C24.2807 21.3333 21.8333 24.6403 19.3216 27.9473C18.4199 29.1793 17.4538 30.3465 16.5522 31.5137C16.2302 31.9676 15.9081 32.4215 15.5861 32.8754C15.3285 33.3293 15.4573 33.6535 15.9725 33.7183C16.1014 33.7183 16.1658 33.7832 16.2946 33.7832C17.9047 33.848 19.5148 33.9129 21.1249 33.9777C22.091 33.9777 22.8638 33.7183 23.5079 32.9402C23.9587 32.3566 24.5383 31.8379 25.0536 31.2543C27.7586 28.2715 30.4635 25.2888 33.1685 22.3708C34.6498 20.8146 36.2599 19.3232 37.6768 17.767C39.287 16.0162 40.9615 14.2655 42.636 12.5147C43.9885 11.153 45.341 9.79129 46.6291 8.42958C46.9511 8.10537 47.2087 7.71631 47.5307 7.3921C47.7883 7.06788 48.046 6.80851 48.368 6.4843C48.6256 6.22492 49.012 6.22492 49.2052 6.41945C49.3984 6.67882 49.334 6.87335 49.2052 7.13273C49.012 7.3921 48.8188 7.65147 48.6256 7.846C47.5951 9.01317 46.5647 10.1803 45.5342 11.3475C43.9885 13.228 42.4428 15.0436 40.9615 16.9889C39.0293 19.5826 37.0972 22.306 35.2939 24.9645C33.877 27.0395 32.5245 29.1793 31.172 31.3191C31.1076 31.384 31.0432 31.5137 31.0432 31.5785C30.5924 32.4215 30.7212 32.6809 31.6228 32.6809C31.9448 32.6809 32.3313 32.6809 32.6533 32.616C34.7786 32.2269 36.9684 32.227 39.0937 32.3566C40.4462 32.4215 41.7987 32.5512 43.1512 32.6809C43.4732 32.6809 43.7309 32.8105 44.0529 32.8754C44.7613 33.0699 45.4698 33.3293 46.2426 33.2644C46.8223 33.1996 47.3375 33.3941 47.6595 33.9129C47.9171 34.3019 48.2392 34.4316 48.69 34.3019C49.7849 33.9777 50.9442 33.7183 52.039 33.3941C53.4559 32.9402 54.8728 32.4215 56.2897 31.9676C57.3202 31.6434 58.4151 31.4488 59.5099 31.2543C60.0252 31.1895 60.476 30.9949 60.8624 30.6059C61.6353 29.8926 62.4725 29.2442 63.2454 28.5957C64.1471 27.8825 65.0487 27.1044 65.9504 26.4559C68.4622 24.5106 70.9095 22.5005 73.4213 20.6849C76.7059 18.2209 79.9906 15.7568 83.404 13.4225C86.2378 11.542 89.0072 9.53191 91.6478 7.32725C91.9054 7.13273 92.0986 6.9382 92.4206 6.87335C92.6138 6.80851 92.807 6.9382 92.9358 7.13273C93.0003 7.26241 93.0003 7.45694 92.9358 7.58663C92.8714 7.78115 92.6782 7.91084 92.5494 8.04053C90.4241 9.79129 88.5563 11.8663 86.753 14.0061C85.1429 15.8865 83.5328 17.8318 81.9227 19.7771C79.5397 22.5005 77.4144 25.4184 75.1602 28.2715C74.4518 29.1793 73.8077 30.152 73.5501 31.3191C73.4857 31.5785 73.4213 31.8379 73.4213 32.0324C73.4213 32.3566 73.4857 32.616 73.8077 32.7457C74.0653 32.8754 74.3874 32.9402 74.645 33.0699C75.0314 33.2644 75.0958 33.7183 74.7738 34.1074C74.323 34.5613 73.6789 34.7558 73.1637 34.4316C71.94 33.6535 70.6519 33.5887 69.2994 33.5238C67.3673 33.459 65.4996 33.7183 63.6318 33.7832C63.181 33.7832 62.7302 33.848 62.2793 33.848C61.5709 33.848 61.0557 33.7183 60.7336 32.9402C60.5404 32.4863 60.2828 32.4863 59.8964 32.8105C59.1235 33.5238 58.2863 34.1722 57.5134 34.8855C56.3541 35.9878 55.1948 37.0902 54.0356 38.2573C53.9068 38.387 53.7135 38.6464 53.778 38.7761C53.8424 39.0355 54.1644 39.1003 54.422 39.1003C56.0965 39.23 57.7066 39.3597 59.3811 39.4894C60.6048 39.619 61.8929 39.6839 63.1166 39.8136C64.5335 40.0081 65.9504 40.3972 67.3673 40.6565C69.6214 41.0456 71.7468 41.694 73.9365 42.2776C74.7738 42.4721 75.5466 42.7963 76.3195 43.2503C76.8991 43.6393 76.8347 44.2877 76.1907 44.5471C75.6755 44.8065 75.1602 44.8713 74.5806 44.8713C71.296 44.8065 67.9469 44.6768 64.6623 44.612C64.0183 44.612 63.3742 44.612 62.7302 44.612C61.6353 44.6768 60.5404 44.6768 59.4455 44.4823C57.7066 44.2229 55.9677 44.612 54.2288 44.7416C52.7475 44.8713 51.2662 45.0659 49.7205 45.1955C49.3984 45.1955 49.1408 45.2604 48.8188 45.2604C47.6595 45.3252 46.6935 45.7143 45.8562 46.6869C43.0868 49.7345 40.4462 52.9118 37.9989 56.2188C37.226 57.2563 36.3888 58.2938 35.6159 59.3313C35.1651 59.9797 34.6498 60.6282 34.199 61.2766C34.0702 61.536 33.7482 61.7953 34.0058 62.0547C34.199 62.2492 34.4566 61.9899 34.7142 61.8602C34.9075 61.7953 35.1007 61.7953 35.2295 61.9899C35.3583 62.1844 35.3583 62.3789 35.2295 62.5735C34.843 63.0922 34.4566 63.4813 33.877 63.8055C33.6838 63.9352 33.4261 64 33.1685 64.0648C32.7177 64.1297 32.3957 64 32.1381 63.6109C31.9448 63.3516 32.0093 63.0274 32.1381 62.768C32.4601 62.1196 32.8465 61.4063 33.2329 60.8227C33.9414 59.7852 34.6498 58.7477 35.4227 57.7751C36.8396 55.8946 38.2565 54.0142 39.7378 52.1986C41.1547 50.5127 42.636 48.8267 44.0529 47.2057C44.2461 47.0111 44.3749 46.8166 44.5037 46.6221C44.6969 46.2979 44.5681 45.9737 44.2461 45.9737C43.6665 45.9737 43.0224 45.9088 42.4428 46.0385C41.5411 46.233 40.575 46.233 39.6734 46.6221C39.4158 46.6869 39.1581 46.7518 38.9649 46.7518C37.2904 46.8815 35.5515 47.0111 33.877 47.1408C33.555 47.1408 33.1685 47.1408 32.8465 47.0111C32.5245 46.9463 32.2669 46.7518 32.2669 46.3627C32.2669 46.0385 32.5245 45.844 32.7821 45.7143C33.1041 45.5846 33.4906 45.5846 33.8126 45.5846C34.843 45.5846 35.9379 45.5846 36.9684 45.5846C37.6124 45.5846 38.2565 45.5198 38.9005 45.4549C40.7683 45.2604 42.7004 45.0659 44.5681 44.8713C44.9545 44.8065 45.341 44.7416 45.7274 44.7416C46.1138 44.6768 46.5002 44.4823 46.7579 44.2229C47.9171 43.0557 49.0764 41.8237 50.2357 40.6565C50.3645 40.5268 50.4933 40.3323 50.4289 40.1378C50.3001 39.9433 50.1069 39.9433 49.9137 39.9433C47.8527 39.8136 45.7918 39.7487 43.7953 39.619C41.9275 39.5542 40.1242 39.4245 38.2565 39.619C38.0633 39.619 37.8701 39.619 37.8056 39.3597C37.8056 39.1651 37.8701 38.9706 38.0633 38.8409C38.4497 38.5167 38.9649 38.4519 39.4802 38.4519C40.5106 38.4519 41.6055 38.5167 42.636 38.5816C45.4054 38.7112 48.1104 38.7761 50.8797 38.9706C51.717 39.0355 52.361 38.8409 52.9407 38.2573C53.9712 37.2199 55.066 36.2472 56.0965 35.2097C56.805 34.4965 57.5778 33.848 58.2863 33.1348C58.3507 33.0699 58.3507 32.9402 58.3507 32.8754C58.3507 32.8105 58.1574 32.7457 58.093 32.7457C56.7406 33.1348 55.3881 33.3293 54.1 33.9129C52.4255 34.691 50.6221 35.2097 48.8188 35.5988C47.5951 35.8582 46.4358 35.7285 45.4698 34.8207C45.1478 34.5613 44.8257 34.3668 44.4393 34.2371C43.602 34.0426 42.7648 33.848 41.9275 33.7183C39.8022 33.5238 37.6124 33.3293 35.4871 33.459C33.9414 33.5238 32.3957 33.7183 30.85 33.7832C30.2059 33.848 29.6907 34.1722 29.3687 34.691C28.8534 35.5339 28.4026 36.4417 27.9518 37.3495C27.823 37.5441 27.823 37.7386 27.9518 37.9331C28.0806 38.1277 28.145 38.2573 28.2738 38.4519C29.5619 40.3323 29.3687 42.2776 28.5958 44.3526C28.0806 45.6494 27.5653 46.8815 26.8569 47.9838C26.4705 48.5674 26.0196 49.151 25.5044 49.6049C25.1824 49.8642 24.8604 50.0588 24.4095 50.0588C23.8943 50.0588 23.4435 49.7994 23.2502 49.2806C23.057 48.7619 22.9926 48.2432 23.1214 47.6596C23.3791 46.4276 23.6367 45.1955 24.0875 44.0284C24.796 42.2128 25.44 40.3323 26.3417 38.5816C26.5993 38.0628 26.4705 37.7386 26.1484 37.3495C25.44 36.5714 24.5383 36.0527 23.5079 35.7285C22.9926 35.5339 22.5418 35.5988 22.1554 36.0527C21.0605 37.2847 19.9656 38.5167 18.8063 39.7487C15.7793 43.0557 12.8167 46.4276 9.59651 49.4752C7.72878 51.2259 5.92545 53.0415 4.05772 54.7923C3.60689 55.2462 3.02725 55.5704 2.51202 55.9595C2.2544 56.154 1.86797 56.2837 1.54595 56.3485C0.64429 56.5431 0.0646498 55.8946 0.257863 55.0517C0.322268 54.5978 0.515481 54.2087 0.773099 53.8197C3.22047 49.54 5.86105 45.3901 8.75925 41.3698C9.66091 40.1378 10.4982 38.9058 11.3998 37.6738C11.6574 37.2847 11.9151 36.9605 12.0439 36.5066C11.9151 36.0527 11.3998 36.1175 11.0778 35.8582C10.8202 35.6636 10.627 35.4691 10.627 35.1449C10.6914 34.8207 10.8846 34.6261 11.2066 34.4965C11.4642 34.4316 11.6574 34.3019 11.9151 34.3019C12.2371 34.2371 12.4947 34.2371 12.8167 34.2371C13.654 34.2371 14.1692 33.848 14.6201 33.1348C15.5861 31.7082 16.7454 30.4762 17.7115 29.0496C18.9996 27.234 20.4165 25.5481 21.7689 23.7974C22.6706 22.6302 23.5079 21.463 24.4095 20.2958C24.2807 20.1013 24.4095 19.9716 24.3451 19.7771ZM33.3617 9.72644C33.4906 9.59676 33.555 9.53191 33.6838 9.40223C33.8126 9.27254 33.877 9.2077 34.0058 9.07801C34.843 8.23506 35.6159 7.32725 36.4532 6.4843C37.0972 5.83587 37.548 5.12259 37.8701 4.21479C37.9989 4.08511 38.1277 4.02026 38.1921 3.89058C38.0633 4.02026 37.9345 4.08511 37.8701 4.21479C37.8056 4.27963 37.6768 4.27963 37.6124 4.34448C36.3243 5.64134 35.2295 7.00304 34.199 8.49443C34.0702 8.62411 34.0702 8.88348 34.0058 9.01317C33.877 9.07801 33.8126 9.2077 33.6838 9.33739C33.555 9.46707 33.4261 9.59676 33.3617 9.72644ZM40.575 16.0811C40.4462 16.2107 40.3818 16.2756 40.253 16.4053C39.4802 17.1834 38.6429 17.8967 37.8701 18.6748C36.3888 20.231 34.9075 21.7872 33.4261 23.4083C32.1381 24.77 30.9144 26.1317 29.6263 27.4934C28.0806 29.1793 26.5349 30.9301 24.9892 32.616C24.8604 32.7457 24.6671 32.9402 24.7316 33.1348C24.796 33.3941 25.0536 33.3293 25.2468 33.3293C26.4061 33.1996 27.5009 33.1348 28.6602 32.9402C29.0466 32.8754 29.3043 32.6809 29.4975 32.3566C29.6907 32.0324 29.9483 31.7082 30.2059 31.384C30.9788 30.152 31.6872 28.92 32.5245 27.6879C34.843 24.1864 37.2904 20.7497 39.8022 17.3131C39.9954 17.0537 40.253 16.7943 40.253 16.4053C40.3174 16.2756 40.4462 16.1459 40.575 16.0811C40.6394 15.9514 40.7683 15.8217 40.8327 15.7568C40.7683 15.8217 40.7038 15.9514 40.575 16.0811ZM87.7835 11.542C87.2683 11.542 86.8818 11.8663 86.431 12.1905C84.7565 13.3576 83.082 14.5897 81.4075 15.7568C78.4448 17.8967 75.4822 20.0365 72.584 22.306C69.6214 24.5755 66.6588 26.9747 63.7606 29.309C63.0522 29.8278 62.4725 30.4762 61.8285 30.9949C61.8929 31.5137 62.3437 31.5785 62.4725 31.9027C62.7302 32.5512 63.181 32.6809 63.825 32.616C64.2115 32.5512 64.5979 32.5512 65.0487 32.4863C67.3673 32.3566 69.6214 32.0973 71.94 32.4863C72.3264 32.5512 72.5196 32.3566 72.584 32.0324C72.7773 30.8004 73.2281 29.5684 73.9365 28.5309C75.2246 26.7153 76.5771 24.8997 77.994 23.1489C80.5058 20.0365 83.1464 16.9889 85.7225 13.9412C86.3666 13.1631 87.075 12.3202 87.7835 11.542ZM20.2232 35.4043C19.9656 35.4043 19.708 35.4691 19.4504 35.4691C17.7115 35.8582 15.9081 36.1175 14.1048 36.0527C13.4608 36.0527 13.0099 36.3769 12.6235 36.8956C11.9795 37.8683 11.271 38.9058 10.5626 39.8784C7.72878 43.769 5.217 47.8541 2.76964 51.9392C2.31881 52.7173 1.93238 53.4954 1.48155 54.3384C1.41714 54.5329 1.35274 54.7275 1.61036 54.8571C1.73917 54.922 1.93238 54.922 1.99678 54.8571C2.70523 54.3384 3.41368 53.8845 3.99332 53.3009C6.76271 50.5775 9.72532 47.9838 12.3659 45.1307C14.9421 42.3424 17.4538 39.619 20.03 36.8308C20.2232 36.6363 20.352 36.4417 20.4809 36.2472C20.6097 36.0527 20.6741 35.8582 20.5453 35.6636C20.5453 35.4691 20.352 35.4691 20.2232 35.4043ZM59.7032 40.7214C59.5743 40.5268 59.3811 40.462 59.1879 40.3972C57.0626 40.2026 54.9372 39.9433 52.7475 39.9433C52.2322 39.9433 51.9102 40.1378 51.5238 40.462C50.3645 41.4347 49.4628 42.6667 48.4324 43.7042C48.368 43.769 48.368 43.8987 48.368 43.9635C48.4324 44.1581 48.5612 44.1581 48.69 44.2229C48.8188 44.2229 49.012 44.2229 49.1408 44.2229C52.1678 43.9635 55.1948 43.6393 58.2219 43.3799C58.9947 43.3151 59.7032 43.3151 60.476 43.3799C61.3133 43.5096 62.1505 43.6393 62.9878 43.5745C65.8216 43.4448 68.7198 43.5745 71.5536 43.6393C72.262 43.6393 72.9061 43.8338 73.6145 43.5096C73.1637 42.7315 72.3264 42.7963 71.6824 42.6018C69.6214 42.0831 67.4961 41.7589 65.3708 41.305C64.9199 41.2401 64.4691 41.1753 64.0183 41.1753C63.3742 41.1104 62.7302 41.2401 62.2149 41.694C62.0861 41.8237 61.8929 41.8886 61.6997 42.0182C61.2489 42.4073 60.7336 42.537 60.2184 42.6667C59.832 42.7964 59.5099 42.7315 59.2523 42.4721C58.9947 42.1479 59.0591 41.8237 59.2523 41.4995C59.4455 41.2401 59.7676 41.0456 59.7032 40.7214ZM28.0806 41.1104C28.0162 40.7214 27.8874 40.1378 27.6942 39.4894C27.6297 39.2948 27.5009 39.1651 27.2433 39.1003C26.9857 39.1003 26.8569 39.23 26.7925 39.4245C26.4061 40.0729 26.1484 40.7862 25.8908 41.4995C25.2468 43.1854 24.6671 44.9362 24.2807 46.6869C24.1519 47.1408 24.0875 47.5299 24.2807 47.9838C24.4095 48.3728 24.8604 48.5025 25.118 48.1783C25.3756 47.9189 25.5688 47.6596 25.762 47.3354C26.1484 46.6869 26.4705 46.0385 26.9213 45.3901C27.6942 44.1581 27.9518 42.7964 28.0806 41.1104ZM23.7655 34.8855C24.6671 35.4691 25.3112 36.0527 26.084 36.3769C26.9857 36.766 26.9857 36.8308 27.4365 35.9878C27.6297 35.5988 27.823 35.2097 28.0162 34.7558C28.0806 34.5613 27.9518 34.3019 27.7586 34.3019C26.4705 34.1722 25.1824 34.3019 23.7655 34.8855Z" fill="#110C2D"/>
</svg>
