<svg width="24" height="24" viewBox="0 0 24 24" fill="none" xmlns="http://www.w3.org/2000/svg">
<path d="M23.086 6.64735L13.3472 2.47348C12.491 2.10656 11.5085 2.10685 10.6512 2.4742L0.914527 6.64711C0.350448 6.8888 0 7.42017 0 8.03382C0 8.64712 0.350209 9.17821 0.913952 9.4198L2.0649 9.9131C2.06371 9.92498 2.06309 9.93705 2.06309 9.94921V15.3958C1.6182 15.546 1.29687 15.9671 1.29687 16.462C1.29687 16.749 1.405 17.0111 1.58243 17.2101C1.38618 17.4025 1.25588 17.6633 1.22896 17.9588L0.953221 20.9922C0.934401 21.1994 1.00408 21.4063 1.14434 21.5599C1.28461 21.7135 1.4844 21.8016 1.69243 21.8016H3.15202C3.36005 21.8016 3.55984 21.7135 3.70011 21.5599C3.84042 21.4063 3.91005 21.1993 3.89123 20.9922L3.61549 17.9588C3.58862 17.6633 3.45827 17.4025 3.26202 17.2101C3.43945 17.0111 3.54758 16.749 3.54758 16.462C3.54758 15.9671 3.22625 15.5461 2.78137 15.3958V10.2202L4.74661 11.0624C4.74542 11.0743 4.74479 11.0863 4.74479 11.0985V13.8407C4.74479 14.9852 5.52844 16.044 6.95145 16.8221C8.30583 17.5626 10.0988 17.9705 11.9999 17.9705C13.901 17.9705 15.694 17.5626 17.0484 16.8221C18.4713 16.044 19.255 14.9852 19.255 13.8407V11.0985C19.255 11.0863 19.2544 11.0743 19.2532 11.0625L23.0854 9.42009C23.6495 9.17835 24 8.64693 24 8.03334C24 7.42003 23.6498 6.88894 23.086 6.64735ZM3.16969 21.0755C3.16261 21.0833 3.1549 21.0833 3.15202 21.0833H1.69243C1.68951 21.0833 1.68184 21.0833 1.67476 21.0755C1.66762 21.0677 1.66834 21.0601 1.66858 21.0572L1.94432 18.0238C1.96697 17.7751 2.17241 17.5874 2.42225 17.5874C2.67204 17.5874 2.87748 17.7751 2.90013 18.0238L3.17587 21.0571C3.17616 21.0601 3.17683 21.0677 3.16969 21.0755ZM2.42225 16.8691C2.1978 16.8691 2.0152 16.6865 2.0152 16.462C2.0152 16.2376 2.1978 16.055 2.42225 16.055C2.6467 16.055 2.8293 16.2376 2.8293 16.462C2.8293 16.6865 2.6467 16.8691 2.42225 16.8691ZM18.5367 12.3083C18.5367 13.2371 17.7723 14.1439 16.4396 14.7962C16.2614 14.8834 16.1877 15.0985 16.2749 15.2766C16.3372 15.404 16.4649 15.478 16.5977 15.478C16.6507 15.478 16.7045 15.4662 16.7554 15.4413C17.4946 15.0795 18.0869 14.6387 18.5092 14.1487C18.3745 14.9061 17.7456 15.6222 16.7038 16.1919C15.4533 16.8757 13.7828 17.2522 12 17.2522C10.2172 17.2522 8.54671 16.8757 7.29615 16.1919C6.25817 15.6243 5.62987 14.9112 5.49214 14.1568C5.85519 14.5753 6.34504 14.9581 6.9515 15.2897C8.30588 16.0302 10.0988 16.4381 12 16.4381C12.5318 16.4381 13.0623 16.4057 13.5766 16.3419C13.7735 16.3175 13.9132 16.1382 13.8888 15.9413C13.8644 15.7444 13.6853 15.6046 13.4882 15.6291C13.0031 15.6893 12.5024 15.7198 12 15.7198C10.2172 15.7198 8.54666 15.3432 7.2961 14.6594C6.11412 14.0131 5.46317 13.1782 5.46317 12.3083V11.3695L10.6528 13.5937C11.0806 13.7771 11.5399 13.8687 11.9995 13.8687C12.4596 13.8687 12.9199 13.7768 13.3488 13.593L18.5367 11.3696V12.3083ZM22.8025 8.75985L13.0658 12.9327C12.3884 13.223 11.6121 13.2233 10.9357 12.9334L3.49433 9.7442L10.3126 8.55839C10.6193 8.92133 11.2443 9.159 12 9.159C13.0784 9.159 13.8915 8.67519 13.8915 8.03362C13.8915 7.39206 13.0784 6.90824 12 6.90824C11.0205 6.90824 10.26 7.30735 10.1286 7.86123L2.36071 9.21216C2.33792 9.21614 2.31613 9.22231 2.29525 9.23021L1.19697 8.75947C0.897239 8.63113 0.718328 8.35979 0.718328 8.03382C0.718328 7.7075 0.897479 7.43588 1.1975 7.3073L10.9342 3.13439C11.2732 2.98914 11.6369 2.9165 12.0005 2.9165C12.3635 2.9165 12.7264 2.9889 13.0643 3.13367L22.8031 7.30754C23.1028 7.43598 23.2817 7.70731 23.2817 8.03329C23.2817 8.3597 23.1025 8.63127 22.8025 8.75985ZM10.8267 8.03367C10.8267 7.92904 11.2301 7.62662 12 7.62662C12.7698 7.62662 13.1732 7.92904 13.1732 8.03367C13.1732 8.13831 12.7698 8.44072 12 8.44072C11.2301 8.44072 10.8267 8.13826 10.8267 8.03367Z" fill="#553CDF"/>
<path d="M14.6812 16.1423C14.708 16.1423 14.7352 16.1393 14.7624 16.133C15.0334 16.0704 15.3004 15.9977 15.556 15.9168C15.7451 15.857 15.85 15.6552 15.7901 15.4661C15.7303 15.277 15.5286 15.1721 15.3394 15.2319C15.1018 15.3071 14.8533 15.3747 14.6007 15.4331C14.4074 15.4777 14.2869 15.6706 14.3316 15.8639C14.37 16.03 14.5177 16.1423 14.6812 16.1423Z" fill="#553CDF"/>
</svg>
