<svg width="60" height="60" viewBox="0 0 60 60" fill="none" xmlns="http://www.w3.org/2000/svg">
<rect width="60" height="60" fill="url(#paint0_linear_315_957)"/>
<g clip-path="url(#clip0_315_957)">
<path d="M46.844 31.1793C46.5857 34.9198 45.0734 38.4794 42.5705 41.2706L44.237 41.1369C44.5816 41.1094 44.8824 41.3658 44.91 41.7098C44.9377 42.0539 44.6811 42.3552 44.337 42.3828L41.0187 42.6491C41.002 42.6505 40.9852 42.6512 40.9686 42.6512C40.8035 42.6512 40.6444 42.5858 40.5267 42.4681C40.3972 42.3386 40.331 42.1588 40.3457 41.9762L40.612 38.6579C40.6395 38.3138 40.941 38.0567 41.2849 38.0849C41.629 38.1125 41.8855 38.4138 41.8579 38.7579L41.7314 40.3343C43.9947 37.7654 45.3609 34.5105 45.597 31.0932C45.6207 30.7488 45.9191 30.488 46.2635 30.5127C46.6079 30.5365 46.8677 30.835 46.844 31.1793ZM13.7365 29.4873C13.7512 29.4884 13.7657 29.4889 13.7802 29.4889C14.1058 29.4889 14.3803 29.2366 14.4031 28.907C14.6391 25.4896 16.0054 22.2348 18.2687 19.6659L18.1422 21.2422C18.1145 21.5862 18.3711 21.8876 18.7152 21.9152C18.7322 21.9166 18.7491 21.9172 18.7658 21.9172C19.0883 21.9172 19.3619 21.6692 19.3881 21.3421L19.6543 18.0238C19.669 17.8412 19.6027 17.6613 19.4733 17.5319C19.3438 17.4024 19.1635 17.3359 18.9814 17.3509L15.663 17.6171C15.319 17.6447 15.0624 17.946 15.0901 18.2901C15.1177 18.6341 15.4191 18.8909 15.763 18.863L17.4297 18.7294C14.9266 21.5205 13.4144 25.0801 13.156 28.8207C13.1323 29.1651 13.3921 29.4635 13.7365 29.4873ZM28.9069 45.597C25.4895 45.361 22.2347 43.9948 19.6657 41.7315L21.2421 41.858C21.5859 41.886 21.8875 41.6291 21.9151 41.285C21.9427 40.9409 21.6862 40.6396 21.3421 40.612L18.0238 40.3459C17.8412 40.331 17.6613 40.3974 17.5319 40.5269C17.4023 40.6564 17.3362 40.8362 17.3509 41.0188L17.6172 44.3372C17.6434 44.6643 17.917 44.9122 18.2395 44.9122C18.2562 44.9122 18.2731 44.9115 18.2902 44.9102C18.6342 44.8826 18.8908 44.5812 18.8631 44.2372L18.7294 42.5706C21.5206 45.0736 25.0802 46.5859 28.8208 46.8441C28.8355 46.8452 28.85 46.8457 28.8645 46.8457C29.1901 46.8457 29.4646 46.5934 29.4874 46.2637C29.5111 45.9192 29.2512 45.6208 28.9069 45.597ZM31.0932 14.403C34.5105 14.6391 37.7654 16.0053 40.3342 18.2686L38.7579 18.1421C38.4142 18.114 38.1125 18.371 38.0849 18.7151C38.0573 19.0591 38.3138 19.3605 38.6579 19.388L41.9762 19.6542C41.993 19.6556 42.0096 19.6562 42.0263 19.6562C42.1913 19.6562 42.3505 19.5909 42.4681 19.4732C42.5977 19.3437 42.6638 19.1639 42.6491 18.9813L42.3829 15.663C42.3553 15.3189 42.0544 15.0622 41.7099 15.09C41.3659 15.1176 41.1093 15.4189 41.137 15.763L41.2707 17.4296C38.4795 14.9266 34.9199 13.4143 31.1793 13.156C30.8347 13.1315 30.5365 13.3921 30.5127 13.7365C30.489 14.0809 30.7488 14.3793 31.0932 14.403ZM20.4055 14.5606C20.4055 12.0889 22.4164 10.0781 24.888 10.0781C27.3595 10.0781 29.3704 12.089 29.3704 14.5606C29.3704 17.0323 27.3595 19.0431 24.888 19.0431C22.4164 19.0431 20.4055 17.0323 20.4055 14.5606ZM21.6555 14.5606C21.6555 16.343 23.1056 17.7931 24.888 17.7931C26.6703 17.7931 28.1204 16.343 28.1204 14.5606C28.1204 12.7782 26.6704 11.3281 24.888 11.3281C23.1055 11.3281 21.6555 12.7782 21.6555 14.5606ZM23.9594 16.1321C24.0809 16.2505 24.2383 16.3095 24.3955 16.3095C24.5566 16.3095 24.7174 16.2477 24.8396 16.1244L27.0666 13.8765C27.3095 13.6312 27.3077 13.2355 27.0625 12.9927C26.8173 12.7497 26.4216 12.7516 26.1787 12.9968L24.388 14.8043L23.5896 14.0261C23.3424 13.7851 22.9467 13.7902 22.7059 14.0374C22.4649 14.2846 22.4699 14.6803 22.7172 14.9212L23.9594 16.1321ZM14.5606 39.5945C12.089 39.5945 10.0781 37.5837 10.0781 35.112C10.0781 32.6404 12.089 30.6296 14.5606 30.6296C17.0323 30.6296 19.0431 32.6405 19.0431 35.112C19.0431 37.5836 17.0323 39.5945 14.5606 39.5945ZM17.7931 35.112C17.7931 33.3297 16.343 31.8796 14.5606 31.8796C12.7783 31.8796 11.3281 33.3297 11.3281 35.112C11.3281 36.8944 12.7782 38.3445 14.5606 38.3445C16.343 38.3445 17.7931 36.8945 17.7931 35.112ZM16.7352 33.5441C16.4899 33.3011 16.0942 33.303 15.8513 33.5482L14.0606 35.3557L13.2623 34.5775C13.0151 34.3366 12.6194 34.3416 12.3785 34.5888C12.1376 34.836 12.1426 35.2317 12.3898 35.4726L13.6321 36.6835C13.7536 36.802 13.911 36.8609 14.0683 36.8609C14.2293 36.8609 14.3902 36.7991 14.5123 36.6758L16.7394 34.4279C16.9822 34.1827 16.9804 33.787 16.7352 33.5441ZM39.5945 45.4394C39.5945 47.9111 37.5837 49.9219 35.1121 49.9219C32.6405 49.9219 30.6297 47.911 30.6297 45.4394C30.6297 42.9677 32.6405 40.9569 35.1121 40.9569C37.5837 40.9569 39.5945 42.9677 39.5945 45.4394ZM38.3445 45.4394C38.3445 43.657 36.8945 42.2069 35.1121 42.2069C33.3298 42.2069 31.8797 43.657 31.8797 45.4394C31.8797 47.2218 33.3297 48.6719 35.112 48.6719C36.8944 48.6719 38.3445 47.2218 38.3445 45.4394ZM36.4027 43.8755L34.612 45.683L33.8137 44.9048C33.5665 44.6638 33.1708 44.6689 32.9299 44.9162C32.689 45.1634 32.694 45.5591 32.9412 45.7999L34.1835 47.0109C34.305 47.1293 34.4624 47.1883 34.6197 47.1883C34.7807 47.1883 34.9416 47.1264 35.0638 47.0031L37.2908 44.7552C37.5337 44.51 37.5319 44.1143 37.2866 43.8714C37.0414 43.6285 36.6456 43.6302 36.4027 43.8755ZM49.9219 24.888C49.9219 27.3597 47.911 29.3705 45.4395 29.3705C42.9679 29.3705 40.957 27.3597 40.957 24.888C40.957 22.4163 42.9679 20.4055 45.4395 20.4055C47.911 20.4055 49.9219 22.4163 49.9219 24.888ZM48.6719 24.888C48.6719 23.1056 47.2218 21.6555 45.4395 21.6555C43.6571 21.6555 42.207 23.1057 42.207 24.888C42.207 26.6704 43.6571 28.1205 45.4395 28.1205C47.2218 28.1205 48.6719 26.6705 48.6719 24.888ZM47.6139 23.3201C47.3688 23.0772 46.973 23.0789 46.7301 23.3242L44.9394 25.1317L44.141 24.3535C43.8938 24.1125 43.4981 24.1176 43.2573 24.3648C43.0163 24.612 43.0213 25.0077 43.2686 25.2486L44.5109 26.4595C44.6323 26.578 44.7898 26.637 44.947 26.637C45.108 26.637 45.2689 26.5751 45.3911 26.4518L47.6181 24.2039C47.861 23.9587 47.8591 23.563 47.6139 23.3201ZM40.0833 28.4216V31.5784C40.0833 31.9235 39.8034 32.2034 39.4583 32.2034H38.3716C38.173 32.9612 37.8736 33.6836 37.4771 34.3611L38.246 35.13C38.3632 35.2472 38.4291 35.4062 38.4291 35.572C38.4291 35.7377 38.3632 35.8967 38.246 36.0139L36.0138 38.246C35.8966 38.3632 35.7377 38.4291 35.5719 38.4291C35.4061 38.4291 35.2471 38.3632 35.1299 38.246L34.361 37.4771C33.6838 37.8734 32.9613 38.173 32.2033 38.3715V39.4583C32.2033 39.8034 31.9234 40.0833 31.5783 40.0833H28.4216C28.0764 40.0833 27.7966 39.8034 27.7966 39.4583V38.3715C27.0387 38.173 26.3164 37.8735 25.6389 37.477L24.8698 38.246C24.7527 38.3632 24.5937 38.4291 24.4279 38.4291C24.2621 38.4291 24.1031 38.3632 23.9859 38.246L21.7539 36.0138C21.5098 35.7697 21.5098 35.3741 21.7539 35.13L22.5228 34.3611C22.1265 33.6839 21.827 32.9613 21.6284 32.2034H20.5416C20.1964 32.2034 19.9166 31.9235 19.9166 31.5784V28.4216C19.9166 28.0765 20.1964 27.7966 20.5416 27.7966H21.6284C21.8269 27.0388 22.1263 26.3164 22.5228 25.6389L21.7538 24.8699C21.6366 24.7527 21.5708 24.5937 21.5708 24.428C21.5708 24.2622 21.6366 24.1032 21.7538 23.986L23.9859 21.7539C24.23 21.5098 24.6257 21.5098 24.8698 21.7539L25.6387 22.5227C26.3159 22.1264 27.0384 21.8269 27.7964 21.6283V20.5416C27.7964 20.1964 28.0763 19.9166 28.4214 19.9166H31.5781C31.9233 19.9166 32.2031 20.1964 32.2031 20.5416V21.6282C32.9609 21.8267 33.6834 22.1262 34.3609 22.5227L35.1298 21.7537C35.247 21.6366 35.406 21.5707 35.5718 21.5707C35.7376 21.5707 35.8966 21.6366 36.0138 21.7537L38.2459 23.9859C38.363 24.1031 38.4289 24.2621 38.4289 24.4279C38.4289 24.5937 38.363 24.7527 38.2459 24.8698L37.477 25.6387C37.8734 26.316 38.1729 27.0384 38.3715 27.7965H39.4582C39.8035 27.7966 40.0833 28.0765 40.0833 28.4216ZM38.8333 29.0466H37.8745C37.5765 29.0466 37.3199 28.8362 37.2616 28.5438C37.0722 27.5941 36.7028 26.703 36.1638 25.8953C35.9984 25.6474 36.031 25.3172 36.2418 25.1064L36.9203 24.428L35.572 23.0797L34.8935 23.7582C34.6828 23.969 34.3527 24.0016 34.1047 23.8362C33.2966 23.297 32.4055 22.9277 31.4563 22.7384C31.1639 22.6802 30.9534 22.4236 30.9534 22.1255V21.1667H29.0467V22.1255C29.0467 22.4235 28.8363 22.6801 28.544 22.7384C27.5941 22.9278 26.703 23.2971 25.8956 23.8361C25.6477 24.0015 25.3175 23.969 25.1067 23.7582L24.4282 23.0797L23.0799 24.4279L23.7585 25.1065C23.9692 25.3172 24.0019 25.6474 23.8365 25.8953C23.2973 26.7033 22.928 27.5944 22.7388 28.5437C22.6805 28.836 22.4239 29.0465 22.1258 29.0465H21.1669V30.9532H22.1258C22.4238 30.9532 22.6804 31.1637 22.7387 31.4559C22.9281 32.4058 23.2974 33.2968 23.8364 34.1043C24.0019 34.3522 23.9693 34.6824 23.7585 34.8932L23.0799 35.5718L24.4281 36.9201L25.1067 36.2415C25.3174 36.0307 25.6477 35.9981 25.8955 36.1635C26.7035 36.7027 27.5946 37.072 28.5439 37.2612C28.8363 37.3195 29.0467 37.5761 29.0467 37.8742V38.8331H30.9534V37.8742C30.9534 37.5762 31.1639 37.3196 31.4563 37.2613C32.4062 37.0719 33.2972 36.7026 34.1046 36.1636C34.3525 35.998 34.6828 36.0307 34.8935 36.2415L35.572 36.9201L36.9203 35.5718L36.2418 34.8933C36.0311 34.6826 35.9984 34.3523 36.1638 34.1045C36.703 33.2965 37.0723 32.4054 37.2616 31.456C37.3198 31.1637 37.5764 30.9532 37.8745 30.9532H38.8334L38.8333 29.0466ZM35.5434 30C35.5434 33.0566 33.0566 35.5433 30.0001 35.5433C26.9435 35.5433 24.4568 33.0566 24.4568 30C24.4568 26.9434 26.9435 24.4567 30.0001 24.4567C33.0566 24.4567 35.5434 26.9434 35.5434 30ZM34.2934 30C34.2934 27.6327 32.3674 25.7067 30.0001 25.7067C27.6327 25.7067 25.7068 27.6327 25.7068 30C25.7068 32.3673 27.6327 34.2933 30.0001 34.2933C32.3674 34.2933 34.2934 32.3673 34.2934 30Z" fill="white"/>
</g>
<defs>
<linearGradient id="paint0_linear_315_957" x1="30" y1="0" x2="30" y2="60" gradientUnits="userSpaceOnUse">
<stop stop-color="#A999FF"/>
<stop offset="1" stop-color="#7763E5"/>
<stop offset="1" stop-color="#6C57E2"/>
</linearGradient>
<clipPath id="clip0_315_957">
<rect width="40" height="40" fill="white" transform="translate(10 10)"/>
</clipPath>
</defs>
</svg>
