<svg width="60" height="60" viewBox="0 0 60 60" fill="none" xmlns="http://www.w3.org/2000/svg">
<rect width="60" height="60" fill="url(#paint0_linear_315_951)"/>
<path d="M49.7853 28.2621H34.1321C33.9591 28.2621 33.7932 28.3308 33.6709 28.4531C33.5486 28.5754 33.4798 28.7413 33.4798 28.9143V31.2688C32.2891 30.5839 30.9402 30.2219 29.5665 30.2188H27.6099V28.9143C28.8943 27.9604 29.7834 26.5677 30.1079 25.001H30.2188C30.7177 24.9982 31.2053 24.8524 31.6239 24.5809C32.0425 24.3093 32.3744 23.9235 32.5804 23.469C32.7863 23.0146 32.8576 22.5106 32.7858 22.0169C32.7141 21.5231 32.5022 21.0603 32.1754 20.6833V18.4788C32.1754 16.2301 31.2821 14.0735 29.692 12.4834C28.1019 10.8933 25.9453 10 23.6966 10C21.4478 10 19.2912 10.8933 17.7011 12.4834C16.111 14.0735 15.2177 16.2301 15.2177 18.4788V20.6833C14.8909 21.0603 14.6791 21.5231 14.6073 22.0169C14.5355 22.5106 14.6068 23.0146 14.8128 23.469C15.0187 23.9235 15.3507 24.3093 15.7692 24.5809C16.1878 24.8524 16.6755 24.9982 17.1744 25.001H17.3048C17.6243 26.5648 18.5061 27.9571 19.7833 28.9143V30.2188H17.8266C15.7509 30.2188 13.7601 31.0433 12.2924 32.5111C10.8246 33.9789 10 35.9696 10 38.0454V49.7853C10 49.9583 10.0687 50.1242 10.191 50.2465C10.3133 50.3688 10.4792 50.4375 10.6522 50.4375H32.1754V49.1331H26.8598L25.001 38.1497L25.7902 36.5714L27.2903 37.3214C27.389 37.3721 27.499 37.3968 27.6099 37.3931C27.7466 37.3935 27.88 37.3509 27.9912 37.2713C28.1024 37.1917 28.1857 37.0792 28.2295 36.9496L30.0296 31.5232C31.2812 31.617 32.4792 32.0699 33.4798 32.8276V49.7853C33.4798 49.9583 33.5486 50.1242 33.6709 50.2465C33.7932 50.3688 33.9591 50.4375 34.1321 50.4375H49.7853C49.9583 50.4375 50.1242 50.3688 50.2465 50.2465C50.3688 50.1242 50.4375 49.9583 50.4375 49.7853V28.9143C50.4375 28.7413 50.3688 28.5754 50.2465 28.4531C50.1242 28.3308 49.9583 28.2621 49.7853 28.2621ZM30.2188 23.6966V21.0877C30.5647 21.0877 30.8965 21.2251 31.1411 21.4698C31.3858 21.7144 31.5232 22.0462 31.5232 22.3921C31.5232 22.7381 31.3858 23.0699 31.1411 23.3145C30.8965 23.5591 30.5647 23.6966 30.2188 23.6966ZM15.87 22.3921C15.87 22.0462 16.0074 21.7144 16.252 21.4698C16.4966 21.2251 16.8284 21.0877 17.1744 21.0877V23.6966C16.8284 23.6966 16.4966 23.5591 16.252 23.3145C16.0074 23.0699 15.87 22.7381 15.87 22.3921ZM17.1744 19.7833C16.9541 19.7866 16.735 19.8173 16.5222 19.8746V18.4788C16.5222 16.5761 17.278 14.7512 18.6235 13.4058C19.969 12.0603 21.7938 11.3044 23.6966 11.3044C25.5993 11.3044 27.4242 12.0603 28.7696 13.4058C30.1151 14.7512 30.871 16.5761 30.871 18.4788V19.8746C30.6582 19.8173 30.4391 19.7866 30.2188 19.7833C30.2188 19.6103 30.15 19.4444 30.0277 19.3221C29.9054 19.1998 29.7395 19.131 29.5665 19.131C29.0603 19.131 28.5609 19.0132 28.1081 18.7868C27.6553 18.5604 27.2614 18.2316 26.9577 17.8266L26.175 16.7831C26.1142 16.7021 26.0355 16.6363 25.9449 16.591C25.8543 16.5458 25.7545 16.5222 25.6532 16.5222C25.552 16.5222 25.4521 16.5458 25.3615 16.591C25.271 16.6363 25.1922 16.7021 25.1315 16.7831L24.3488 17.8266C24.045 18.2316 23.6511 18.5604 23.1983 18.7868C22.7455 19.0132 22.2462 19.131 21.7399 19.131H17.8266C17.6536 19.131 17.4877 19.1998 17.3654 19.3221C17.2431 19.4444 17.1744 19.6103 17.1744 19.7833ZM18.4788 23.6966V20.4355H21.7399C22.4487 20.4355 23.1477 20.2705 23.7817 19.9535C24.4156 19.6365 24.9671 19.1763 25.3923 18.6093L25.6532 18.2636L25.9141 18.6093C26.6419 19.5733 27.7194 20.2128 28.9143 20.3898V23.6966C28.9143 25.0804 28.3646 26.4076 27.3861 27.3861C26.4076 28.3646 25.0804 28.9143 23.6966 28.9143C22.3127 28.9143 20.9856 28.3646 20.0071 27.3861C19.0286 26.4076 18.4788 25.0804 18.4788 23.6966ZM23.6966 30.2188C24.5948 30.2192 25.4833 30.0326 26.3054 29.6709V30.6362L23.6966 33.7668L21.0877 30.6362V29.6709C21.9099 30.0326 22.7983 30.2192 23.6966 30.2188ZM20.1616 35.8213L18.7332 31.5232H20.1289L22.6661 34.569L20.1616 35.8213ZM11.3044 38.0454C11.3003 36.3929 11.9235 34.8004 13.0482 33.5898C14.1729 32.3791 15.7152 31.6405 17.3635 31.5232L19.1637 36.9235C19.2029 37.058 19.2843 37.1762 19.3958 37.2608C19.5074 37.3453 19.6433 37.3917 19.7833 37.3931C19.8854 37.3925 19.9859 37.368 20.0768 37.3214L21.5769 36.5714L22.3921 38.1497L20.5333 49.1331H15.2177V40.002H13.9133V49.1331H11.3044V38.0454ZM21.8573 49.1331L23.5987 38.6976H23.7944L25.5358 49.1331H21.8573ZM23.9444 37.3931H23.4487L22.7443 35.9909L23.6966 35.5148L24.6488 35.9909L23.9444 37.3931ZM27.2055 35.8213L24.701 34.569L27.2642 31.5232H28.66L27.2055 35.8213ZM38.6976 29.5665H45.2198V30.871H38.6976V29.5665ZM49.1331 49.1331H34.7843V29.5665H37.3931V31.5232C37.3931 31.6962 37.4619 31.8621 37.5842 31.9844C37.7065 32.1067 37.8724 32.1754 38.0454 32.1754H45.872C46.045 32.1754 46.2108 32.1067 46.3332 31.9844C46.4555 31.8621 46.5242 31.6962 46.5242 31.5232V29.5665H49.1331V49.1331Z" fill="white"/>
<path d="M39.35 33.48H36.7411C36.5681 33.48 36.4022 33.5487 36.2799 33.671C36.1576 33.7933 36.0889 33.9592 36.0889 34.1322V36.7411C36.0889 36.914 36.1576 37.0799 36.2799 37.2023C36.4022 37.3246 36.5681 37.3933 36.7411 37.3933H39.35C39.5229 37.3933 39.6888 37.3246 39.8111 37.2023C39.9335 37.0799 40.0022 36.914 40.0022 36.7411V34.1322C40.0022 33.9592 39.9335 33.7933 39.8111 33.671C39.6888 33.5487 39.5229 33.48 39.35 33.48ZM38.6977 36.0889H37.3933V34.7844H38.6977V36.0889Z" fill="white"/>
<path d="M39.35 38.6978H36.7411C36.5681 38.6978 36.4022 38.7665 36.2799 38.8888C36.1576 39.0111 36.0889 39.177 36.0889 39.35V41.9588C36.0889 42.1318 36.1576 42.2977 36.2799 42.42C36.4022 42.5423 36.5681 42.6111 36.7411 42.6111H39.35C39.5229 42.6111 39.6888 42.5423 39.8111 42.42C39.9335 42.2977 40.0022 42.1318 40.0022 41.9588V39.35C40.0022 39.177 39.9335 39.0111 39.8111 38.8888C39.6888 38.7665 39.5229 38.6978 39.35 38.6978ZM38.6977 41.3066H37.3933V40.0022H38.6977V41.3066Z" fill="white"/>
<path d="M39.35 43.9155H36.7411C36.5681 43.9155 36.4022 43.9842 36.2799 44.1066C36.1576 44.2289 36.0889 44.3948 36.0889 44.5677V47.1766C36.0889 47.3496 36.1576 47.5155 36.2799 47.6378C36.4022 47.7601 36.5681 47.8288 36.7411 47.8288H39.35C39.5229 47.8288 39.6888 47.7601 39.8111 47.6378C39.9335 47.5155 40.0022 47.3496 40.0022 47.1766V44.5677C40.0022 44.3948 39.9335 44.2289 39.8111 44.1066C39.6888 43.9842 39.5229 43.9155 39.35 43.9155ZM38.6977 46.5244H37.3933V45.22H38.6977V46.5244Z" fill="white"/>
<path d="M41.3066 33.48H47.8288V34.7844H41.3066V33.48Z" fill="white"/>
<path d="M41.3066 36.0889H47.8288V37.3933H41.3066V36.0889Z" fill="white"/>
<path d="M41.3066 38.6978H47.8288V40.0022H41.3066V38.6978Z" fill="white"/>
<path d="M41.3066 41.3066H47.8288V42.6111H41.3066V41.3066Z" fill="white"/>
<path d="M41.3066 43.9155H47.8288V45.22H41.3066V43.9155Z" fill="white"/>
<path d="M41.3066 46.5244H47.8288V47.8288H41.3066V46.5244Z" fill="white"/>
<defs>
<linearGradient id="paint0_linear_315_951" x1="30" y1="0" x2="30" y2="60" gradientUnits="userSpaceOnUse">
<stop stop-color="#A999FF"/>
<stop offset="1" stop-color="#7763E5"/>
<stop offset="1" stop-color="#6C57E2"/>
</linearGradient>
</defs>
</svg>
